SplineFontDB: 3.0
FontName: Gidugu
FullName: Gidugu
FamilyName: Gidugu
OS2StyleName: "regular"
Weight: Regular
Copyright: This font is copyright of SiliconAndhra, USA.
Version: 1.0
FONDName: Gidugu-l
ItalicAngle: 0
UnderlinePosition: 0
UnderlineWidth: 0
Ascent: 899
Descent: 225
InvalidEm: 1
UFOAscent: 875
UFODescent: -250
LayerCount: 2
Layer: 0 0 "Back" 1
Layer: 1 0 "Fore" 0
PreferredKerning: 1
FSType: 0
OS2Version: 0
OS2_WeightWidthSlopeOnly: 0
OS2_UseTypoMetrics: 0
CreationTime: 1417777765
ModificationTime: 1417802988
PfmFamily: 17
TTFWeight: 400
TTFWidth: 5
LineGap: 0
VLineGap: 0
Panose: 0 0 0 0 0 0 0 0 0 0
OS2TypoAscent: 0
OS2TypoAOffset: 1
OS2TypoDescent: 0
OS2TypoDOffset: 1
OS2TypoLinegap: 0
OS2WinAscent: 0
OS2WinAOffset: 1
OS2WinDescent: 0
OS2WinDOffset: 1
HheadAscent: 0
HheadAOffset: 1
HheadDescent: 0
HheadDOffset: 1
OS2SubXSize: 700
OS2SubYSize: 650
OS2SubXOff: 0
OS2SubYOff: 140
OS2SupXSize: 700
OS2SupYSize: 650
OS2SupXOff: 0
OS2SupYOff: 477
OS2StrikeYSize: 50
OS2StrikeYPos: 250
OS2CapHeight: 596
OS2XHeight: 410
OS2Vendor: 'pyrs'
Lookup: 4 0 0 "'nukt' Nukta Forms in Telugu lookup 0" { "'nukt' Nukta Forms in Telugu lookup 0 subtable"  } ['nukt' ('telu' <'dflt' > ) ]
Lookup: 4 0 0 "'akhn' Akhand in Telugu lookup 1" { "'akhn' Akhand in Telugu lookup 1 subtable"  } ['akhn' ('telu' <'dflt' > ) ]
Lookup: 4 0 0 "'blwf' Below Base Forms in Telugu lookup 2" { "'blwf' Below Base Forms in Telugu lookup 2 subtable"  } ['blwf' ('telu' <'dflt' > ) ]
Lookup: 4 0 0 "'blws' Below Base Substitutions in Telugu lookup 3" { "'blws' Below Base Substitutions in Telugu lookup 3 subtable"  } ['blws' ('telu' <'dflt' > ) ]
Lookup: 6 0 0 "'blws' Below Base Substitutions in Telugu lookup 4" { "'blws' Below Base Substitutions in Telugu lookup 4 contextual 0"  "'blws' Below Base Substitutions in Telugu lookup 4 contextual 1"  "'blws' Below Base Substitutions in Telugu lookup 4 contextual 2"  } ['blws' ('telu' <'dflt' > ) ]

StartChar: .notdef
Encoding: 0 -1 0
GlifName: _notdef
Width: 387
VWidth: 0
Flags: W
LayerCount: 2
Back
Fore
SplineSet
317 -152 m 257
 317 621 l 257
 72 621 l 257
 72 -152 l 257
 317 -152 l 257
130 569 m 257
 257 569 l 257
 257 544 l 257
 206 544 l 257
 206 515 l 257
 257 515 l 257
 257 490 l 257
 129 490 l 257
 129 515 l 257
 180 515 l 257
 180 544 l 257
 130 544 l 257
 130 569 l 257
129 470 m 257
 206 470 l 257
 206 416 l 257
 257 416 l 257
 257 389 l 257
 129 389 l 257
 129 470 l 257
180 416 m 257
 180 443 l 257
 155 443 l 257
 155 416 l 257
 180 416 l 257
129 368 m 257
 257 368 l 257
 257 343 l 257
 206 343 l 257
 206 289 l 257
 129 289 l 257
 129 314 l 257
 180 314 l 257
 180 343 l 257
 129 343 l 257
 129 368 l 257
232 322 m 257
 257 322 l 257
 257 245 l 257
 129 245 l 257
 129 271 l 257
 232 271 l 257
 232 322 l 257
180 228 m 257
 257 228 l 257
 257 140 l 257
 129 140 l 257
 129 228 l 257
 155 228 l 257
 155 166 l 257
 232 166 l 257
 232 202 l 257
 206 202 l 257
 206 185 l 257
 180 185 l 257
 180 228 l 257
129 94 m 257
 257 94 l 257
 257 6 l 257
 129 6 l 257
 129 94 l 257
232 32 m 257
 232 68 l 257
 155 68 l 257
 155 32 l 257
 232 32 l 257
129 -12 m 257
 257 -12 l 257
 257 -37 l 257
 233 -37 l 257
 178 -73 l 257
 257 -73 l 257
 257 -99 l 257
 129 -99 l 257
 129 -73 l 257
 184 -37 l 257
 129 -37 l 257
 129 -12 l 257
EndSplineSet
Validated: 9
EndChar

StartChar: A
Encoding: 1 65 1
GlifName: A_
Width: 421
VWidth: 0
Flags: W
LayerCount: 2
Back
Fore
SplineSet
271 127 m 257
 309 0 l 257
 418 0 l 257
 276 460 l 257
 145 460 l 257
 5 0 l 257
 68 0 l 257
 106 127 l 257
 271 127 l 257
255 181 m 257
 122 181 l 257
 189 404 l 257
 255 181 l 257
EndSplineSet
Validated: 9
EndChar

StartChar: AA
Encoding: 2 3078 2
GlifName: A_A_
Width: 700
VWidth: 0
Flags: W
LayerCount: 2
Back
Fore
SplineSet
181 380 m 256
 215 380 229 363 229 328 c 256
NamedP: "hr00"
 229 286 220 266 181 266 c 256
 149 266 131 286 131 318 c 256
 131 354 146 380 181 380 c 256
514 380 m 256
 558 380 575 356 575 311 c 256
 575 266 556 235 514 235 c 256
 472 235 453 269 453 313 c 256
 453 358 470 380 514 380 c 256
191 433 m 256
 75 433 10 354 10 236 c 256
 10 153 36 92 89 55 c 256
 140 18 222 0 336 0 c 256
 469 0 665 27 665 133 c 256
 665 169 633 208 603 214 c 257
 640 226 666 256 666 303 c 256
 666 394 592 428 494 428 c 256
 408 428 355 395 355 313 c 256
 355 262 381 225 421 213 c 257
 234 213 l 257
 234 154 l 257
 530 154 l 257
 533 147 534 140 534 134 c 256
 534 111 518 91 485 75 c 256
 450 58 404 50 345 50 c 256
 219 50 116 102 116 219 c 256
 116 234 117 245 119 254 c 257
 128 230 158 220 193 220 c 256
 261 220 309 260 309 326 c 256
 309 397 263 433 191 433 c 256
EndSplineSet
Validated: 9
EndChar

StartChar: AAMatra
Encoding: 3 3134 3
GlifName: A_A_M_atra
Width: 720
VWidth: 0
Flags: W
LayerCount: 2
Back
Fore
SplineSet
536 273 m 256
 572 273 587 248 587 211 c 256
NamedP: "hr00"
 587 167 576 139 536 139 c 256
 501 139 481 164 481 200 c 256
 481 244 495 273 536 273 c 256
517 317 m 256
 434 317 379 279 379 200 c 256
 379 123 451 91 533 91 c 256
 632 91 689 155 689 255 c 256
 689 357 616 410 510 410 c 258
 -294 410 l 257
 -294 361 l 257
 482 361 l 258
 533 361 565 345 580 312 c 258
 584 303 l 257
 566 315 551 317 517 317 c 256
EndSplineSet
Validated: 9
EndChar

StartChar: AE
Encoding: 4 198 4
GlifName: A_E_
Width: 603
VWidth: 0
Flags: W
LayerCount: 2
Back
Fore
SplineSet
588 54 m 257
 416 54 l 257
 416 194 l 257
 558 194 l 257
 558 248 l 257
 416 248 l 257
 416 406 l 257
 575 406 l 257
 575 460 l 257
 203 460 l 257
 10 0 l 257
 75 0 l 257
 155 194 l 257
 302 194 l 257
 302 0 l 257
 588 0 l 257
 588 54 l 257
302 248 m 257
 176 248 l 257
 241 406 l 257
 302 406 l 257
 302 248 l 257
EndSplineSet
Validated: 9
EndChar

StartChar: AEacute
Encoding: 5 508 5
GlifName: A_E_acute
Width: 603
VWidth: 0
Flags: W
LayerCount: 2
Back
Fore
SplineSet
348 494 m 257
 476 580 l 257
 412 653 l 257
 327 519 l 257
 348 494 l 257
588 54 m 257
 416 54 l 257
 416 194 l 257
 558 194 l 257
 558 248 l 257
 416 248 l 257
 416 406 l 257
 575 406 l 257
 575 460 l 257
 203 460 l 257
 10 0 l 257
 75 0 l 257
 155 194 l 257
 302 194 l 257
 302 0 l 257
 588 0 l 257
 588 54 l 257
302 248 m 257
 176 248 l 257
 241 406 l 257
 302 406 l 257
 302 248 l 257
EndSplineSet
Validated: 9
EndChar

StartChar: AI
Encoding: 6 3088 6
GlifName: A_I_
Width: 665
VWidth: 0
Flags: W
LayerCount: 2
Back
Fore
SplineSet
309 41 m 257
 329 10 374 -2 428 -2 c 256
 560 -2 630 89 634 223 c 256
NamedP: "hr00"
 636 300 616 354 580 386 c 256
 549 415 500 430 434 430 c 256
 383 430 346 415 325 384 c 257
 311 417 245 430 193 430 c 256
 97 430 8 393 18 304 c 257
 144 304 l 257
 144 357 156 380 208 380 c 256
 249 380 276 346 276 304 c 257
 364 304 l 257
 364 344 385 379 423 379 c 256
 492 379 503 311 503 230 c 256
 503 166 496 120 483 91 c 256
 471 64 453 51 428 51 c 256
 380 51 366 79 366 129 c 256
 366 224 298 265 198 265 c 256
 94 265 13 230 13 134 c 256
 13 43 81 0 176 0 c 256
 236 0 277 13 309 41 c 257
196 214 m 256
 247 214 263 195 263 145 c 256
 263 96 243 54 196 54 c 256
 151 54 144 82 144 134 c 256
 144 186 150 214 196 214 c 256
EndSplineSet
Validated: 41
EndChar

StartChar: AIMatra
Encoding: 7 3144 7
GlifName: A_I_M_atra
Width: 795
VWidth: 0
Flags: W
LayerCount: 2
Back
Fore
SplineSet
635 360 m 258
 687 360 732 394 732 445 c 256
NamedP: "hr00"
 732 497 693 535 640 535 c 258
 174 535 l 257
 174 477 l 257
 578 477 l 258
 601 477 619 467 619 445 c 256
 619 425 602 410 582 410 c 258
 257 410 l 257
 257 360 l 257
 635 360 l 258
193 -205 m 256
 221 -205 241 -222 241 -249 c 256
 241 -279 223 -293 193 -293 c 256
 163 -293 146 -278 146 -249 c 256
 146 -221 164 -205 193 -205 c 256
63 -264 m 256
 63 -322 119 -350 181 -350 c 258
 699 -350 l 257
 699 -293 l 257
 310 -293 l 257
 320 -283 324 -263 324 -245 c 256
 324 -192 259 -171 200 -171 c 256
 125 -171 63 -195 63 -264 c 256
EndSplineSet
Validated: 9
EndChar

StartChar: AU
Encoding: 8 3092 8
GlifName: A_U_
Width: 729
VWidth: 0
Flags: W
LayerCount: 2
Back
Fore
SplineSet
570 411 m 256
 602 411 619 396 619 364 c 256
NamedP: "hr00"
 619 325 607 306 570 306 c 256
 538 306 523 323 523 354 c 256
 523 394 533 411 570 411 c 256
458 -2 m 256
 547 -2 628 38 628 121 c 256
 628 197 562 230 481 230 c 258
 455 230 l 257
 455 176 l 257
 501 176 518 163 518 119 c 256
 518 74 484 54 438 54 c 256
 383 54 370 83 370 144 c 257
 271 144 l 257
 271 90 253 54 203 54 c 256
 159 54 145 92 145 139 c 256
 145 186 179 216 248 229 c 256
 319 242 355 274 355 326 c 257
 365 363 337 383 313 399 c 257
 338 405 358 416 358 445 c 256
 358 461 348 478 333 478 c 258
 530 478 l 258
 576 478 608 469 616 435 c 257
 600 445 583 446 553 446 c 256
 480 446 436 423 436 354 c 256
 436 294 499 269 566 269 c 256
 655 269 718 313 718 398 c 256
 718 486 635 536 540 536 c 258
 15 536 l 257
 15 478 l 257
 218 478 l 258
 237 478 253 470 253 451 c 256
 253 427 230 425 200 425 c 258
 40 425 l 257
 40 396 l 257
 58 396 l 257
 42 385 30 372 23 355 c 257
 14 338 10 318 10 295 c 257
 136 295 l 257
 136 325 l 258
 136 355 161 376 191 376 c 256
 229 376 253 357 253 320 c 256
 253 292 222 273 160 263 c 256
 63 247 14 204 14 133 c 256
 14 42 80 0 176 0 c 256
 247 0 288 15 315 56 c 257
 341 12 385 -2 458 -2 c 256
EndSplineSet
Validated: 41
EndChar

StartChar: Aacute
Encoding: 9 193 9
GlifName: A_acute
Width: 421
VWidth: 0
Flags: W
LayerCount: 2
Back
Fore
SplineSet
182 494 m 257
 310 580 l 257
 246 653 l 257
 160 519 l 257
 182 494 l 257
271 127 m 257
 309 0 l 257
 418 0 l 257
 276 460 l 257
 145 460 l 257
 5 0 l 257
 68 0 l 257
 106 127 l 257
 271 127 l 257
255 181 m 257
 122 181 l 257
 189 404 l 257
 255 181 l 257
EndSplineSet
Validated: 9
EndChar

StartChar: Abreve
Encoding: 10 258 10
GlifName: A_breve
Width: 421
VWidth: 0
Flags: W
LayerCount: 2
Back
Fore
SplineSet
311 616 m 257
 264 616 l 257
 264 582 248 563 210 563 c 256
 172 563 154 582 154 616 c 257
 110 616 l 257
 110 559 127 498 210 498 c 256
 293 498 311 559 311 616 c 257
  PathStart: -2
271 127 m 257
 309 0 l 257
 418 0 l 257
 276 460 l 257
 145 460 l 257
 5 0 l 257
 68 0 l 257
 106 127 l 257
 271 127 l 257
255 181 m 257
 122 181 l 257
 189 404 l 257
 255 181 l 257
EndSplineSet
Validated: 9
EndChar

StartChar: Acircumflex
Encoding: 11 194 11
GlifName: A_circumflex
Width: 421
VWidth: 0
Flags: W
LayerCount: 2
Back
Fore
SplineSet
142 491 m 257
 210 552 l 257
 279 491 l 257
 309 516 l 257
 237 635 l 257
 185 635 l 257
 112 516 l 257
 142 491 l 257
271 127 m 257
 309 0 l 257
 418 0 l 257
 276 460 l 257
 145 460 l 257
 5 0 l 257
 68 0 l 257
 106 127 l 257
 271 127 l 257
255 181 m 257
 122 181 l 257
 189 404 l 257
 255 181 l 257
EndSplineSet
Validated: 9
EndChar

StartChar: Adieresis
Encoding: 12 196 12
GlifName: A_dieresis
Width: 421
VWidth: 0
Flags: W
LayerCount: 2
Back
Fore
SplineSet
190 558 m 256
 190 591 163 618 131 618 c 256
 97 618 72 591 72 558 c 256
 72 527 97 499 131 499 c 256
 163 499 190 526 190 558 c 256
  PathStart: -2
350 558 m 256
 350 591 323 618 290 618 c 256
 258 618 231 591 231 558 c 256
 231 527 258 499 290 499 c 256
 323 499 350 526 350 558 c 256
  PathStart: -2
271 127 m 257
 309 0 l 257
 418 0 l 257
 276 460 l 257
 145 460 l 257
 5 0 l 257
 68 0 l 257
 106 127 l 257
 271 127 l 257
255 181 m 257
 122 181 l 257
 189 404 l 257
 255 181 l 257
EndSplineSet
Validated: 9
EndChar

StartChar: Agrave
Encoding: 13 192 13
GlifName: A_grave
Width: 421
VWidth: 0
Flags: W
LayerCount: 2
Back
Fore
SplineSet
238 494 m 257
 259 519 l 257
 174 653 l 257
 110 580 l 257
 238 494 l 257
271 127 m 257
 309 0 l 257
 418 0 l 257
 276 460 l 257
 145 460 l 257
 5 0 l 257
 68 0 l 257
 106 127 l 257
 271 127 l 257
255 181 m 257
 122 181 l 257
 189 404 l 257
 255 181 l 257
EndSplineSet
Validated: 9
EndChar

StartChar: Amacron
Encoding: 14 256 14
GlifName: A_macron
Width: 421
VWidth: 0
Flags: W
LayerCount: 2
Back
Fore
SplineSet
309 511 m 257
 309 587 l 257
 113 587 l 257
 113 511 l 257
 309 511 l 257
271 127 m 257
 309 0 l 257
 418 0 l 257
 276 460 l 257
 145 460 l 257
 5 0 l 257
 68 0 l 257
 106 127 l 257
 271 127 l 257
255 181 m 257
 122 181 l 257
 189 404 l 257
 255 181 l 257
EndSplineSet
Validated: 9
EndChar

StartChar: Anudatta
Encoding: 15 2386 15
GlifName: A_nudatta
Width: 0
VWidth: 0
Flags: W
LayerCount: 2
Back
Fore
SplineSet
121 -516 m 257
NamedP: "+YOQA"
 523 -516 l 257
 523 -425 l 257
 121 -425 l 257
 121 -516 l 257
NamedP: "+YOQA"
EndSplineSet
Validated: 9
EndChar

StartChar: Anusvara
Encoding: 16 3074 16
GlifName: A_nusvara
Width: 579
VWidth: 0
Flags: W
LayerCount: 2
Back
Fore
SplineSet
286 375 m 256
 386 375 423 325 423 221 c 256
NamedP: "hr00"
 423 113 381 49 278 49 c 256
 178 49 141 104 141 206 c 256
 141 320 177 375 286 375 c 256
10 216 m 256
 10 65 120 0 278 0 c 256
 431 0 550 74 554 216 c 256
 556 356 438 425 291 425 c 256
 131 425 10 364 10 216 c 256
EndSplineSet
Validated: 41
EndChar

StartChar: Aogonek
Encoding: 17 260 17
GlifName: A_ogonek
Width: 421
VWidth: 0
Flags: W
LayerCount: 2
Back
Fore
SplineSet
303 -62 m 256
 303 -49 310 -35 338 -17 c 257
 367 0 l 257
 418 0 l 257
 276 460 l 257
 145 460 l 257
 5 0 l 257
 68 0 l 257
 106 127 l 257
 271 127 l 257
 309 0 l 257
 311 0 l 257
 307 -3 l 257
 275 -21 250 -45 250 -78 c 256
 250 -114 279 -138 317 -138 c 256
 361 -138 396 -99 411 -72 c 257
 377 -50 l 257
 366 -67 354 -86 329 -86 c 256
 315 -86 303 -77 303 -62 c 256
  PathStart: -2
255 181 m 257
 122 181 l 257
 189 404 l 257
 255 181 l 257
EndSplineSet
Validated: 9
EndChar

StartChar: Arasunna
Encoding: 18 3073 18
GlifName: A_rasunna
Width: 319
VWidth: 0
Flags: W
LayerCount: 2
Back
Fore
SplineSet
141 218 m 256
 141 321 181 373 280 373 c 256
 292 373 301 372 308 371 c 257
 308 425 l 257
NamedP: "hr00"
 295 428 282 429 269 429 c 256
 111 429 10 358 10 206 c 256
 10 68 99 0 240 0 c 256
 264 0 287 3 308 9 c 257
 308 54 l 257
 302 53 294 53 284 53 c 256
 191 53 141 122 141 218 c 256
EndSplineSet
Validated: 9
EndChar

StartChar: Aring
Encoding: 19 197 19
GlifName: A_ring
Width: 421
VWidth: 0
Flags: W
LayerCount: 2
Back
Fore
SplineSet
288 563 m 256
 288 594 275 638 210 638 c 256
 144 638 133 594 133 563 c 256
 133 529 144 486 210 486 c 256
 275 486 288 529 288 563 c 256
  PathStart: -2
234 563 m 256
 234 547 231 523 210 523 c 256
 190 523 186 547 186 563 c 256
 186 579 190 603 210 603 c 256
 231 603 234 579 234 563 c 256
  PathStart: -2
271 127 m 257
 309 0 l 257
 418 0 l 257
 276 460 l 257
 145 460 l 257
 5 0 l 257
 68 0 l 257
 106 127 l 257
 271 127 l 257
255 181 m 257
 122 181 l 257
 189 404 l 257
 255 181 l 257
EndSplineSet
Validated: 9
EndChar

StartChar: Aringacute
Encoding: 20 506 20
GlifName: A_ringacute
Width: 421
VWidth: 0
Flags: W
LayerCount: 2
Back
Fore
SplineSet
288 563 m 256
 288 575 286 590 279 603 c 257
 329 630 l 257
 280 686 l 257
 241 634 l 257
 232 636 221 638 210 638 c 256
 144 638 133 594 133 563 c 256
 133 529 144 486 210 486 c 256
 275 486 288 529 288 563 c 256
  PathStart: -2
234 563 m 256
 234 547 231 523 210 523 c 256
 190 523 186 547 186 563 c 256
 186 579 190 603 210 603 c 256
 231 603 234 579 234 563 c 256
  PathStart: -2
271 127 m 257
 309 0 l 257
 418 0 l 257
 276 460 l 257
 145 460 l 257
 5 0 l 257
 68 0 l 257
 106 127 l 257
 271 127 l 257
255 181 m 257
 122 181 l 257
 189 404 l 257
 255 181 l 257
EndSplineSet
Validated: 9
EndChar

StartChar: Atilde
Encoding: 21 195 21
GlifName: A_tilde
Width: 421
VWidth: 0
Flags: W
LayerCount: 2
Back
Fore
SplineSet
258 513 m 256
 287 513 319 535 327 601 c 257
 292 613 l 257
 286 595 275 585 255 585 c 256
 224 585 204 609 161 609 c 256
 132 609 102 589 94 518 c 257
 128 506 l 257
 135 526 147 536 165 536 c 256
 195 536 215 513 258 513 c 256
  PathStart: -2
271 127 m 257
 309 0 l 257
 418 0 l 257
 276 460 l 257
 145 460 l 257
 5 0 l 257
 68 0 l 257
 106 127 l 257
 271 127 l 257
255 181 m 257
 122 181 l 257
 189 404 l 257
 255 181 l 257
EndSplineSet
Validated: 9
EndChar

StartChar: AuMatra
Encoding: 22 3148 22
GlifName: A_uM_atra
Width: 707
VWidth: 0
Flags: W
LayerCount: 2
Back
Fore
SplineSet
497 443 m 256
 425 443 379 427 379 361 c 256
NamedP: "hr00"
 379 291 448 260 523 260 c 256
 612 260 676 304 676 390 c 256
 676 479 590 534 497 534 c 258
 -238 534 l 257
 -238 474 l 257
 131 474 l 258
 153 474 166 464 166 444 c 256
 166 417 154 409 126 409 c 258
 -162 409 l 257
 -162 361 l 257
 188 361 l 258
 235 361 272 387 272 432 c 256
 272 455 264 471 247 479 c 257
 487 479 l 258
 529 479 565 465 573 432 c 257
 557 442 528 443 497 443 c 256
527 406 m 256
 559 406 576 392 576 361 c 256
 576 323 563 301 527 301 c 256
 494 301 479 317 479 348 c 256
 479 389 489 406 527 406 c 256
EndSplineSet
Validated: 9
EndChar

StartChar: Avagraha
Encoding: 23 3133 23
GlifName: A_vagraha
Width: 778
VWidth: 0
Flags: W
LayerCount: 2
Back
Fore
SplineSet
241 365 m 256
 293 365 328 336 328 284 c 256
 328 257 319 237 302 224 c 256
 285 211 254 202 209 195 c 256
 148 186 104 173 77 156 c 256
 50 138 37 114 37 83 c 256
NamedP: "hr00"
 37 7 110 -19 194 -19 c 258
 771 -19 l 257
 771 31 l 257
 252 31 l 258
 209 31 169 49 169 89 c 256
 169 106 177 121 193 132 c 256
 210 143 239 153 280 161 c 256
 336 172 375 185 397 202 c 256
 420 221 431 248 431 284 c 256
 431 379 346 415 243 415 c 256
 171 415 118 405 84 387 c 256
 51 369 34 342 34 303 c 256
 34 267 67 240 103 240 c 258
 210 240 l 257
 210 278 l 257
 192 278 l 258
 176 278 166 297 166 314 c 256
 166 350 202 365 241 365 c 256
EndSplineSet
Validated: 9
EndChar

StartChar: B
Encoding: 24 66 24
GlifName: B_
Width: 401
VWidth: 0
Flags: W
LayerCount: 2
Back
Fore
SplineSet
369 342 m 256
 369 389 343 460 214 460 c 258
 52 460 l 257
 52 0 l 257
 232 0 l 258
 356 0 386 67 386 123 c 256
 386 167 365 216 302 237 c 257
 358 258 369 303 369 342 c 256
  PathStart: -2
165 255 m 257
 165 419 l 257
 203 419 l 258
 232 419 257 400 257 341 c 256
 257 297 249 255 203 255 c 258
 165 255 l 257
165 41 m 257
 165 215 l 257
 217 215 l 258
 254 215 274 169 274 123 c 256
 274 67 255 41 217 41 c 258
 165 41 l 257
EndSplineSet
Validated: 9
EndChar

StartChar: Ba
Encoding: 25 3116 25
GlifName: B_a
Width: 736
VWidth: 0
Flags: W
AnchorPoint: "Anchor-0" 0 0 basechar 0
LayerCount: 2
Back
Fore
SplineSet
430 378 m 256
 516 378 543 313 543 218 c 256
 543 153 533 108 513 83 c 256
 497 63 472 53 438 53 c 256
NamedP: "hr00"
 383 53 370 83 370 144 c 257
 271 144 l 257
 271 90 253 54 203 54 c 256
 159 54 145 92 145 139 c 256
 145 186 179 216 248 229 c 256
 319 242 355 274 355 326 c 257
 362 401 277 425 194 425 c 256
 82 425 10 398 10 295 c 257
 136 295 l 257
 136 325 l 258
 136 355 161 376 191 376 c 256
 229 376 253 357 253 320 c 256
 253 292 222 273 160 263 c 256
 63 247 14 204 14 133 c 256
 14 42 80 0 176 0 c 256
 247 0 288 15 315 56 c 257
 341 12 380 0 454 0 c 256
 599 0 674 83 674 230 c 256
 674 353 582 433 459 433 c 256
 439 433 420 432 403 429 c 257
 403 376 l 257
 410 377 419 378 430 378 c 256
EndSplineSet
Validated: 41
EndChar

StartChar: BaAA
Encoding: 26 -1 26
GlifName: B_aA_A_
Width: 1096
VWidth: 0
Flags: W
AnchorPoint: "Anchor-0" 0 0 basechar 0
LayerCount: 2
Back
Fore
SplineSet
454 0 m 256
 599 0 674 83 674 230 c 256
 674 287 661 335 628 368 c 258
 618 378 l 257
 835 378 l 258
NamedP: "hr00"
 887 378 922 364 933 333 c 258
 936 325 l 257
 919 337 899 340 868 340 c 256
 786 340 734 302 734 223 c 256
 734 147 804 115 885 115 c 256
 984 115 1040 178 1040 278 c 256
 1040 379 967 426 863 426 c 258
 405 426 l 257
 405 378 l 257
 455 378 l 258
 496 378 522 363 533 334 c 256
 540 317 543 278 543 218 c 256
 543 153 533 108 513 83 c 256
 497 63 472 53 438 53 c 256
 383 53 370 83 370 144 c 257
 271 144 l 257
 271 90 253 54 203 54 c 256
 159 54 145 92 145 139 c 256
 145 186 179 216 248 229 c 256
 319 242 355 274 355 326 c 257
 362 401 277 425 194 425 c 256
 82 425 10 398 10 295 c 257
 136 295 l 257
 136 325 l 258
 136 356 160 378 191 378 c 256
 228 378 253 357 253 320 c 256
 253 292 222 273 160 263 c 256
 63 247 14 204 14 133 c 256
 14 42 80 0 176 0 c 256
 247 0 288 15 315 56 c 257
 341 12 380 0 454 0 c 256
889 295 m 256
 924 295 939 272 939 234 c 256
 939 190 928 163 889 163 c 256
 854 163 834 186 834 223 c 256
 834 268 848 295 889 295 c 256
EndSplineSet
Validated: 41
Ligature2: "'abvs' Above Base Substitutions in Telugu lookup 9 subtable" Ba AAMatra
EndChar

StartChar: BaAU
Encoding: 27 -1 27
GlifName: B_aA_U_
Width: 1067
VWidth: 0
Flags: W
AnchorPoint: "Anchor-0" 0 0 basechar 0
LayerCount: 2
Back
Fore
SplineSet
674 230 m 256
 674 295 653 355 610 385 c 257
NamedP: "hr00"
 636 393 653 418 653 445 c 256
 653 468 643 486 628 494 c 257
 838 494 l 258
 880 494 916 479 924 446 c 257
 906 456 880 458 849 458 c 256
 776 458 734 434 734 365 c 256
 734 300 801 280 874 280 c 256
 962 280 1025 323 1025 409 c 256
 1025 497 941 548 848 548 c 258
 254 548 l 257
 254 489 l 257
 513 489 l 258
 533 489 548 480 548 461 c 256
 548 434 535 425 508 425 c 258
 404 425 l 257
 404 378 l 257
 455 378 l 258
 496 378 522 363 533 334 c 256
 540 317 543 278 543 218 c 256
 543 153 533 108 513 83 c 256
 497 63 472 53 438 53 c 256
 383 53 370 83 370 144 c 257
 271 144 l 257
 271 90 253 54 203 54 c 256
 159 54 145 92 145 139 c 256
 145 186 179 216 248 229 c 256
 319 242 355 274 355 326 c 257
 362 401 277 425 194 425 c 256
 82 425 10 398 10 295 c 257
 136 295 l 257
 136 325 l 258
 136 356 160 378 191 378 c 256
 228 378 253 357 253 320 c 256
 253 292 222 273 160 263 c 256
 63 247 14 204 14 133 c 256
 14 42 80 0 176 0 c 256
 247 0 288 15 315 56 c 257
 341 12 380 0 454 0 c 256
 599 0 674 83 674 230 c 256
878 423 m 256
 909 423 926 408 926 378 c 256
 926 340 914 318 878 318 c 256
 845 318 830 334 830 365 c 256
 830 405 840 423 878 423 c 256
EndSplineSet
Validated: 41
Ligature2: "'abvs' Above Base Substitutions in Telugu lookup 16 subtable" Ba AuMatra
EndChar

StartChar: BaE
Encoding: 28 -1 28
GlifName: B_aE_
Width: 740
VWidth: 0
Flags: W
AnchorPoint: "Anchor-1" 0 0 basechar 0
AnchorPoint: "Anchor-0" 0 0 basechar 0
LayerCount: 2
Back
Fore
SplineSet
674 230 m 256
 674 296 652 355 609 386 c 257
NamedP: "hr00"
 644 399 663 427 663 476 c 256
 663 534 612 559 556 571 c 257
 80 571 l 257
 80 514 l 257
 499 514 l 258
 526 514 540 498 540 470 c 256
 540 456 522 441 503 425 c 257
 393 425 l 257
 393 378 l 257
 455 378 l 258
 496 378 522 363 533 334 c 256
 540 317 543 278 543 218 c 256
 543 153 533 108 513 83 c 256
 497 63 472 53 438 53 c 256
 383 53 370 83 370 144 c 257
 271 144 l 257
 271 90 253 54 203 54 c 256
 159 54 145 92 145 139 c 256
 145 186 179 216 248 229 c 256
 319 242 355 274 355 326 c 257
 362 401 277 425 194 425 c 256
 82 425 10 398 10 295 c 257
 136 295 l 257
 136 325 l 258
 136 356 160 378 191 378 c 256
 228 378 253 357 253 320 c 256
 253 292 222 273 160 263 c 256
 63 247 14 204 14 133 c 256
 14 42 80 0 176 0 c 256
 247 0 288 15 315 56 c 257
 341 12 380 0 454 0 c 256
 599 0 674 83 674 230 c 256
EndSplineSet
Validated: 41
PairPos2: "'blwm' Below Base Mark in Telugu lookup 14 subtable" Titvam dx=0 dy=0 dh=18 dv=0 dx=-774 dy=-25 dh=0 dv=0
PairPos2: "'blwm' Below Base Mark in Telugu lookup 0 subtable" tvam dx=0 dy=0 dh=0 dv=0 dx=-830 dy=20 dh=0 dv=0
Ligature2: "'abvs' Above Base Substitutions in Telugu lookup 12 subtable" Ba uni0C46
EndChar

StartChar: BaEE
Encoding: 29 -1 29
GlifName: B_aE_E_
Width: 738
VWidth: 0
Flags: W
AnchorPoint: "Anchor-0" 0 0 basechar 0
LayerCount: 2
Back
Fore
SplineSet
674 230 m 256
 674 298 651 356 607 387 c 257
NamedP: "hr00"
 638 403 663 436 663 476 c 256
 663 535 617 559 563 571 c 257
 548 571 l 258
 531 571 523 590 523 609 c 256
 523 643 542 653 578 653 c 256
 610 653 631 631 631 600 c 257
 723 600 l 257
 723 676 655 696 569 696 c 256
 494 696 425 677 425 610 c 256
 425 594 429 580 436 571 c 257
 81 571 l 257
 81 514 l 257
 499 514 l 258
 526 514 540 498 540 470 c 256
 540 444 520 425 496 425 c 258
 393 425 l 257
 393 378 l 257
 455 378 l 258
 496 378 522 363 533 334 c 256
 540 317 543 278 543 218 c 256
 543 153 533 108 513 83 c 256
 497 63 472 53 438 53 c 256
 383 53 370 83 370 144 c 257
 271 144 l 257
 271 90 253 54 203 54 c 256
 159 54 145 92 145 139 c 256
 145 186 179 216 248 229 c 256
 319 242 355 274 355 326 c 257
 362 401 277 425 194 425 c 256
 82 425 10 398 10 295 c 257
 136 295 l 257
 136 325 l 258
 136 356 160 378 191 378 c 256
 228 378 253 357 253 320 c 256
 253 292 222 273 160 263 c 256
 63 247 14 204 14 133 c 256
 14 42 80 0 176 0 c 256
 247 0 288 15 315 56 c 257
 341 12 380 0 454 0 c 256
 599 0 674 83 674 230 c 256
EndSplineSet
Validated: 41
Ligature2: "'abvs' Above Base Substitutions in Telugu lookup 13 subtable" Ba EEMatra
EndChar

StartChar: BaHalanth
Encoding: 30 -1 30
GlifName: B_aH_alanth
Width: 737
VWidth: 0
Flags: W
AnchorPoint: "Anchor-0" 0 0 basechar 0
LayerCount: 2
Back
Fore
SplineSet
454 0 m 256
 599 0 674 83 674 230 c 256
 674 333 623 398 536 419 c 257
 488 426 l 257
NamedP: "hr00"
 468 426 446 438 446 458 c 256
 446 475 468 484 486 484 c 258
 549 484 l 257
 549 536 l 257
 483 536 l 258
 465 536 446 548 446 565 c 256
 446 586 470 598 492 598 c 258
 690 598 l 257
 690 655 l 257
 409 655 l 258
 361 655 317 619 317 573 c 256
 317 542 337 516 359 504 c 257
 332 502 313 475 313 446 c 256
 313 407 351 378 391 378 c 258
 455 378 l 258
 496 378 522 363 533 334 c 256
 540 317 543 278 543 218 c 256
 543 153 533 108 513 83 c 256
 497 63 472 53 438 53 c 256
 383 53 370 83 370 144 c 257
 271 144 l 257
 271 90 253 54 203 54 c 256
 159 54 145 92 145 139 c 256
 145 186 179 216 248 229 c 256
 319 242 355 274 355 326 c 257
 362 401 277 425 194 425 c 256
 82 425 10 398 10 295 c 257
 136 295 l 257
 136 325 l 258
 136 356 160 378 191 378 c 256
 228 378 253 357 253 320 c 256
 253 292 222 273 160 263 c 256
 63 247 14 204 14 133 c 256
 14 42 80 0 176 0 c 256
 247 0 288 15 315 56 c 257
 341 12 380 0 454 0 c 256
EndSplineSet
Validated: 41
Ligature2: "'haln' Halant Forms in Telugu lookup 19 subtable" Ba Halanth
EndChar

StartChar: BaI
Encoding: 31 -1 31
GlifName: B_aI_
Width: 745
VWidth: 0
Flags: W
AnchorPoint: "Anchor-0" 0 0 basechar 0
LayerCount: 2
Back
Fore
SplineSet
441 281 m 256
 477 281 521 299 538 316 c 257
NamedP: "hr00"
 543 298 545 265 545 218 c 256
 545 117 527 53 438 53 c 256
 383 53 370 83 370 144 c 257
 271 144 l 257
 271 90 253 54 203 54 c 256
 159 54 145 92 145 139 c 256
 145 186 179 217 246 229 c 256
 303 240 337 258 348 285 c 257
 325 292 299 344 299 374 c 256
 299 387 301 397 304 404 c 257
 277 418 240 425 194 425 c 256
 82 425 10 398 10 295 c 257
 136 295 l 257
 136 325 l 258
 136 355 161 376 191 376 c 256
 229 376 253 357 253 320 c 256
 253 292 222 273 160 263 c 256
 63 247 14 204 14 133 c 256
 14 42 80 0 176 0 c 256
 247 0 288 15 315 56 c 257
 341 12 380 0 454 0 c 256
 600 0 676 83 676 230 c 256
 676 377 613 485 474 485 c 256
 391 485 321 452 321 375 c 256
 321 311 373 281 441 281 c 256
466 438 m 256
 498 438 519 420 519 389 c 256
 519 350 503 329 466 329 c 256
 434 329 419 349 419 381 c 256
 419 415 433 438 466 438 c 256
EndSplineSet
Validated: 9
Ligature2: "'abvs' Above Base Substitutions in Telugu lookup 10 subtable" Ba Imatra
EndChar

StartChar: BaII
Encoding: 32 -1 32
GlifName: B_aI_I_
Width: 745
VWidth: 0
Flags: W
AnchorPoint: "Anchor-0" 0 0 basechar 0
LayerCount: 2
Back
Fore
SplineSet
466 438 m 256
 498 438 519 420 519 389 c 256
NamedP: "hr00"
 519 350 503 329 466 329 c 256
 434 329 419 349 419 381 c 256
 419 415 433 438 466 438 c 256
374 533 m 256
 374 504 383 486 403 476 c 257
 356 463 321 431 321 375 c 256
 321 311 373 281 441 281 c 256
 477 281 521 299 538 316 c 257
 543 298 545 265 545 218 c 256
 545 117 527 53 438 53 c 256
 383 53 370 83 370 144 c 257
 271 144 l 257
 271 90 253 54 203 54 c 256
 159 54 145 92 145 139 c 256
 145 186 179 217 246 229 c 256
 303 240 337 258 348 285 c 257
 325 292 299 344 299 374 c 256
 299 387 301 397 304 404 c 257
 277 418 240 425 194 425 c 256
 82 425 10 398 10 295 c 257
 136 295 l 257
 136 325 l 258
 136 355 161 376 191 376 c 256
 229 376 253 357 253 320 c 256
 253 292 222 273 160 263 c 256
 63 247 14 204 14 133 c 256
 14 42 80 0 176 0 c 256
 247 0 288 15 315 56 c 257
 341 12 380 0 454 0 c 256
 600 0 676 83 676 230 c 256
 676 368 621 467 504 483 c 257
 482 490 471 505 471 531 c 256
 471 565 490 575 526 575 c 256
 559 575 580 555 580 523 c 257
 671 523 l 257
 671 529 l 258
 671 602 602 619 518 619 c 256
 444 619 374 599 374 533 c 256
EndSplineSet
Validated: 9
Ligature2: "'abvs' Above Base Substitutions in Telugu lookup 11 subtable" Ba IIMatra
EndChar

StartChar: BaO
Encoding: 33 -1 33
GlifName: B_aO_
Width: 1081
VWidth: 0
Flags: W
AnchorPoint: "Anchor-0" 0 0 basechar 0
LayerCount: 2
Back
Fore
SplineSet
674 230 m 256
 674 355 600 425 474 425 c 258
 458 425 l 258
NamedP: "hr00"
 428 425 408 435 408 464 c 256
 408 516 457 521 518 521 c 256
 558 521 606 499 606 463 c 257
 673 463 l 257
 673 484 688 499 718 511 c 256
 748 523 788 530 838 530 c 256
 890 530 927 506 933 459 c 257
 914 470 896 474 866 474 c 256
 783 474 734 437 734 358 c 256
 734 285 802 250 881 250 c 256
 980 250 1036 312 1036 413 c 256
 1036 533 960 585 836 585 c 256
 757 585 681 568 646 529 c 257
 628 569 561 581 496 581 c 256
 433 581 383 572 348 553 c 256
 313 534 295 507 295 473 c 256
 295 405 330 378 401 378 c 258
 455 378 l 258
 496 378 522 363 533 334 c 256
 540 317 543 278 543 218 c 256
 543 153 533 108 513 83 c 256
 497 63 472 53 438 53 c 256
 383 53 370 83 370 144 c 257
 271 144 l 257
 271 90 253 54 203 54 c 256
 159 54 145 92 145 139 c 256
 145 186 179 216 248 229 c 256
 319 242 355 274 355 326 c 257
 362 401 277 425 194 425 c 256
 82 425 10 398 10 295 c 257
 136 295 l 257
 136 325 l 258
 136 356 160 378 191 378 c 256
 228 378 253 357 253 320 c 256
 253 292 222 273 160 263 c 256
 63 247 14 204 14 133 c 256
 14 42 80 0 176 0 c 256
 247 0 288 15 315 56 c 257
 341 12 380 0 454 0 c 256
 599 0 674 83 674 230 c 256
885 430 m 256
 917 430 935 409 935 378 c 256
 935 338 922 298 885 298 c 256
 851 298 836 323 836 358 c 256
 836 398 849 430 885 430 c 256
EndSplineSet
Validated: 41
Ligature2: "'abvs' Above Base Substitutions in Telugu lookup 14 subtable" Ba OMatra
EndChar

StartChar: BaOO
Encoding: 34 -1 34
GlifName: B_aO_O_
Width: 1088
VWidth: 0
Flags: W
AnchorPoint: "Anchor-0" 0 0 basechar 0
LayerCount: 2
Back
Fore
SplineSet
674 230 m 256
 674 355 600 425 474 425 c 258
 458 425 l 258
NamedP: "hr00"
 428 425 408 435 408 464 c 256
 408 516 457 521 518 521 c 256
 558 521 606 499 606 463 c 257
 673 463 l 257
 673 484 688 499 718 511 c 256
 748 523 788 530 838 530 c 256
 890 530 927 506 933 459 c 257
 914 470 896 474 866 474 c 256
 783 474 734 437 734 358 c 256
 734 285 802 250 881 250 c 256
 980 250 1036 312 1036 413 c 256
 1036 505 962 578 874 584 c 257
 864 603 l 258
 860 610 860 615 860 620 c 256
 860 654 878 664 915 664 c 256
 948 664 969 643 969 611 c 257
 1060 611 l 257
 1060 686 991 708 906 708 c 256
 829 708 763 689 763 621 c 256
 763 605 767 589 775 580 c 257
 723 571 670 558 646 529 c 257
 628 569 561 581 496 581 c 256
 433 581 383 572 348 553 c 256
 313 534 295 507 295 473 c 256
 295 405 330 378 401 378 c 258
 455 378 l 258
 496 378 522 363 533 334 c 256
 540 317 543 278 543 218 c 256
 543 153 533 108 513 83 c 256
 497 63 472 53 438 53 c 256
 383 53 370 83 370 144 c 257
 271 144 l 257
 271 90 253 54 203 54 c 256
 159 54 145 92 145 139 c 256
 145 186 179 216 248 229 c 256
 319 242 355 274 355 326 c 257
 362 401 277 425 194 425 c 256
 82 425 10 398 10 295 c 257
 136 295 l 257
 136 325 l 258
 136 356 160 378 191 378 c 256
 228 378 253 357 253 320 c 256
 253 292 222 273 160 263 c 256
 63 247 14 204 14 133 c 256
 14 42 80 0 176 0 c 256
 247 0 288 15 315 56 c 257
 341 12 380 0 454 0 c 256
 599 0 674 83 674 230 c 256
885 430 m 256
 917 430 935 409 935 378 c 256
 935 338 922 298 885 298 c 256
 851 298 836 323 836 358 c 256
 836 398 849 430 885 430 c 256
EndSplineSet
Validated: 41
Ligature2: "'abvs' Above Base Substitutions in Telugu lookup 15 subtable" Ba OOMatra
EndChar

StartChar: BaOttu
Encoding: 35 -1 35
GlifName: B_aO_ttu
Width: 238
VWidth: 0
Flags: W
LayerCount: 2
Back
Fore
SplineSet
42 -50 m 258
 122 -50 135 -117 135 -209 c 256
NamedP: "hr00"
 135 -277 123 -322 63 -322 c 256
 26 -322 17 -300 17 -260 c 257
 -51 -260 l 257
 -51 -298 -64 -322 -99 -322 c 256
 -129 -322 -145 -296 -145 -263 c 256
 -145 -231 -120 -211 -71 -202 c 256
 -19 -193 7 -171 7 -135 c 256
 7 -84 -46 -66 -104 -66 c 256
 -180 -66 -231 -86 -231 -156 c 257
 -144 -156 l 257
 -144 -135 l 258
 -144 -115 -126 -101 -106 -101 c 256
 -80 -101 -65 -114 -65 -139 c 256
 -65 -159 -86 -171 -128 -178 c 256
 -195 -188 -228 -219 -228 -268 c 256
 -228 -331 -182 -358 -116 -358 c 256
 -68 -358 -40 -348 -21 -320 c 257
 -3 -350 23 -358 74 -358 c 256
 172 -358 223 -300 223 -201 c 256
 223 -79 181 -7 65 -7 c 258
 20 -7 l 257
 20 -50 l 257
 42 -50 l 258
EndSplineSet
Validated: 9
Ligature2: "'blwf' Below Base Forms in Telugu lookup 2 subtable" Ba Halanth
EndChar

StartChar: BaU
Encoding: 36 -1 36
GlifName: B_aU_
Width: 1062
VWidth: 0
Flags: W
AnchorPoint: "Anchor-3" 0 0 basechar 0
AnchorPoint: "Anchor-0" 0 0 basechar 0
LayerCount: 2
Back
Fore
SplineSet
315 56 m 257
 341 12 380 0 454 0 c 256
 522 0 578 15 614 55 c 258
 630 73 l 257
NamedP: "hr00"
 657 27 722 -1 791 -1 c 256
 920 -1 1000 90 1000 220 c 256
 1000 341 924 425 803 425 c 258
 760 425 l 257
 760 376 l 257
 836 376 869 298 869 215 c 256
 869 133 843 49 771 49 c 256
 723 49 676 81 656 119 c 257
 668 150 674 187 674 230 c 256
 674 353 582 433 459 433 c 256
 439 433 420 432 403 429 c 257
 403 376 l 257
 410 377 419 378 430 378 c 256
 516 378 543 313 543 218 c 256
 543 153 533 108 513 83 c 256
 497 63 472 53 438 53 c 256
 383 53 370 83 370 144 c 257
 271 144 l 257
 271 90 253 54 203 54 c 256
 159 54 145 92 145 139 c 256
 145 186 179 216 248 229 c 256
 319 242 355 274 355 326 c 257
 362 401 277 425 194 425 c 256
 82 425 10 398 10 295 c 257
 136 295 l 257
 136 325 l 258
 136 355 161 376 191 376 c 256
 229 376 253 357 253 320 c 256
 253 292 222 273 160 263 c 256
 63 247 14 204 14 133 c 256
 14 42 80 0 176 0 c 256
 247 0 288 15 315 56 c 257
EndSplineSet
Validated: 41
Ligature2: "'psts' Post Base Substitutions in Telugu lookup 17 subtable" Ba UMatra
EndChar

StartChar: BaUU
Encoding: 37 -1 37
GlifName: B_aU_U_
Width: 1420
VWidth: 0
Flags: W
AnchorPoint: "Anchor-3" 0 0 basechar 0
AnchorPoint: "Anchor-0" 0 0 basechar 0
LayerCount: 2
Back
Fore
SplineSet
454 0 m 256
 531 0 596 25 631 74 c 257
NamedP: "hr00"
 656 27 724 -1 793 -1 c 256
 924 -1 1006 89 1006 220 c 256
 1006 283 988 334 959 369 c 257
 1159 369 l 258
 1199 369 1226 364 1240 355 c 256
 1250 349 1257 337 1260 319 c 257
 1244 331 1214 333 1181 333 c 256
 1112 333 1063 286 1063 216 c 256
 1063 145 1133 109 1209 109 c 256
 1308 109 1364 172 1364 271 c 256
 1364 373 1292 425 1186 425 c 258
 759 425 l 257
 759 376 l 257
 793 376 819 366 838 346 c 256
 863 321 875 277 875 215 c 256
 875 126 853 49 773 49 c 256
 722 49 679 83 656 120 c 257
 668 151 674 188 674 230 c 256
 674 353 582 433 459 433 c 256
 439 433 420 432 403 429 c 257
 403 376 l 257
 410 377 419 378 430 378 c 256
 516 378 543 313 543 218 c 256
 543 153 533 108 513 83 c 256
 497 63 472 53 438 53 c 256
 383 53 370 83 370 144 c 257
 271 144 l 257
 271 90 253 54 203 54 c 256
 159 54 145 92 145 139 c 256
 145 186 179 216 248 229 c 256
 319 242 355 274 355 326 c 257
 362 401 277 425 194 425 c 256
 82 425 10 398 10 295 c 257
 136 295 l 257
 136 325 l 258
 136 355 161 376 191 376 c 256
 229 376 253 357 253 320 c 256
 253 292 222 273 160 263 c 256
 63 247 14 204 14 133 c 256
 14 42 80 0 176 0 c 256
 247 0 288 15 315 56 c 257
 341 12 380 0 454 0 c 256
1213 289 m 256
 1247 289 1263 264 1263 228 c 256
 1263 185 1252 156 1213 156 c 256
 1179 156 1164 179 1164 216 c 256
 1164 263 1171 289 1213 289 c 256
EndSplineSet
Validated: 41
Ligature2: "'psts' Post Base Substitutions in Telugu lookup 17 subtable" Ba UUMatra
EndChar

StartChar: Bha
Encoding: 38 3117 38
GlifName: B_ha
Width: 736
VWidth: 0
Flags: W
AnchorPoint: "Anchor-0" 0 0 basechar 0
LayerCount: 2
Back
Fore
SplineSet
674 230 m 256
 674 317 630 383 563 409 c 257
NamedP: "hr00"
 576 415 590 422 604 431 c 256
 653 461 701 503 750 557 c 257
 636 590 l 257
 612 550 581 513 543 480 c 256
 503 444 470 426 445 426 c 256
 408 426 388 473 388 512 c 257
 288 512 l 257
 288 465 304 429 337 406 c 256
 359 391 386 385 418 380 c 256
 421 379 425 378 430 378 c 258
 449 378 l 258
 490 378 516 363 529 334 c 256
 538 314 543 275 543 218 c 256
 543 153 533 108 513 83 c 256
 497 63 472 53 438 53 c 256
 383 53 370 83 370 144 c 257
 271 144 l 257
 271 90 253 54 203 54 c 256
 159 54 145 92 145 139 c 256
 145 186 179 216 248 229 c 256
 319 242 355 274 355 326 c 257
 362 401 277 425 194 425 c 256
 82 425 10 398 10 295 c 257
 136 295 l 257
 136 325 l 258
 136 356 160 378 191 378 c 256
 228 378 253 357 253 320 c 256
 253 292 222 273 160 263 c 256
 63 247 14 204 14 133 c 256
 14 42 80 0 176 0 c 256
 247 0 288 15 315 56 c 257
 341 12 380 0 454 0 c 256
 599 0 674 83 674 230 c 256
318 -147 m 256
 364 -147 381 -121 390 -79 c 257
 390 -31 368 -9 320 -9 c 256
 278 -9 259 -41 259 -84 c 256
 259 -126 276 -147 318 -147 c 256
EndSplineSet
Validated: 41
EndChar

StartChar: BhaAA
Encoding: 39 -1 39
GlifName: B_haA_A_
Width: 1095
VWidth: 0
Flags: W
AnchorPoint: "Anchor-0" 0 0 basechar 0
LayerCount: 2
Back
Fore
SplineSet
454 0 m 256
 599 0 674 83 674 230 c 256
 674 287 660 336 624 368 c 258
 613 378 l 257
 834 378 l 258
NamedP: "hr00"
 891 378 918 359 935 325 c 257
 917 337 897 340 866 340 c 256
 785 340 733 302 733 223 c 256
 733 147 803 115 884 115 c 256
 983 115 1039 178 1039 278 c 256
 1039 379 966 426 861 426 c 258
 404 426 l 257
 404 378 l 257
 449 378 l 258
 490 378 516 363 529 334 c 256
 538 314 543 275 543 218 c 256
 543 153 533 108 513 83 c 256
 497 63 472 53 438 53 c 256
 383 53 370 83 370 144 c 257
 271 144 l 257
 271 90 253 54 203 54 c 256
 159 54 145 92 145 139 c 256
 145 186 179 216 248 229 c 256
 319 242 355 274 355 326 c 257
 362 401 277 425 194 425 c 256
 82 425 10 398 10 295 c 257
 136 295 l 257
 136 325 l 258
 136 356 160 378 191 378 c 256
 228 378 253 357 253 320 c 256
 253 292 222 273 160 263 c 256
 63 247 14 204 14 133 c 256
 14 42 80 0 176 0 c 256
 247 0 288 15 315 56 c 257
 341 12 380 0 454 0 c 256
318 -147 m 256
 364 -147 381 -121 390 -79 c 257
 390 -31 368 -9 320 -9 c 256
 278 -9 259 -41 259 -84 c 256
 259 -126 276 -147 318 -147 c 256
888 295 m 256
 923 295 938 270 938 234 c 256
 938 191 927 163 888 163 c 256
 851 163 833 185 833 223 c 256
 833 268 847 295 888 295 c 256
EndSplineSet
Validated: 41
Ligature2: "'abvs' Above Base Substitutions in Telugu lookup 9 subtable" Bha AAMatra
EndChar

StartChar: BhaAU
Encoding: 40 -1 40
GlifName: B_haA_U_
Width: 1066
VWidth: 0
Flags: W
AnchorPoint: "Anchor-0" 0 0 basechar 0
LayerCount: 2
Back
Fore
SplineSet
674 230 m 256
 674 295 650 353 606 384 c 257
NamedP: "hr00"
 613 387 620 390 626 394 c 256
 643 407 651 424 651 445 c 256
 651 469 643 487 626 494 c 257
 836 494 l 258
 879 494 915 479 923 446 c 257
 906 456 879 458 848 458 c 256
 775 458 733 434 733 365 c 256
 733 300 800 280 873 280 c 256
 960 280 1024 324 1024 409 c 256
 1024 498 940 548 846 548 c 258
 253 548 l 257
 253 489 l 257
 511 489 l 258
 532 489 546 481 546 461 c 256
 546 433 535 425 506 425 c 258
 403 425 l 257
 403 378 l 257
 449 378 l 258
 490 378 516 363 529 334 c 256
 538 314 543 275 543 218 c 256
 543 153 533 108 513 83 c 256
 497 63 472 53 438 53 c 256
 383 53 370 83 370 144 c 257
 271 144 l 257
 271 90 253 54 203 54 c 256
 159 54 145 92 145 139 c 256
 145 186 179 216 248 229 c 256
 319 242 355 274 355 326 c 257
 362 401 277 425 194 425 c 256
 82 425 10 398 10 295 c 257
 136 295 l 257
 136 325 l 258
 136 356 160 378 191 378 c 256
 228 378 253 357 253 320 c 256
 253 292 222 273 160 263 c 256
 63 247 14 204 14 133 c 256
 14 42 80 0 176 0 c 256
 247 0 288 15 315 56 c 257
 341 12 380 0 454 0 c 256
 599 0 674 83 674 230 c 256
318 -147 m 256
 364 -147 381 -121 390 -79 c 257
 390 -31 368 -9 320 -9 c 256
 278 -9 259 -41 259 -84 c 256
 259 -126 276 -147 318 -147 c 256
876 423 m 256
 908 423 925 409 925 378 c 256
 925 340 912 318 876 318 c 256
 843 318 829 334 829 365 c 256
 829 404 839 423 876 423 c 256
EndSplineSet
Validated: 41
Ligature2: "'abvs' Above Base Substitutions in Telugu lookup 16 subtable" Bha AuMatra
EndChar

StartChar: BhaE
Encoding: 41 -1 41
GlifName: B_haE_
Width: 738
VWidth: 0
Flags: W
AnchorPoint: "Anchor-1" 0 0 basechar 0
AnchorPoint: "Anchor-0" 0 0 basechar 0
LayerCount: 2
Back
Fore
SplineSet
674 230 m 256
 674 296 649 354 605 385 c 257
NamedP: "hr00"
 642 396 661 426 661 476 c 256
 661 535 611 559 555 571 c 257
 79 571 l 257
 79 514 l 257
 498 514 l 258
 524 514 539 497 539 470 c 256
 539 457 528 443 506 429 c 257
 501 425 l 257
 391 425 l 257
 391 378 l 257
 449 378 l 258
 490 378 516 363 529 334 c 256
 538 314 543 275 543 218 c 256
 543 153 533 108 513 83 c 256
 497 63 472 53 438 53 c 256
 383 53 370 83 370 144 c 257
 271 144 l 257
 271 90 253 54 203 54 c 256
 159 54 145 92 145 139 c 256
 145 186 179 216 248 229 c 256
 319 242 355 274 355 326 c 257
 362 401 277 425 194 425 c 256
 82 425 10 398 10 295 c 257
 136 295 l 257
 136 325 l 258
 136 356 160 378 191 378 c 256
 228 378 253 357 253 320 c 256
 253 292 222 273 160 263 c 256
 63 247 14 204 14 133 c 256
 14 42 80 0 176 0 c 256
 247 0 288 15 315 56 c 257
 341 12 380 0 454 0 c 256
 599 0 674 83 674 230 c 256
318 -147 m 256
 364 -147 381 -121 390 -79 c 257
 390 -31 368 -9 320 -9 c 256
 278 -9 259 -41 259 -84 c 256
 259 -126 276 -147 318 -147 c 256
EndSplineSet
Validated: 41
PairPos2: "'blwm' Below Base Mark in Telugu lookup 14 subtable" Titvam dx=0 dy=0 dh=18 dv=0 dx=-774 dy=-25 dh=0 dv=0
PairPos2: "'blwm' Below Base Mark in Telugu lookup 0 subtable" tvam dx=0 dy=0 dh=0 dv=0 dx=-830 dy=20 dh=0 dv=0
Ligature2: "'abvs' Above Base Substitutions in Telugu lookup 12 subtable" Bha uni0C46
EndChar

StartChar: BhaEE
Encoding: 42 -1 42
GlifName: B_haE_E_
Width: 738
VWidth: 0
Flags: W
AnchorPoint: "Anchor-0" 0 0 basechar 0
LayerCount: 2
Back
Fore
SplineSet
674 230 m 256
 674 297 648 354 604 386 c 257
NamedP: "hr00"
 637 401 661 435 661 476 c 256
 661 536 617 559 561 571 c 257
 546 571 l 258
 530 571 521 591 521 609 c 256
 521 643 540 653 576 653 c 256
 609 653 630 632 630 600 c 257
 721 600 l 257
 721 675 653 696 568 696 c 256
 493 696 424 677 424 610 c 256
 424 593 427 581 435 571 c 257
 80 571 l 257
 80 514 l 257
 498 514 l 258
 524 514 539 497 539 470 c 256
 539 446 518 425 495 425 c 258
 391 425 l 257
 391 378 l 257
 449 378 l 258
 490 378 516 363 529 334 c 256
 538 314 543 275 543 218 c 256
 543 153 533 108 513 83 c 256
 497 63 472 53 438 53 c 256
 383 53 370 83 370 144 c 257
 271 144 l 257
 271 90 253 54 203 54 c 256
 159 54 145 92 145 139 c 256
 145 186 179 216 248 229 c 256
 319 242 355 274 355 326 c 257
 362 401 277 425 194 425 c 256
 82 425 10 398 10 295 c 257
 136 295 l 257
 136 325 l 258
 136 356 160 378 191 378 c 256
 228 378 253 357 253 320 c 256
 253 292 222 273 160 263 c 256
 63 247 14 204 14 133 c 256
 14 42 80 0 176 0 c 256
 247 0 288 15 315 56 c 257
 341 12 380 0 454 0 c 256
 599 0 674 83 674 230 c 256
318 -147 m 256
 364 -147 381 -121 390 -79 c 257
 390 -31 368 -9 320 -9 c 256
 278 -9 259 -41 259 -84 c 256
 259 -126 276 -147 318 -147 c 256
EndSplineSet
Validated: 41
Ligature2: "'abvs' Above Base Substitutions in Telugu lookup 13 subtable" Bha EEMatra
EndChar

StartChar: BhaHalanth
Encoding: 43 -1 43
GlifName: B_haH_alanth
Width: 736
VWidth: 0
Flags: W
AnchorPoint: "Anchor-0" 0 0 basechar 0
LayerCount: 2
Back
Fore
SplineSet
454 0 m 256
 599 0 674 83 674 230 c 256
 674 326 620 401 536 417 c 258
 488 426 l 257
NamedP: "hr00"
 468 426 446 438 446 458 c 256
 446 475 468 484 486 484 c 258
 549 484 l 257
 549 536 l 257
 483 536 l 258
 465 536 446 548 446 565 c 256
 446 586 470 598 492 598 c 258
 690 598 l 257
 690 655 l 257
 409 655 l 258
 361 655 317 619 317 573 c 256
 317 542 337 516 359 504 c 257
 332 502 313 475 313 446 c 256
 313 407 351 378 391 378 c 258
 449 378 l 258
 490 378 516 363 529 334 c 256
 538 314 543 275 543 218 c 256
 543 153 533 108 513 83 c 256
 497 63 472 53 438 53 c 256
 383 53 370 83 370 144 c 257
 271 144 l 257
 271 90 253 54 203 54 c 256
 159 54 145 92 145 139 c 256
 145 186 179 216 248 229 c 256
 319 242 355 274 355 326 c 257
 362 401 277 425 194 425 c 256
 82 425 10 398 10 295 c 257
 136 295 l 257
 136 325 l 258
 136 356 160 378 191 378 c 256
 228 378 253 357 253 320 c 256
 253 292 222 273 160 263 c 256
 63 247 14 204 14 133 c 256
 14 42 80 0 176 0 c 256
 247 0 288 15 315 56 c 257
 341 12 380 0 454 0 c 256
318 -147 m 256
 364 -147 381 -121 390 -79 c 257
 390 -31 368 -9 320 -9 c 256
 278 -9 259 -41 259 -84 c 256
 259 -126 276 -147 318 -147 c 256
EndSplineSet
Validated: 41
Ligature2: "'haln' Halant Forms in Telugu lookup 19 subtable" Bha Halanth
EndChar

StartChar: BhaI
Encoding: 44 -1 44
GlifName: B_haI_
Width: 745
VWidth: 0
Flags: W
AnchorPoint: "Anchor-0" 0 0 basechar 0
LayerCount: 2
Back
Fore
SplineSet
441 281 m 256
 477 281 521 299 538 316 c 257
NamedP: "hr00"
 543 298 545 265 545 218 c 256
 545 117 527 53 438 53 c 256
 383 53 370 83 370 144 c 257
 271 144 l 257
 271 90 253 54 203 54 c 256
 159 54 145 92 145 139 c 256
 145 186 179 217 246 229 c 256
 303 240 337 258 348 285 c 257
 325 292 299 344 299 374 c 256
 299 387 301 397 304 404 c 257
 277 418 240 425 194 425 c 256
 82 425 10 398 10 295 c 257
 136 295 l 257
 136 325 l 258
 136 355 161 376 191 376 c 256
 229 376 253 357 253 320 c 256
 253 292 222 273 160 263 c 256
 63 247 14 204 14 133 c 256
 14 42 80 0 176 0 c 256
 247 0 288 15 315 56 c 257
 341 12 380 0 454 0 c 256
 600 0 676 83 676 230 c 256
 676 377 613 485 474 485 c 256
 391 485 321 452 321 375 c 256
 321 311 373 281 441 281 c 256
318 -147 m 256
 364 -147 381 -121 390 -79 c 257
 390 -31 368 -9 320 -9 c 256
 278 -9 259 -41 259 -84 c 256
 259 -126 276 -147 318 -147 c 256
466 438 m 256
 498 438 519 420 519 389 c 256
 519 350 503 329 466 329 c 256
 434 329 419 349 419 381 c 256
 419 415 433 438 466 438 c 256
EndSplineSet
Validated: 9
Ligature2: "'abvs' Above Base Substitutions in Telugu lookup 10 subtable" Bha Imatra
EndChar

StartChar: BhaII
Encoding: 45 -1 45
GlifName: B_haI_I_
Width: 745
VWidth: 0
Flags: W
AnchorPoint: "Anchor-0" 0 0 basechar 0
LayerCount: 2
Back
Fore
SplineSet
318 -147 m 256
 364 -147 381 -121 390 -79 c 257
 390 -31 368 -9 320 -9 c 256
 278 -9 259 -41 259 -84 c 256
 259 -126 276 -147 318 -147 c 256
374 533 m 256
 374 504 383 486 403 476 c 257
 356 463 321 431 321 375 c 256
 321 311 373 281 441 281 c 256
 477 281 521 299 538 316 c 257
 543 298 545 265 545 218 c 256
 545 117 527 53 438 53 c 256
 383 53 370 83 370 144 c 257
 271 144 l 257
 271 90 253 54 203 54 c 256
 159 54 145 92 145 139 c 256
 145 186 179 217 246 229 c 256
 303 240 337 258 348 285 c 257
 325 292 299 344 299 374 c 256
 299 387 301 397 304 404 c 257
 277 418 240 425 194 425 c 256
 82 425 10 398 10 295 c 257
 136 295 l 257
 136 325 l 258
 136 355 161 376 191 376 c 256
 229 376 253 357 253 320 c 256
 253 292 222 273 160 263 c 256
 63 247 14 204 14 133 c 256
 14 42 80 0 176 0 c 256
 247 0 288 15 315 56 c 257
 341 12 380 0 454 0 c 256
 600 0 676 83 676 230 c 256
 676 368 621 467 504 483 c 257
 482 490 471 505 471 531 c 256
 471 565 490 575 526 575 c 256
 559 575 580 555 580 523 c 257
 671 523 l 257
 671 529 l 258
 671 602 602 619 518 619 c 256
 444 619 374 599 374 533 c 256
466 438 m 256
 498 438 519 420 519 389 c 256
 519 350 503 329 466 329 c 256
 434 329 419 349 419 381 c 256
 419 415 433 438 466 438 c 256
EndSplineSet
Validated: 9
Ligature2: "'abvs' Above Base Substitutions in Telugu lookup 11 subtable" Bha IIMatra
EndChar

StartChar: BhaO
Encoding: 46 -1 46
GlifName: B_haO_
Width: 1080
VWidth: 0
Flags: W
AnchorPoint: "Anchor-0" 0 0 basechar 0
LayerCount: 2
Back
Fore
SplineSet
674 230 m 256
 674 353 592 425 468 425 c 258
 456 425 l 258
NamedP: "hr00"
 426 425 406 436 406 464 c 256
 406 516 456 521 516 521 c 256
 557 521 605 499 605 463 c 257
 671 463 l 257
 671 484 686 499 716 511 c 256
 746 523 786 530 836 530 c 256
 888 530 927 506 931 459 c 257
 914 470 895 474 865 474 c 256
 782 474 733 439 733 358 c 256
 733 285 801 250 880 250 c 256
 979 250 1035 312 1035 413 c 256
 1035 533 959 585 835 585 c 256
 756 585 680 568 645 529 c 257
 627 569 560 581 495 581 c 256
 397 581 294 559 294 473 c 256
 294 405 329 378 400 378 c 258
 449 378 l 258
 490 378 516 363 529 334 c 256
 538 314 543 275 543 218 c 256
 543 153 533 108 513 83 c 256
 497 63 472 53 438 53 c 256
 383 53 370 83 370 144 c 257
 271 144 l 257
 271 90 253 54 203 54 c 256
 159 54 145 92 145 139 c 256
 145 186 179 216 248 229 c 256
 319 242 355 274 355 326 c 257
 362 401 277 425 194 425 c 256
 82 425 10 398 10 295 c 257
 136 295 l 257
 136 325 l 258
 136 356 160 378 191 378 c 256
 228 378 253 357 253 320 c 256
 253 292 222 273 160 263 c 256
 63 247 14 204 14 133 c 256
 14 42 80 0 176 0 c 256
 247 0 288 15 315 56 c 257
 341 12 380 0 454 0 c 256
 599 0 674 83 674 230 c 256
318 -147 m 256
 364 -147 381 -121 390 -79 c 257
 390 -31 368 -9 320 -9 c 256
 278 -9 259 -41 259 -84 c 256
 259 -126 276 -147 318 -147 c 256
884 430 m 256
 916 430 934 409 934 378 c 256
 934 338 921 298 884 298 c 256
 850 298 835 323 835 358 c 256
 835 398 848 430 884 430 c 256
EndSplineSet
Validated: 41
Ligature2: "'abvs' Above Base Substitutions in Telugu lookup 14 subtable" Bha OMatra
EndChar

StartChar: BhaOO
Encoding: 47 -1 47
GlifName: B_haO_O_
Width: 1087
VWidth: 0
Flags: W
AnchorPoint: "Anchor-0" 0 0 basechar 0
LayerCount: 2
Back
Fore
SplineSet
674 230 m 256
 674 353 592 425 468 425 c 258
 456 425 l 258
NamedP: "hr00"
 426 425 406 436 406 464 c 256
 406 516 456 521 516 521 c 256
 557 521 605 499 605 463 c 257
 671 463 l 257
 671 484 686 499 716 511 c 256
 746 523 786 530 836 530 c 256
 888 530 927 506 931 459 c 257
 914 470 895 474 865 474 c 256
 782 474 733 439 733 358 c 256
 733 285 801 250 880 250 c 256
 979 250 1035 312 1035 413 c 256
 1035 505 960 578 873 584 c 257
 866 594 859 607 859 620 c 256
 859 655 877 664 914 664 c 256
 947 664 968 643 968 611 c 257
 1059 611 l 257
 1059 686 990 708 905 708 c 256
 828 708 761 689 761 621 c 256
 761 606 767 589 774 580 c 257
 722 570 670 560 645 529 c 257
 627 569 560 581 495 581 c 256
 397 581 294 559 294 473 c 256
 294 405 329 378 400 378 c 258
 449 378 l 258
 490 378 516 363 529 334 c 256
 538 314 543 275 543 218 c 256
 543 153 533 108 513 83 c 256
 497 63 472 53 438 53 c 256
 383 53 370 83 370 144 c 257
 271 144 l 257
 271 90 253 54 203 54 c 256
 159 54 145 92 145 139 c 256
 145 186 179 216 248 229 c 256
 319 242 355 274 355 326 c 257
 362 401 277 425 194 425 c 256
 82 425 10 398 10 295 c 257
 136 295 l 257
 136 325 l 258
 136 356 160 378 191 378 c 256
 228 378 253 357 253 320 c 256
 253 292 222 273 160 263 c 256
 63 247 14 204 14 133 c 256
 14 42 80 0 176 0 c 256
 247 0 288 15 315 56 c 257
 341 12 380 0 454 0 c 256
 599 0 674 83 674 230 c 256
318 -147 m 256
 364 -147 381 -121 390 -79 c 257
 390 -31 368 -9 320 -9 c 256
 278 -9 259 -41 259 -84 c 256
 259 -126 276 -147 318 -147 c 256
884 430 m 256
 916 430 934 409 934 378 c 256
 934 338 921 298 884 298 c 256
 850 298 835 323 835 358 c 256
 835 398 848 430 884 430 c 256
EndSplineSet
Validated: 41
Ligature2: "'abvs' Above Base Substitutions in Telugu lookup 15 subtable" Bha OOMatra
EndChar

StartChar: BhaOttu
Encoding: 48 -1 48
GlifName: B_haO_ttu
Width: 238
VWidth: 0
Flags: W
LayerCount: 2
Back
Fore
SplineSet
-21 -461 m 256
 12 -461 22 -443 22 -409 c 256
NamedP: "hr00"
 22 -372 14 -358 -20 -358 c 256
 -54 -358 -65 -375 -65 -413 c 256
 -65 -444 -52 -461 -21 -461 c 256
42 -50 m 258
 122 -50 135 -117 135 -209 c 256
 135 -277 123 -322 63 -322 c 256
 26 -322 17 -300 17 -260 c 257
 -51 -260 l 257
 -51 -298 -64 -322 -99 -322 c 256
 -129 -322 -145 -296 -145 -263 c 256
 -145 -231 -120 -211 -71 -202 c 256
 -19 -193 7 -171 7 -135 c 256
 7 -84 -46 -66 -104 -66 c 256
 -180 -66 -231 -86 -231 -156 c 257
 -144 -156 l 257
 -144 -135 l 258
 -144 -115 -126 -101 -106 -101 c 256
 -80 -101 -65 -114 -65 -139 c 256
 -65 -159 -86 -171 -128 -178 c 256
 -195 -188 -228 -219 -228 -268 c 256
 -228 -331 -182 -358 -116 -358 c 256
 -68 -358 -40 -348 -21 -320 c 257
 -3 -350 23 -358 74 -358 c 256
 172 -358 223 -300 223 -201 c 256
 223 -79 181 -7 65 -7 c 258
 20 -7 l 257
 20 -50 l 257
 42 -50 l 258
EndSplineSet
Validated: 9
Ligature2: "'blwf' Below Base Forms in Telugu lookup 2 subtable" Bha Halanth
EndChar

StartChar: BhaU
Encoding: 49 -1 49
GlifName: B_haU_
Width: 1062
VWidth: 0
Flags: W
AnchorPoint: "Anchor-3" 0 0 basechar 0
AnchorPoint: "Anchor-0" 0 0 basechar 0
LayerCount: 2
Back
Fore
SplineSet
869 215 m 256
 869 133 843 49 771 49 c 256
 723 49 676 81 656 119 c 257
NamedP: "hr00"
 668 150 674 187 674 230 c 256
 674 317 630 383 563 409 c 257
 576 415 590 422 604 431 c 256
 653 461 701 503 750 557 c 257
 636 590 l 257
 612 550 581 513 543 480 c 256
 503 444 470 426 445 426 c 256
 408 426 388 473 388 512 c 257
 288 512 l 257
 288 465 304 429 337 406 c 256
 359 391 386 385 418 380 c 256
 421 379 425 378 430 378 c 258
 449 378 l 258
 490 378 516 363 529 334 c 256
 538 314 543 275 543 218 c 256
 543 153 533 108 513 83 c 256
 497 63 472 53 438 53 c 256
 383 53 370 83 370 144 c 257
 271 144 l 257
 271 90 253 54 203 54 c 256
 159 54 145 92 145 139 c 256
 145 186 179 216 248 229 c 256
 319 242 355 274 355 326 c 257
 362 401 277 425 194 425 c 256
 82 425 10 398 10 295 c 257
 136 295 l 257
 136 325 l 258
 136 356 160 378 191 378 c 256
 228 378 253 357 253 320 c 256
 253 292 222 273 160 263 c 256
 63 247 14 204 14 133 c 256
 14 42 80 0 176 0 c 256
 247 0 288 15 315 56 c 257
 341 12 380 0 454 0 c 256
 522 0 578 15 614 55 c 258
 630 73 l 257
 657 27 722 -1 791 -1 c 256
 920 -1 1000 90 1000 220 c 256
 1000 341 924 425 803 425 c 258
 760 425 l 257
 760 376 l 257
 836 376 869 298 869 215 c 256
318 -147 m 256
 364 -147 381 -121 390 -79 c 257
 390 -31 368 -9 320 -9 c 256
 278 -9 259 -41 259 -84 c 256
 259 -126 276 -147 318 -147 c 256
EndSplineSet
Validated: 41
Ligature2: "'psts' Post Base Substitutions in Telugu lookup 17 subtable" Bha UMatra
EndChar

StartChar: BhaUU
Encoding: 50 -1 50
GlifName: B_haU_U_
Width: 1420
VWidth: 0
Flags: W
AnchorPoint: "Anchor-3" 0 0 basechar 0
AnchorPoint: "Anchor-0" 0 0 basechar 0
LayerCount: 2
Back
Fore
SplineSet
875 215 m 256
 875 126 853 49 773 49 c 256
 722 49 679 83 656 120 c 257
NamedP: "hr00"
 668 151 674 188 674 230 c 256
 674 317 630 383 563 409 c 257
 576 415 590 422 604 431 c 256
 653 461 701 503 750 557 c 257
 636 590 l 257
 612 550 581 513 543 480 c 256
 503 444 470 426 445 426 c 256
 408 426 388 473 388 512 c 257
 288 512 l 257
 288 465 304 429 337 406 c 256
 359 391 386 385 418 380 c 256
 421 379 425 378 430 378 c 258
 449 378 l 258
 490 378 516 363 529 334 c 256
 538 314 543 275 543 218 c 256
 543 153 533 108 513 83 c 256
 497 63 472 53 438 53 c 256
 383 53 370 83 370 144 c 257
 271 144 l 257
 271 90 253 54 203 54 c 256
 159 54 145 92 145 139 c 256
 145 186 179 216 248 229 c 256
 319 242 355 274 355 326 c 257
 362 401 277 425 194 425 c 256
 82 425 10 398 10 295 c 257
 136 295 l 257
 136 325 l 258
 136 356 160 378 191 378 c 256
 228 378 253 357 253 320 c 256
 253 292 222 273 160 263 c 256
 63 247 14 204 14 133 c 256
 14 42 80 0 176 0 c 256
 247 0 288 15 315 56 c 257
 341 12 380 0 454 0 c 256
 531 0 596 25 631 74 c 257
 656 27 724 -1 793 -1 c 256
 924 -1 1006 89 1006 220 c 256
 1006 283 988 334 959 369 c 257
 1159 369 l 258
 1199 369 1226 364 1240 355 c 256
 1250 349 1257 337 1260 319 c 257
 1244 331 1214 333 1181 333 c 256
 1112 333 1063 286 1063 216 c 256
 1063 145 1133 109 1209 109 c 256
 1308 109 1364 172 1364 271 c 256
 1364 373 1292 425 1186 425 c 258
 759 425 l 257
 759 376 l 257
 793 376 819 366 838 346 c 256
 863 321 875 277 875 215 c 256
318 -147 m 256
 364 -147 381 -121 390 -79 c 257
 390 -31 368 -9 320 -9 c 256
 278 -9 259 -41 259 -84 c 256
 259 -126 276 -147 318 -147 c 256
1213 289 m 256
 1247 289 1263 264 1263 228 c 256
 1263 185 1252 156 1213 156 c 256
 1179 156 1164 179 1164 216 c 256
 1164 263 1171 289 1213 289 c 256
EndSplineSet
Validated: 41
Ligature2: "'psts' Post Base Substitutions in Telugu lookup 17 subtable" Bha UUMatra
EndChar

StartChar: C
Encoding: 51 67 51
GlifName: C_
Width: 387
VWidth: 0
Flags: W
LayerCount: 2
Back
Fore
SplineSet
382 335 m 257
 373 416 341 469 221 469 c 256
 69 469 25 386 25 230 c 256
 25 74 69 -9 221 -9 c 256
 350 -9 376 56 383 154 c 257
 292 158 l 257
 292 83 277 38 221 38 c 256
 157 38 138 91 138 230 c 256
 138 370 157 422 221 422 c 256
 271 422 287 384 292 321 c 257
 382 335 l 257
EndSplineSet
Validated: 9
EndChar

StartChar: Ca
Encoding: 53 3098 53
GlifName: C_a
Width: 711
VWidth: 0
Flags: W
AnchorPoint: "Anchor-0" 0 0 basechar 0
LayerCount: 2
Back
Fore
SplineSet
344 51 m 257
 366 14 406 0 465 0 c 256
 600 0 666 78 670 213 c 256
 672 318 601 395 510 417 c 257
 538 431 l 258
NamedP: "hr00"
 592 458 645 503 699 557 c 257
 573 590 l 257
 546 550 512 513 471 480 c 256
 426 444 390 426 361 426 c 256
 323 426 299 472 299 512 c 257
 189 512 l 257
 189 465 207 429 243 406 c 256
 268 391 300 383 339 379 c 256
 342 378 346 378 350 378 c 258
 370 378 l 258
 485 378 539 329 539 214 c 256
 539 155 531 113 514 86 c 256
 501 64 482 53 458 53 c 256
 422 53 403 75 403 111 c 258
 403 175 l 257
 296 175 l 257
 296 116 l 258
 296 73 276 53 233 53 c 256
 189 53 184 94 184 149 c 256
 184 185 186 209 191 221 c 256
 200 244 218 256 246 256 c 258
 283 256 l 257
 283 316 l 257
 10 316 l 257
 10 256 l 257
 119 256 l 257
 74 238 53 202 53 140 c 256
 53 49 128 0 223 0 c 256
 279 0 322 18 344 51 c 257
EndSplineSet
Validated: 41
EndChar

StartChar: CaAA
Encoding: 54 -1 54
GlifName: C_aA_A_
Width: 1081
VWidth: 0
Flags: W
AnchorPoint: "Anchor-0" 0 0 basechar 0
LayerCount: 2
Back
Fore
SplineSet
344 51 m 257
 366 14 406 0 465 0 c 256
 600 0 666 78 670 213 c 256
 671 271 654 323 614 359 c 258
 593 378 l 257
 840 378 l 258
NamedP: "hr00"
 896 378 928 360 941 320 c 257
 923 332 909 334 875 334 c 256
 792 334 738 297 738 218 c 256
 738 141 808 110 890 110 c 256
 989 110 1045 173 1045 273 c 256
 1045 374 973 426 868 426 c 258
 70 426 l 257
 70 378 l 257
 370 378 l 258
 485 378 539 329 539 214 c 256
 539 155 531 113 514 86 c 256
 501 64 482 53 458 53 c 256
 422 53 403 75 403 111 c 258
 403 175 l 257
 296 175 l 257
 296 116 l 258
 296 73 276 53 233 53 c 256
 189 53 184 94 184 149 c 256
 184 185 186 209 191 221 c 256
 200 244 218 256 246 256 c 258
 283 256 l 257
 283 316 l 257
 10 316 l 257
 10 256 l 257
 119 256 l 257
 74 238 53 202 53 140 c 256
 53 49 128 0 223 0 c 256
 279 0 322 18 344 51 c 257
894 290 m 256
 929 290 944 267 944 229 c 256
 944 185 933 158 894 158 c 256
 859 158 839 182 839 218 c 256
 839 263 853 290 894 290 c 256
EndSplineSet
Validated: 41
Ligature2: "'abvs' Above Base Substitutions in Telugu lookup 9 subtable" Ca AAMatra
EndChar

StartChar: CaAU
Encoding: 55 -1 55
GlifName: C_aA_U_
Width: 1055
VWidth: 0
Flags: W
AnchorPoint: "Anchor-0" 0 0 basechar 0
LayerCount: 2
Back
Fore
SplineSet
344 51 m 257
 366 14 406 0 465 0 c 256
 600 0 666 78 670 213 c 256
 671 283 637 351 585 384 c 257
NamedP: "hr00"
 612 394 631 415 631 448 c 256
 631 471 623 487 606 495 c 257
 844 495 l 258
 886 495 922 481 930 448 c 257
 914 458 885 459 854 459 c 256
 784 459 738 443 738 378 c 256
 738 307 804 278 880 278 c 256
 968 278 1031 321 1031 406 c 256
 1031 495 947 549 854 549 c 258
 125 549 l 257
 125 490 l 257
 491 490 l 258
 512 490 526 480 526 460 c 256
 526 433 514 425 486 425 c 258
 200 425 l 257
 200 378 l 257
 370 378 l 258
 485 378 539 329 539 214 c 256
 539 155 531 113 514 86 c 256
 501 64 482 53 458 53 c 256
 422 53 403 75 403 111 c 258
 403 175 l 257
 296 175 l 257
 296 116 l 258
 296 73 276 53 233 53 c 256
 189 53 184 94 184 149 c 256
 184 185 186 209 191 221 c 256
 200 244 218 256 246 256 c 258
 283 256 l 257
 283 316 l 257
 10 316 l 257
 10 256 l 257
 119 256 l 257
 74 238 53 202 53 140 c 256
 53 49 128 0 223 0 c 256
 279 0 322 18 344 51 c 257
884 423 m 256
 915 423 933 408 933 378 c 256
 933 341 920 318 884 318 c 256
 851 318 836 335 836 365 c 256
 836 405 846 423 884 423 c 256
EndSplineSet
Validated: 41
Ligature2: "'abvs' Above Base Substitutions in Telugu lookup 16 subtable" Ca AuMatra
EndChar

StartChar: CaE
Encoding: 56 -1 56
GlifName: C_aE_
Width: 711
VWidth: 0
Flags: W
AnchorPoint: "Anchor-1" 0 0 basechar 0
AnchorPoint: "Anchor-0" 0 0 basechar 0
LayerCount: 2
Back
Fore
SplineSet
344 51 m 257
 366 14 406 0 465 0 c 256
 600 0 666 78 670 213 c 256
 671 291 631 354 576 390 c 257
NamedP: "hr00"
 604 407 623 433 623 474 c 256
 623 528 578 565 531 575 c 257
 110 575 l 257
 110 518 l 257
 470 518 l 258
 497 518 510 503 510 474 c 256
 510 450 494 440 474 426 c 257
 211 426 l 257
 211 378 l 257
 370 378 l 258
 485 378 539 329 539 214 c 256
 539 155 531 113 514 86 c 256
 501 64 482 53 458 53 c 256
 422 53 403 75 403 111 c 258
 403 175 l 257
 296 175 l 257
 296 116 l 258
 296 73 276 53 233 53 c 256
 189 53 184 94 184 149 c 256
 184 185 186 209 191 221 c 256
 200 244 218 256 246 256 c 258
 283 256 l 257
 283 316 l 257
 10 316 l 257
 10 256 l 257
 119 256 l 257
 74 238 53 202 53 140 c 256
 53 49 128 0 223 0 c 256
 279 0 322 18 344 51 c 257
EndSplineSet
Validated: 41
PairPos2: "'blwm' Below Base Mark in Telugu lookup 14 subtable" Titvam dx=0 dy=0 dh=18 dv=0 dx=-774 dy=-25 dh=0 dv=0
PairPos2: "'blwm' Below Base Mark in Telugu lookup 0 subtable" tvam dx=0 dy=0 dh=0 dv=0 dx=-830 dy=20 dh=0 dv=0
Ligature2: "'abvs' Above Base Substitutions in Telugu lookup 12 subtable" Ca uni0C46
EndChar

StartChar: CaEE
Encoding: 57 -1 57
GlifName: C_aE_E_
Width: 711
VWidth: 0
Flags: W
AnchorPoint: "Anchor-0" 0 0 basechar 0
LayerCount: 2
Back
Fore
SplineSet
344 51 m 257
 366 14 406 0 465 0 c 256
 600 0 666 78 670 213 c 256
 671 291 630 355 575 391 c 257
NamedP: "hr00"
 602 407 623 440 623 475 c 256
 623 533 588 575 531 575 c 257
 507 579 499 588 499 616 c 256
 499 650 518 660 554 660 c 256
 586 660 608 639 608 608 c 257
 699 608 l 257
 699 686 634 704 545 704 c 256
 471 704 401 684 401 618 c 256
 401 599 407 585 415 575 c 257
 110 575 l 257
 110 518 l 257
 470 518 l 257
 491 506 510 499 510 475 c 256
 510 449 498 426 474 426 c 258
 211 426 l 257
 211 378 l 257
 370 378 l 258
 485 378 539 329 539 214 c 256
 539 155 531 113 514 86 c 256
 501 64 482 53 458 53 c 256
 422 53 403 75 403 111 c 258
 403 175 l 257
 296 175 l 257
 296 116 l 258
 296 73 276 53 233 53 c 256
 189 53 184 94 184 149 c 256
 184 185 186 209 191 221 c 256
 200 244 218 256 246 256 c 258
 283 256 l 257
 283 316 l 257
 10 316 l 257
 10 256 l 257
 119 256 l 257
 74 238 53 202 53 140 c 256
 53 49 128 0 223 0 c 256
 279 0 322 18 344 51 c 257
EndSplineSet
Validated: 41
Ligature2: "'abvs' Above Base Substitutions in Telugu lookup 13 subtable" Ca EEMatra
EndChar

StartChar: CaHalanth
Encoding: 58 -1 58
GlifName: C_aH_alanth
Width: 711
VWidth: 0
Flags: W
AnchorPoint: "Anchor-0" 0 0 basechar 0
LayerCount: 2
Back
Fore
SplineSet
344 51 m 257
 366 14 406 0 465 0 c 256
 600 0 666 78 670 213 c 256
 671 271 651 320 614 359 c 256
 572 403 512 425 435 425 c 258
 386 425 l 257
 386 426 l 257
NamedP: "hr00"
 374 426 l 258
 360 426 350 443 350 456 c 256
 350 474 366 486 384 486 c 258
 528 486 l 257
 528 539 l 257
 391 539 l 258
 373 539 354 550 354 568 c 256
 354 586 373 600 391 600 c 258
 704 600 l 257
 704 666 l 257
 339 666 l 258
 286 666 238 630 238 580 c 256
 238 547 257 521 280 509 c 257
 256 503 239 479 239 451 c 256
 239 409 298 378 345 378 c 258
 370 378 l 258
 485 378 539 329 539 214 c 256
 539 155 531 113 514 86 c 256
 501 64 482 53 458 53 c 256
 422 53 403 75 403 111 c 258
 403 175 l 257
 296 175 l 257
 296 116 l 258
 296 73 276 53 233 53 c 256
 189 53 184 94 184 149 c 256
 184 185 186 209 191 221 c 256
 200 244 218 256 246 256 c 258
 283 256 l 257
 283 316 l 257
 10 316 l 257
 10 256 l 257
 119 256 l 257
 74 238 53 202 53 140 c 256
 53 49 128 0 223 0 c 256
 279 0 322 18 344 51 c 257
EndSplineSet
Validated: 41
Ligature2: "'haln' Halant Forms in Telugu lookup 19 subtable" Ca Halanth
EndChar

StartChar: CaI
Encoding: 59 -1 59
GlifName: C_aI_
Width: 726
VWidth: 0
Flags: W
AnchorPoint: "Anchor-0" 0 0 basechar 0
LayerCount: 2
Back
Fore
SplineSet
451 463 m 257
 524 438 545 357 545 250 c 256
NamedP: "hr00"
 545 186 537 136 518 100 c 256
 502 69 481 53 458 53 c 256
 422 53 403 75 403 111 c 258
 403 175 l 257
 296 175 l 257
 296 116 l 258
 296 73 276 53 233 53 c 256
 189 53 184 94 184 149 c 256
 184 182 186 204 191 215 c 256
 200 234 219 244 246 244 c 258
 283 244 l 257
 283 304 l 257
 10 304 l 257
 10 244 l 257
 119 244 l 257
 74 224 53 202 53 140 c 256
 53 49 128 0 223 0 c 256
 279 0 322 18 344 51 c 257
 366 14 406 0 465 0 c 256
 598 0 676 102 676 238 c 256
 676 450 572 543 358 543 c 256
 295 543 246 532 209 511 c 256
 174 491 156 465 156 434 c 256
 156 360 236 339 321 339 c 256
 369 339 405 349 428 368 c 256
 448 384 458 404 458 430 c 256
 458 439 456 450 451 463 c 257
339 485 m 256
 374 485 391 477 391 446 c 256
 391 414 371 400 339 400 c 256
 310 400 288 410 288 438 c 256
 288 474 302 485 339 485 c 256
EndSplineSet
Validated: 9
Ligature2: "'abvs' Above Base Substitutions in Telugu lookup 10 subtable" Ca Imatra
EndChar

StartChar: CaII
Encoding: 60 -1 60
GlifName: C_aI_I_
Width: 725
VWidth: 0
Flags: W
AnchorPoint: "Anchor-0" 0 0 basechar 0
LayerCount: 2
Back
Fore
SplineSet
339 485 m 256
 374 485 391 477 391 446 c 256
NamedP: "hr00"
 391 414 371 400 339 400 c 256
 310 400 288 410 288 438 c 256
 288 474 302 485 339 485 c 256
249 598 m 256
 249 567 259 547 279 536 c 257
 238 529 207 517 186 498 c 256
 166 481 156 460 156 434 c 256
 156 360 236 339 321 339 c 256
 369 339 405 349 428 368 c 256
 448 384 458 404 458 430 c 256
 458 439 456 450 451 463 c 257
 524 438 545 357 545 250 c 256
 545 186 537 136 518 100 c 256
 502 69 481 53 458 53 c 256
 422 53 403 75 403 111 c 258
 403 175 l 257
 296 175 l 257
 296 116 l 258
 296 73 276 53 233 53 c 256
 189 53 184 94 184 149 c 256
 184 182 186 204 191 215 c 256
 200 234 219 244 246 244 c 258
 283 244 l 257
 283 304 l 257
 10 304 l 257
 10 244 l 257
 119 244 l 257
 74 224 53 202 53 140 c 256
 53 49 128 0 223 0 c 256
 279 0 322 18 344 51 c 257
 366 14 406 0 465 0 c 256
 598 0 676 102 676 238 c 256
 676 443 580 535 380 541 c 257
 363 551 346 571 346 596 c 256
 346 630 365 640 401 640 c 256
 434 640 455 620 455 588 c 257
 546 588 l 257
 546 594 l 258
 546 667 477 684 393 684 c 256
 319 684 249 664 249 598 c 256
EndSplineSet
Validated: 9
Ligature2: "'abvs' Above Base Substitutions in Telugu lookup 11 subtable" Ca IIMatra
EndChar

StartChar: CaNukta
Encoding: 61 3160 61
GlifName: C_aN_ukta
Width: 711
VWidth: 0
Flags: W
AnchorPoint: "Anchor-0" 0 0 basechar 0
LayerCount: 2
Back
Fore
SplineSet
189 511 m 257
 189 419 259 378 358 378 c 256
 415 378 475 395 538 430 c 256
 591 460 645 502 699 556 c 257
 573 589 l 257
NamedP: "hr00"
 546 549 512 512 471 479 c 256
 426 443 390 425 361 425 c 256
 323 425 299 471 299 511 c 257
 189 511 l 257
344 51 m 257
 366 14 406 0 465 0 c 256
 600 0 666 78 670 213 c 256
 671 271 651 320 614 359 c 256
 572 403 512 425 435 425 c 258
 350 425 l 258
 334 425 326 417 326 401 c 256
 326 386 334 378 350 378 c 258
 370 378 l 258
 485 378 539 329 539 214 c 256
 539 155 531 113 514 86 c 256
 501 64 482 53 458 53 c 256
 422 53 403 75 403 111 c 258
 403 175 l 257
 296 175 l 257
 296 116 l 258
 296 73 276 53 233 53 c 256
 189 53 184 94 184 149 c 256
 184 185 186 209 191 221 c 256
 200 244 218 256 246 256 c 258
 283 256 l 257
 283 316 l 257
 10 316 l 257
 10 256 l 257
 119 256 l 257
 74 238 53 202 53 140 c 256
 53 49 128 0 223 0 c 256
 279 0 322 18 344 51 c 257
EndSplineSet
Validated: 37
Ligature2: "'nukt' Nukta Forms in Telugu lookup 0 subtable" Ca Nukta
EndChar

StartChar: CaNuktaAA
Encoding: 62 -1 62
GlifName: C_aN_uktaA_A_
Width: 1081
VWidth: 0
Flags: W
LayerCount: 2
Back
Fore
SplineSet
363 659 m 256
 363 639 369 618 378 609 c 257
 10 609 l 257
 10 550 l 257
 513 550 l 258
NamedP: "hr00"
 578 550 637 580 637 640 c 256
 637 712 572 737 493 737 c 256
 431 737 363 713 363 659 c 256
344 51 m 257
 366 14 406 0 465 0 c 256
 600 0 666 78 670 213 c 256
 671 271 654 323 614 359 c 258
 593 378 l 257
 840 378 l 258
 896 378 928 360 941 320 c 257
 923 332 909 334 875 334 c 256
 792 334 738 297 738 218 c 256
 738 141 808 110 890 110 c 256
 989 110 1045 173 1045 273 c 256
 1045 374 973 426 868 426 c 258
 70 426 l 257
 70 378 l 257
 370 378 l 258
 485 378 539 329 539 214 c 256
 539 155 531 113 514 86 c 256
 501 64 482 53 458 53 c 256
 422 53 403 75 403 111 c 258
 403 175 l 257
 296 175 l 257
 296 116 l 258
 296 73 276 53 233 53 c 256
 189 53 184 94 184 149 c 256
 184 185 186 209 191 221 c 256
 200 244 218 256 246 256 c 258
 283 256 l 257
 283 316 l 257
 10 316 l 257
 10 256 l 257
 119 256 l 257
 74 238 53 202 53 140 c 256
 53 49 128 0 223 0 c 256
 279 0 322 18 344 51 c 257
501 609 m 256
 468 609 450 623 450 655 c 256
 450 683 472 702 501 702 c 256
 530 702 549 685 549 655 c 256
 549 624 531 609 501 609 c 256
894 290 m 256
 929 290 944 267 944 229 c 256
 944 185 933 158 894 158 c 256
 859 158 839 182 839 218 c 256
 839 263 853 290 894 290 c 256
EndSplineSet
Validated: 41
Ligature2: "'abvs' Above Base Substitutions in Telugu lookup 9 subtable" Ca Nukta AAMatra
EndChar

StartChar: CaNuktaAU
Encoding: 63 -1 63
GlifName: C_aN_uktaA_U_
Width: 1055
VWidth: 0
Flags: W
LayerCount: 2
Back
Fore
SplineSet
363 739 m 256
 363 719 369 698 378 689 c 257
 10 689 l 257
 10 630 l 257
 513 630 l 258
NamedP: "hr00"
 578 630 637 660 637 720 c 256
 637 792 572 817 493 817 c 256
 431 817 363 793 363 739 c 256
344 51 m 257
 366 14 406 0 465 0 c 256
 600 0 666 78 670 213 c 256
 671 283 637 351 585 384 c 257
 612 394 631 415 631 448 c 256
 631 471 623 487 606 495 c 257
 844 495 l 258
 886 495 922 481 930 448 c 257
 914 458 885 459 854 459 c 256
 784 459 738 443 738 378 c 256
 738 307 804 278 880 278 c 256
 968 278 1031 321 1031 406 c 256
 1031 495 947 549 854 549 c 258
 125 549 l 257
 125 490 l 257
 491 490 l 258
 512 490 526 480 526 460 c 256
 526 433 514 425 486 425 c 258
 200 425 l 257
 200 378 l 257
 370 378 l 258
 485 378 539 329 539 214 c 256
 539 155 531 113 514 86 c 256
 501 64 482 53 458 53 c 256
 422 53 403 75 403 111 c 258
 403 175 l 257
 296 175 l 257
 296 116 l 258
 296 73 276 53 233 53 c 256
 189 53 184 94 184 149 c 256
 184 185 186 209 191 221 c 256
 200 244 218 256 246 256 c 258
 283 256 l 257
 283 316 l 257
 10 316 l 257
 10 256 l 257
 119 256 l 257
 74 238 53 202 53 140 c 256
 53 49 128 0 223 0 c 256
 279 0 322 18 344 51 c 257
501 689 m 256
 468 689 450 703 450 735 c 256
 450 763 472 782 501 782 c 256
 530 782 549 765 549 735 c 256
 549 704 531 689 501 689 c 256
884 423 m 256
 915 423 933 408 933 378 c 256
 933 341 920 318 884 318 c 256
 851 318 836 335 836 365 c 256
 836 405 846 423 884 423 c 256
EndSplineSet
Validated: 41
Ligature2: "'abvs' Above Base Substitutions in Telugu lookup 16 subtable" CaNukta AuMatra
EndChar

StartChar: CaNuktaHalanth
Encoding: 64 -1 64
GlifName: C_aN_uktaH_alanth
Width: 711
VWidth: 0
Flags: W
LayerCount: 2
Back
Fore
SplineSet
363 809 m 256
 363 789 369 768 378 759 c 257
 10 759 l 257
 10 700 l 257
 513 700 l 258
NamedP: "hr00"
 578 700 637 730 637 790 c 256
 637 862 572 887 493 887 c 256
 431 887 363 863 363 809 c 256
344 51 m 257
 366 14 406 0 465 0 c 256
 600 0 666 78 670 213 c 256
 671 271 651 320 614 359 c 256
 572 403 512 425 435 425 c 258
 386 425 l 257
 386 426 l 257
 374 426 l 258
 360 426 350 443 350 456 c 256
 350 474 366 486 384 486 c 258
 528 486 l 257
 528 539 l 257
 391 539 l 258
 373 539 354 550 354 568 c 256
 354 586 373 600 391 600 c 258
 704 600 l 257
 704 666 l 257
 339 666 l 258
 286 666 238 630 238 580 c 256
 238 547 257 521 280 509 c 257
 256 503 239 479 239 451 c 256
 239 409 298 378 345 378 c 258
 370 378 l 258
 485 378 539 329 539 214 c 256
 539 155 531 113 514 86 c 256
 501 64 482 53 458 53 c 256
 422 53 403 75 403 111 c 258
 403 175 l 257
 296 175 l 257
 296 116 l 258
 296 73 276 53 233 53 c 256
 189 53 184 94 184 149 c 256
 184 185 186 209 191 221 c 256
 200 244 218 256 246 256 c 258
 283 256 l 257
 283 316 l 257
 10 316 l 257
 10 256 l 257
 119 256 l 257
 74 238 53 202 53 140 c 256
 53 49 128 0 223 0 c 256
 279 0 322 18 344 51 c 257
501 759 m 256
 468 759 450 773 450 805 c 256
 450 833 472 852 501 852 c 256
 530 852 549 835 549 805 c 256
 549 774 531 759 501 759 c 256
EndSplineSet
Validated: 41
Ligature2: "'haln' Halant Forms in Telugu lookup 19 subtable" CaNukta Halanth
EndChar

StartChar: CaNuktaO
Encoding: 65 -1 65
GlifName: C_aN_uktaO_
Width: 1070
VWidth: 0
Flags: W
LayerCount: 2
Back
Fore
SplineSet
363 739 m 256
 363 719 369 698 378 689 c 257
 10 689 l 257
 10 630 l 257
 513 630 l 258
NamedP: "hr00"
 578 630 637 660 637 720 c 256
 637 792 572 817 493 817 c 256
 431 817 363 793 363 739 c 256
344 51 m 257
 366 14 406 0 465 0 c 256
 600 0 666 78 670 213 c 256
 671 271 651 320 614 359 c 256
 572 403 512 425 435 425 c 258
 306 425 l 258
 276 425 236 437 236 464 c 256
 236 483 250 497 279 508 c 256
 306 518 345 524 396 524 c 256
 459 524 505 517 535 503 c 256
 564 490 579 468 579 438 c 257
 645 438 l 257
 645 510 727 530 809 530 c 256
 871 530 946 514 946 460 c 257
 929 472 904 474 874 474 c 256
 804 474 742 442 742 378 c 256
 742 296 805 250 889 250 c 256
 986 250 1051 316 1051 413 c 256
 1051 542 947 585 807 585 c 256
 720 585 651 562 611 516 c 257
 571 565 481 584 387 584 c 256
 300 584 231 573 182 550 c 256
 134 527 110 496 110 456 c 256
 110 399 155 378 217 378 c 258
 370 378 l 258
 485 378 539 329 539 214 c 256
 539 155 531 113 514 86 c 256
 501 64 482 53 458 53 c 256
 422 53 403 75 403 111 c 258
 403 175 l 257
 296 175 l 257
 296 116 l 258
 296 73 276 53 233 53 c 256
 189 53 184 94 184 149 c 256
 184 185 186 209 191 221 c 256
 200 244 218 256 246 256 c 258
 283 256 l 257
 283 316 l 257
 10 316 l 257
 10 256 l 257
 119 256 l 257
 74 238 53 202 53 140 c 256
 53 49 128 0 223 0 c 256
 279 0 322 18 344 51 c 257
501 689 m 256
 468 689 450 703 450 735 c 256
 450 763 472 782 501 782 c 256
 530 782 549 765 549 735 c 256
 549 704 531 689 501 689 c 256
899 430 m 256
 933 430 950 402 950 365 c 256
 950 325 936 298 899 298 c 256
 857 298 844 326 844 370 c 256
 844 414 856 430 899 430 c 256
EndSplineSet
Validated: 41
Ligature2: "'abvs' Above Base Substitutions in Telugu lookup 14 subtable" CaNukta OMatra
EndChar

StartChar: CaNuktaOO
Encoding: 66 -1 66
GlifName: C_aN_uktaO_O_
Width: 1077
VWidth: 0
Flags: W
LayerCount: 2
Back
Fore
SplineSet
363 749 m 256
 363 729 369 708 378 699 c 257
 10 699 l 257
 10 640 l 257
 513 640 l 258
NamedP: "hr00"
 578 640 637 670 637 730 c 256
 637 802 572 827 493 827 c 256
 431 827 363 803 363 749 c 256
344 51 m 257
 366 14 406 0 465 0 c 256
 600 0 666 78 670 213 c 256
 671 271 651 320 614 359 c 256
 572 403 512 425 435 425 c 258
 306 425 l 258
 277 425 236 437 236 464 c 256
 236 483 250 497 279 508 c 256
 306 518 345 524 396 524 c 256
 457 524 502 516 530 503 c 256
 559 489 573 468 573 438 c 257
 639 438 l 257
 639 510 721 530 803 530 c 256
 865 530 940 514 940 460 c 257
 923 472 898 474 868 474 c 256
 799 474 738 441 738 374 c 256
 738 296 800 250 883 250 c 256
 980 250 1045 316 1045 413 c 256
 1045 500 964 561 888 578 c 257
 877 587 869 603 869 624 c 256
 869 653 895 668 924 668 c 256
 957 668 978 647 978 615 c 257
 1069 615 l 257
 1069 683 992 711 915 711 c 256
 845 711 771 689 771 625 c 256
 771 610 773 594 780 585 c 257
 704 585 641 553 605 510 c 257
 562 559 482 584 388 584 c 256
 300 584 232 574 183 553 c 256
 134 531 110 501 110 463 c 256
 110 400 157 378 224 378 c 258
 370 378 l 258
 485 378 539 329 539 214 c 256
 539 155 531 113 514 86 c 256
 501 64 482 53 458 53 c 256
 422 53 403 75 403 111 c 258
 403 175 l 257
 296 175 l 257
 296 116 l 258
 296 73 276 53 233 53 c 256
 189 53 184 94 184 149 c 256
 184 185 186 209 191 221 c 256
 200 244 218 256 246 256 c 258
 283 256 l 257
 283 316 l 257
 10 316 l 257
 10 256 l 257
 119 256 l 257
 74 238 53 202 53 140 c 256
 53 49 128 0 223 0 c 256
 279 0 322 18 344 51 c 257
501 699 m 256
 468 699 450 713 450 745 c 256
 450 773 472 792 501 792 c 256
 530 792 549 775 549 745 c 256
 549 714 531 699 501 699 c 256
886 430 m 256
 921 430 944 412 944 378 c 256
 944 331 929 298 886 298 c 256
 852 298 838 321 838 358 c 256
 838 403 845 430 886 430 c 256
EndSplineSet
Validated: 41
Ligature2: "'abvs' Above Base Substitutions in Telugu lookup 15 subtable" CaNukta OOMatra
EndChar

StartChar: CaNuktaU
Encoding: 67 -1 67
GlifName: C_aN_uktaU_
Width: 1037
VWidth: 0
Flags: W
AnchorPoint: "Anchor-3" 0 0 basechar 0
LayerCount: 2
Back
Fore
SplineSet
363 739 m 256
 363 719 369 698 378 689 c 257
 10 689 l 257
 10 630 l 257
 513 630 l 258
NamedP: "hr00"
 578 630 637 660 637 720 c 256
 637 792 572 817 493 817 c 256
 431 817 363 793 363 739 c 256
361 426 m 256
 323 426 299 472 299 512 c 257
 189 512 l 257
 189 465 207 429 243 406 c 256
 268 391 300 383 339 379 c 256
 342 378 346 378 350 378 c 258
 370 378 l 258
 485 378 539 329 539 214 c 256
 539 155 531 113 514 86 c 256
 501 64 482 53 458 53 c 256
 422 53 403 75 403 111 c 258
 403 175 l 257
 296 175 l 257
 296 116 l 258
 296 73 276 53 233 53 c 256
 189 53 184 94 184 149 c 256
 184 185 186 209 191 221 c 256
 200 244 218 256 246 256 c 258
 283 256 l 257
 283 316 l 257
 10 316 l 257
 10 256 l 257
 119 256 l 257
 74 238 53 202 53 140 c 256
 53 49 128 0 223 0 c 256
 279 0 322 18 344 51 c 257
 366 14 406 0 465 0 c 256
 539 0 595 24 627 69 c 257
 656 26 718 -1 786 -1 c 256
 915 -1 995 90 995 220 c 256
 995 341 919 425 798 425 c 258
 755 425 l 257
 755 376 l 257
 831 376 864 298 864 215 c 256
 864 133 838 49 766 49 c 256
 719 49 674 81 652 116 c 257
 662 144 669 176 670 213 c 256
 672 318 601 395 510 417 c 257
 538 431 l 258
 592 458 645 503 699 557 c 257
 573 590 l 257
 546 550 512 513 471 480 c 256
 426 444 390 426 361 426 c 256
501 689 m 256
 468 689 450 703 450 735 c 256
 450 763 472 782 501 782 c 256
 530 782 549 765 549 735 c 256
 549 704 531 689 501 689 c 256
EndSplineSet
Validated: 41
Ligature2: "'psts' Post Base Substitutions in Telugu lookup 17 subtable" CaNukta UMatra
EndChar

StartChar: CaNuktaUU
Encoding: 68 -1 68
GlifName: C_aN_uktaU_U_
Width: 1395
VWidth: 0
Flags: W
AnchorPoint: "Anchor-3" 0 0 basechar 0
LayerCount: 2
Back
Fore
SplineSet
363 729 m 256
 363 709 369 688 378 679 c 257
 10 679 l 257
 10 620 l 257
 513 620 l 258
NamedP: "hr00"
 578 620 637 650 637 710 c 256
 637 782 572 807 493 807 c 256
 431 807 363 783 363 729 c 256
361 426 m 256
 323 426 299 472 299 512 c 257
 189 512 l 257
 189 465 207 429 243 406 c 256
 268 391 300 383 339 379 c 256
 342 378 346 378 350 378 c 258
 370 378 l 258
 485 378 539 329 539 214 c 256
 539 155 531 113 514 86 c 256
 501 64 482 53 458 53 c 256
 422 53 403 75 403 111 c 258
 403 175 l 257
 296 175 l 257
 296 116 l 258
 296 73 276 53 233 53 c 256
 189 53 184 94 184 149 c 256
 184 185 186 209 191 221 c 256
 200 244 218 256 246 256 c 258
 283 256 l 257
 283 316 l 257
 10 316 l 257
 10 256 l 257
 119 256 l 257
 74 238 53 202 53 140 c 256
 53 49 128 0 223 0 c 256
 279 0 322 18 344 51 c 257
 366 14 406 0 465 0 c 256
 540 0 595 24 628 70 c 257
 657 26 719 -1 788 -1 c 256
 919 -1 1001 89 1001 220 c 256
 1001 283 983 334 954 369 c 257
 1154 369 l 258
 1194 369 1221 364 1235 355 c 256
 1245 349 1252 337 1255 319 c 257
 1239 331 1209 333 1176 333 c 256
 1107 333 1058 286 1058 216 c 256
 1058 145 1128 109 1204 109 c 256
 1303 109 1359 172 1359 271 c 256
 1359 373 1287 425 1181 425 c 258
 754 425 l 257
 754 376 l 257
 788 376 814 366 833 346 c 256
 858 321 870 277 870 215 c 256
 870 126 848 49 768 49 c 256
 719 49 676 81 653 117 c 257
 662 144 669 176 670 213 c 256
 672 318 601 395 510 417 c 257
 538 431 l 258
 592 458 645 503 699 557 c 257
 573 590 l 257
 546 550 512 513 471 480 c 256
 426 444 390 426 361 426 c 256
501 679 m 256
 468 679 450 693 450 725 c 256
 450 753 472 772 501 772 c 256
 530 772 549 755 549 725 c 256
 549 694 531 679 501 679 c 256
1208 289 m 256
 1242 289 1258 264 1258 228 c 256
 1258 185 1247 156 1208 156 c 256
 1174 156 1159 179 1159 216 c 256
 1159 263 1166 289 1208 289 c 256
EndSplineSet
Validated: 41
Ligature2: "'psts' Post Base Substitutions in Telugu lookup 17 subtable" CaNukta UUMatra
EndChar

StartChar: CaO
Encoding: 69 -1 69
GlifName: C_aO_
Width: 1070
VWidth: 0
Flags: W
AnchorPoint: "Anchor-0" 0 0 basechar 0
LayerCount: 2
Back
Fore
SplineSet
344 51 m 257
 366 14 406 0 465 0 c 256
 600 0 666 78 670 213 c 256
 671 271 651 320 614 359 c 256
 572 403 512 425 435 425 c 258
 306 425 l 258
NamedP: "hr00"
 276 425 236 437 236 464 c 256
 236 483 250 497 279 508 c 256
 306 518 345 524 396 524 c 256
 459 524 505 517 535 503 c 256
 564 490 579 468 579 438 c 257
 645 438 l 257
 645 510 727 530 809 530 c 256
 871 530 946 514 946 460 c 257
 929 472 904 474 874 474 c 256
 804 474 742 442 742 378 c 256
 742 296 805 250 889 250 c 256
 986 250 1051 316 1051 413 c 256
 1051 542 947 585 807 585 c 256
 720 585 651 562 611 516 c 257
 571 565 481 584 387 584 c 256
 300 584 231 573 182 550 c 256
 134 527 110 496 110 456 c 256
 110 399 155 378 217 378 c 258
 370 378 l 258
 485 378 539 329 539 214 c 256
 539 155 531 113 514 86 c 256
 501 64 482 53 458 53 c 256
 422 53 403 75 403 111 c 258
 403 175 l 257
 296 175 l 257
 296 116 l 258
 296 73 276 53 233 53 c 256
 189 53 184 94 184 149 c 256
 184 185 186 209 191 221 c 256
 200 244 218 256 246 256 c 258
 283 256 l 257
 283 316 l 257
 10 316 l 257
 10 256 l 257
 119 256 l 257
 74 238 53 202 53 140 c 256
 53 49 128 0 223 0 c 256
 279 0 322 18 344 51 c 257
899 430 m 256
 933 430 950 402 950 365 c 256
 950 325 936 298 899 298 c 256
 857 298 844 326 844 370 c 256
 844 414 856 430 899 430 c 256
EndSplineSet
Validated: 41
Ligature2: "'abvs' Above Base Substitutions in Telugu lookup 14 subtable" Ca OMatra
EndChar

StartChar: CaOO
Encoding: 70 -1 70
GlifName: C_aO_O_
Width: 1077
VWidth: 0
Flags: W
AnchorPoint: "Anchor-0" 0 0 basechar 0
LayerCount: 2
Back
Fore
SplineSet
344 51 m 257
 366 14 406 0 465 0 c 256
 600 0 666 78 670 213 c 256
 671 271 651 320 614 359 c 256
 572 403 512 425 435 425 c 258
 306 425 l 258
NamedP: "hr00"
 277 425 236 437 236 464 c 256
 236 483 250 497 279 508 c 256
 306 518 345 524 396 524 c 256
 457 524 502 516 530 503 c 256
 559 489 573 468 573 438 c 257
 639 438 l 257
 639 510 721 530 803 530 c 256
 865 530 940 514 940 460 c 257
 923 472 898 474 868 474 c 256
 799 474 738 441 738 374 c 256
 738 296 800 250 883 250 c 256
 980 250 1045 316 1045 413 c 256
 1045 500 964 561 888 578 c 257
 877 587 869 603 869 624 c 256
 869 653 895 668 924 668 c 256
 957 668 978 647 978 615 c 257
 1069 615 l 257
 1069 683 992 711 915 711 c 256
 845 711 771 689 771 625 c 256
 771 610 773 594 780 585 c 257
 704 585 641 553 605 510 c 257
 562 559 482 584 388 584 c 256
 300 584 232 574 183 553 c 256
 134 531 110 501 110 463 c 256
 110 400 157 378 224 378 c 258
 370 378 l 258
 485 378 539 329 539 214 c 256
 539 155 531 113 514 86 c 256
 501 64 482 53 458 53 c 256
 422 53 403 75 403 111 c 258
 403 175 l 257
 296 175 l 257
 296 116 l 258
 296 73 276 53 233 53 c 256
 189 53 184 94 184 149 c 256
 184 185 186 209 191 221 c 256
 200 244 218 256 246 256 c 258
 283 256 l 257
 283 316 l 257
 10 316 l 257
 10 256 l 257
 119 256 l 257
 74 238 53 202 53 140 c 256
 53 49 128 0 223 0 c 256
 279 0 322 18 344 51 c 257
886 430 m 256
 921 430 944 412 944 378 c 256
 944 331 929 298 886 298 c 256
 852 298 838 321 838 358 c 256
 838 403 845 430 886 430 c 256
EndSplineSet
Validated: 41
Ligature2: "'abvs' Above Base Substitutions in Telugu lookup 15 subtable" Ca OOMatra
EndChar

StartChar: CaOttu
Encoding: 71 -1 71
GlifName: C_aO_ttu
Width: 212
VWidth: 0
Flags: W
LayerCount: 2
Back
Fore
SplineSet
197 -187 m 256
 197 -90 136 -14 40 -14 c 258
 -39 -14 l 257
 -39 -62 l 257
 -10 -62 l 258
NamedP: "hr00"
 76 -62 102 -103 102 -193 c 256
 102 -254 94 -319 43 -319 c 256
 17 -319 4 -303 4 -276 c 258
 4 -228 l 257
 -73 -228 l 257
 -73 -272 l 258
 -73 -303 -86 -319 -118 -319 c 256
 -150 -319 -159 -286 -159 -248 c 256
 -159 -199 -153 -167 -110 -167 c 258
 -84 -167 l 257
 -84 -124 l 257
 -286 -124 l 257
 -286 -166 l 257
 -205 -166 l 257
 -238 -182 -254 -207 -254 -255 c 256
 -254 -322 -199 -358 -129 -358 c 256
 -88 -358 -55 -344 -39 -319 c 257
 -22 -345 5 -358 51 -358 c 256
 148 -358 197 -289 197 -187 c 256
EndSplineSet
Validated: 9
Ligature2: "'blwf' Below Base Forms in Telugu lookup 2 subtable" Ca Halanth
Ligature2: "'blwf' Below Base Forms in Telugu lookup 2 subtable" CaNukta Halanth
EndChar

StartChar: CaU
Encoding: 72 -1 72
GlifName: C_aU_
Width: 1037
VWidth: 0
Flags: W
AnchorPoint: "Anchor-3" 0 0 basechar 0
AnchorPoint: "Anchor-0" 0 0 basechar 0
LayerCount: 2
Back
Fore
SplineSet
361 426 m 256
 323 426 299 472 299 512 c 257
 189 512 l 257
 189 465 207 429 243 406 c 256
 268 391 300 383 339 379 c 256
NamedP: "hr00"
 342 378 346 378 350 378 c 258
 370 378 l 258
 485 378 539 329 539 214 c 256
 539 155 531 113 514 86 c 256
 501 64 482 53 458 53 c 256
 422 53 403 75 403 111 c 258
 403 175 l 257
 296 175 l 257
 296 116 l 258
 296 73 276 53 233 53 c 256
 189 53 184 94 184 149 c 256
 184 185 186 209 191 221 c 256
 200 244 218 256 246 256 c 258
 283 256 l 257
 283 316 l 257
 10 316 l 257
 10 256 l 257
 119 256 l 257
 74 238 53 202 53 140 c 256
 53 49 128 0 223 0 c 256
 279 0 322 18 344 51 c 257
 366 14 406 0 465 0 c 256
 539 0 595 24 627 69 c 257
 656 26 718 -1 786 -1 c 256
 915 -1 995 90 995 220 c 256
 995 341 919 425 798 425 c 258
 755 425 l 257
 755 376 l 257
 831 376 864 298 864 215 c 256
 864 133 838 49 766 49 c 256
 719 49 674 81 652 116 c 257
 662 144 669 176 670 213 c 256
 672 318 601 395 510 417 c 257
 538 431 l 258
 592 458 645 503 699 557 c 257
 573 590 l 257
 546 550 512 513 471 480 c 256
 426 444 390 426 361 426 c 256
EndSplineSet
Validated: 41
Ligature2: "'psts' Post Base Substitutions in Telugu lookup 17 subtable" Ca UMatra
EndChar

StartChar: CaUU
Encoding: 73 -1 73
GlifName: C_aU_U_
Width: 1395
VWidth: 0
Flags: W
AnchorPoint: "Anchor-3" 0 0 basechar 0
AnchorPoint: "Anchor-0" 0 0 basechar 0
LayerCount: 2
Back
Fore
SplineSet
361 426 m 256
 323 426 299 472 299 512 c 257
 189 512 l 257
 189 465 207 429 243 406 c 256
 268 391 300 383 339 379 c 256
NamedP: "hr00"
 342 378 346 378 350 378 c 258
 370 378 l 258
 485 378 539 329 539 214 c 256
 539 155 531 113 514 86 c 256
 501 64 482 53 458 53 c 256
 422 53 403 75 403 111 c 258
 403 175 l 257
 296 175 l 257
 296 116 l 258
 296 73 276 53 233 53 c 256
 189 53 184 94 184 149 c 256
 184 185 186 209 191 221 c 256
 200 244 218 256 246 256 c 258
 283 256 l 257
 283 316 l 257
 10 316 l 257
 10 256 l 257
 119 256 l 257
 74 238 53 202 53 140 c 256
 53 49 128 0 223 0 c 256
 279 0 322 18 344 51 c 257
 366 14 406 0 465 0 c 256
 540 0 595 24 628 70 c 257
 657 26 719 -1 788 -1 c 256
 919 -1 1001 89 1001 220 c 256
 1001 283 983 334 954 369 c 257
 1154 369 l 258
 1194 369 1221 364 1235 355 c 256
 1245 349 1252 337 1255 319 c 257
 1239 331 1209 333 1176 333 c 256
 1107 333 1058 286 1058 216 c 256
 1058 145 1128 109 1204 109 c 256
 1303 109 1359 172 1359 271 c 256
 1359 373 1287 425 1181 425 c 258
 754 425 l 257
 754 376 l 257
 788 376 814 366 833 346 c 256
 858 321 870 277 870 215 c 256
 870 126 848 49 768 49 c 256
 719 49 676 81 653 117 c 257
 662 144 669 176 670 213 c 256
 672 318 601 395 510 417 c 257
 538 431 l 258
 592 458 645 503 699 557 c 257
 573 590 l 257
 546 550 512 513 471 480 c 256
 426 444 390 426 361 426 c 256
1208 289 m 256
 1242 289 1258 264 1258 228 c 256
 1258 185 1247 156 1208 156 c 256
 1174 156 1159 179 1159 216 c 256
 1159 263 1166 289 1208 289 c 256
EndSplineSet
Validated: 41
Ligature2: "'psts' Post Base Substitutions in Telugu lookup 17 subtable" Ca UUMatra
EndChar

StartChar: Cacute
Encoding: 74 262 74
GlifName: C_acute
Width: 387
VWidth: 0
Flags: W
LayerCount: 2
Back
Fore
SplineSet
230 653 m 257
 144 519 l 257
 166 494 l 257
 293 580 l 257
 230 653 l 257
382 335 m 257
 373 416 341 469 221 469 c 256
 69 469 25 386 25 230 c 256
 25 74 69 -9 221 -9 c 256
 350 -9 376 56 383 154 c 257
 292 158 l 257
 292 83 277 38 221 38 c 256
 157 38 138 91 138 230 c 256
 138 370 157 422 221 422 c 256
 271 422 287 384 292 321 c 257
 382 335 l 257
EndSplineSet
Validated: 9
EndChar

StartChar: Ccaron
Encoding: 75 268 75
GlifName: C_caron
Width: 387
VWidth: 0
Flags: W
LayerCount: 2
Back
Fore
SplineSet
127 635 m 257
 96 609 l 257
 170 491 l 257
 221 491 l 257
 293 609 l 257
 264 635 l 257
 194 574 l 257
 127 635 l 257
382 335 m 257
 373 416 341 469 221 469 c 256
 69 469 25 386 25 230 c 256
 25 74 69 -9 221 -9 c 256
 350 -9 376 56 383 154 c 257
 292 158 l 257
 292 83 277 38 221 38 c 256
 157 38 138 91 138 230 c 256
 138 370 157 422 221 422 c 256
 271 422 287 384 292 321 c 257
 382 335 l 257
EndSplineSet
Validated: 9
EndChar

StartChar: Ccedilla
Encoding: 76 199 76
GlifName: C_cedilla
Width: 387
VWidth: 0
Flags: W
LayerCount: 2
Back
Fore
SplineSet
292 158 m 257
 292 83 277 38 221 38 c 256
 157 38 138 91 138 230 c 256
 138 370 157 422 221 422 c 256
 271 422 287 384 292 321 c 257
 382 335 l 257
 373 416 341 469 221 469 c 256
 69 469 25 386 25 230 c 256
 25 86 62 5 185 -7 c 257
 172 -56 l 257
 219 -64 228 -79 228 -99 c 256
 228 -111 223 -122 212 -122 c 256
 203 -122 194 -108 194 -85 c 257
 135 -92 l 257
 135 -137 162 -158 213 -158 c 256
 272 -158 292 -123 292 -88 c 256
 292 -50 263 -30 224 -24 c 257
 230 -9 l 257
 351 -6 376 58 383 154 c 257
 292 158 l 257
EndSplineSet
Validated: 9
EndChar

StartChar: Ccircumflex
Encoding: 77 264 77
GlifName: C_circumflex
Width: 387
VWidth: 0
Flags: W
LayerCount: 2
Back
Fore
SplineSet
169 635 m 257
 95 516 l 257
 126 491 l 257
 194 552 l 257
 263 491 l 257
 293 516 l 257
 221 635 l 257
 169 635 l 257
382 335 m 257
 373 416 341 469 221 469 c 256
 69 469 25 386 25 230 c 256
 25 74 69 -9 221 -9 c 256
 350 -9 376 56 383 154 c 257
 292 158 l 257
 292 83 277 38 221 38 c 256
 157 38 138 91 138 230 c 256
 138 370 157 422 221 422 c 256
 271 422 287 384 292 321 c 257
 382 335 l 257
EndSplineSet
Validated: 9
EndChar

StartChar: Cdotaccent
Encoding: 78 266 78
GlifName: C_dotaccent
Width: 387
VWidth: 0
Flags: W
LayerCount: 2
Back
Fore
SplineSet
260 559 m 256
 260 596 231 626 194 626 c 256
 158 626 129 596 129 559 c 256
 129 523 158 493 194 493 c 256
 231 493 260 523 260 559 c 256
  PathStart: -2
382 335 m 257
 373 416 341 469 221 469 c 256
 69 469 25 386 25 230 c 256
 25 74 69 -9 221 -9 c 256
 350 -9 376 56 383 154 c 257
 292 158 l 257
 292 83 277 38 221 38 c 256
 157 38 138 91 138 230 c 256
 138 370 157 422 221 422 c 256
 271 422 287 384 292 321 c 257
 382 335 l 257
EndSplineSet
Validated: 9
EndChar

StartChar: Cha
Encoding: 79 3099 79
GlifName: C_ha
Width: 711
VWidth: 0
Flags: W
AnchorPoint: "Anchor-0" 0 0 basechar 0
LayerCount: 2
Back
Fore
SplineSet
344 51 m 257
 366 14 406 0 465 0 c 256
 600 0 666 78 670 213 c 256
 672 318 601 395 510 417 c 257
 538 431 l 258
NamedP: "hr00"
 592 458 645 503 699 557 c 257
 573 590 l 257
 546 550 512 513 471 480 c 256
 426 444 390 426 361 426 c 256
 323 426 299 472 299 512 c 257
 189 512 l 257
 189 465 207 429 243 406 c 256
 268 391 300 383 339 379 c 256
 342 378 346 378 350 378 c 258
 376 378 l 258
 488 378 539 328 539 214 c 256
 539 155 531 113 514 86 c 256
 501 64 482 53 458 53 c 256
 422 53 403 75 403 111 c 258
 403 175 l 257
 296 175 l 257
 296 116 l 258
 296 73 276 53 233 53 c 256
 189 53 184 94 184 149 c 256
 184 185 186 209 191 221 c 256
 200 244 218 256 246 256 c 258
 283 256 l 257
 283 316 l 257
 10 316 l 257
 10 256 l 257
 119 256 l 257
 74 238 53 202 53 140 c 256
 53 49 128 0 223 0 c 256
 279 0 322 18 344 51 c 257
345 -147 m 256
 391 -147 409 -120 418 -79 c 257
 418 -31 396 -9 348 -9 c 256
 305 -9 286 -40 286 -84 c 256
 286 -126 303 -147 345 -147 c 256
EndSplineSet
Validated: 41
EndChar

StartChar: ChaAA
Encoding: 80 -1 80
GlifName: C_haA_A_
Width: 1081
VWidth: 0
Flags: W
AnchorPoint: "Anchor-0" 0 0 basechar 0
LayerCount: 2
Back
Fore
SplineSet
345 -147 m 256
 391 -147 409 -120 418 -79 c 257
 418 -31 396 -9 348 -9 c 256
 305 -9 286 -40 286 -84 c 256
 286 -126 303 -147 345 -147 c 256
344 51 m 257
 366 14 406 0 465 0 c 256
 600 0 666 78 670 213 c 256
 671 271 654 323 614 359 c 258
 593 378 l 257
 840 378 l 258
 896 378 928 360 941 320 c 257
 923 332 909 334 875 334 c 256
 792 334 738 297 738 218 c 256
 738 141 808 110 890 110 c 256
 989 110 1045 173 1045 273 c 256
 1045 374 973 426 868 426 c 258
 70 426 l 257
 70 378 l 257
 370 378 l 258
 485 378 539 329 539 214 c 256
 539 155 531 113 514 86 c 256
 501 64 482 53 458 53 c 256
 422 53 403 75 403 111 c 258
 403 175 l 257
 296 175 l 257
 296 116 l 258
 296 73 276 53 233 53 c 256
 189 53 184 94 184 149 c 256
 184 185 186 209 191 221 c 256
 200 244 218 256 246 256 c 258
 283 256 l 257
 283 316 l 257
 10 316 l 257
 10 256 l 257
 119 256 l 257
 74 238 53 202 53 140 c 256
 53 49 128 0 223 0 c 256
 279 0 322 18 344 51 c 257
894 290 m 256
 929 290 944 267 944 229 c 256
 944 185 933 158 894 158 c 256
 859 158 839 182 839 218 c 256
 839 263 853 290 894 290 c 256
EndSplineSet
Validated: 41
Ligature2: "'abvs' Above Base Substitutions in Telugu lookup 9 subtable" Cha AAMatra
EndChar

StartChar: ChaAU
Encoding: 81 -1 81
GlifName: C_haA_U_
Width: 1055
VWidth: 0
Flags: W
AnchorPoint: "Anchor-0" 0 0 basechar 0
LayerCount: 2
Back
Fore
SplineSet
345 -147 m 256
 391 -147 409 -120 418 -79 c 257
 418 -31 396 -9 348 -9 c 256
 305 -9 286 -40 286 -84 c 256
 286 -126 303 -147 345 -147 c 256
344 51 m 257
 366 14 406 0 465 0 c 256
 600 0 666 78 670 213 c 256
 671 283 637 351 585 384 c 257
 612 394 631 415 631 448 c 256
 631 471 623 487 606 495 c 257
 844 495 l 258
 886 495 922 481 930 448 c 257
 914 458 885 459 854 459 c 256
 784 459 738 443 738 378 c 256
 738 307 804 278 880 278 c 256
 968 278 1031 321 1031 406 c 256
 1031 495 947 549 854 549 c 258
 125 549 l 257
 125 490 l 257
 491 490 l 258
 512 490 526 480 526 460 c 256
 526 433 514 425 486 425 c 258
 200 425 l 257
 200 378 l 257
 370 378 l 258
 485 378 539 329 539 214 c 256
 539 155 531 113 514 86 c 256
 501 64 482 53 458 53 c 256
 422 53 403 75 403 111 c 258
 403 175 l 257
 296 175 l 257
 296 116 l 258
 296 73 276 53 233 53 c 256
 189 53 184 94 184 149 c 256
 184 185 186 209 191 221 c 256
 200 244 218 256 246 256 c 258
 283 256 l 257
 283 316 l 257
 10 316 l 257
 10 256 l 257
 119 256 l 257
 74 238 53 202 53 140 c 256
 53 49 128 0 223 0 c 256
 279 0 322 18 344 51 c 257
884 423 m 256
 915 423 933 408 933 378 c 256
 933 341 920 318 884 318 c 256
 851 318 836 335 836 365 c 256
 836 405 846 423 884 423 c 256
EndSplineSet
Validated: 41
Ligature2: "'abvs' Above Base Substitutions in Telugu lookup 16 subtable" Cha AuMatra
EndChar

StartChar: ChaE
Encoding: 82 -1 82
GlifName: C_haE_
Width: 711
VWidth: 0
Flags: W
AnchorPoint: "Anchor-1" 0 0 basechar 0
AnchorPoint: "Anchor-0" 0 0 basechar 0
LayerCount: 2
Back
Fore
SplineSet
345 -147 m 256
 391 -147 409 -120 418 -79 c 257
 418 -31 396 -9 348 -9 c 256
 305 -9 286 -40 286 -84 c 256
 286 -126 303 -147 345 -147 c 256
344 51 m 257
 366 14 406 0 465 0 c 256
 600 0 666 78 670 213 c 256
 671 291 631 354 576 390 c 257
 604 407 623 433 623 474 c 256
 623 528 578 565 531 575 c 257
 110 575 l 257
 110 518 l 257
 470 518 l 258
 497 518 510 503 510 474 c 256
 510 450 494 440 474 426 c 257
 211 426 l 257
 211 378 l 257
 370 378 l 258
 485 378 539 329 539 214 c 256
 539 155 531 113 514 86 c 256
 501 64 482 53 458 53 c 256
 422 53 403 75 403 111 c 258
 403 175 l 257
 296 175 l 257
 296 116 l 258
 296 73 276 53 233 53 c 256
 189 53 184 94 184 149 c 256
 184 185 186 209 191 221 c 256
 200 244 218 256 246 256 c 258
 283 256 l 257
 283 316 l 257
 10 316 l 257
 10 256 l 257
 119 256 l 257
 74 238 53 202 53 140 c 256
 53 49 128 0 223 0 c 256
 279 0 322 18 344 51 c 257
EndSplineSet
Validated: 41
PairPos2: "'blwm' Below Base Mark in Telugu lookup 14 subtable" Titvam dx=0 dy=0 dh=18 dv=0 dx=-774 dy=-25 dh=0 dv=0
PairPos2: "'blwm' Below Base Mark in Telugu lookup 0 subtable" tvam dx=0 dy=0 dh=0 dv=0 dx=-830 dy=20 dh=0 dv=0
Ligature2: "'abvs' Above Base Substitutions in Telugu lookup 12 subtable" Cha uni0C46
EndChar

StartChar: ChaEE
Encoding: 83 -1 83
GlifName: C_haE_E_
Width: 711
VWidth: 0
Flags: W
AnchorPoint: "Anchor-0" 0 0 basechar 0
LayerCount: 2
Back
Fore
SplineSet
345 -147 m 256
 391 -147 409 -120 418 -79 c 257
 418 -31 396 -9 348 -9 c 256
 305 -9 286 -40 286 -84 c 256
 286 -126 303 -147 345 -147 c 256
344 51 m 257
 366 14 406 0 465 0 c 256
 600 0 666 78 670 213 c 256
 671 291 630 355 575 391 c 257
 602 407 623 440 623 475 c 256
 623 533 588 575 531 575 c 257
 507 579 499 588 499 616 c 256
 499 650 518 660 554 660 c 256
 586 660 608 639 608 608 c 257
 699 608 l 257
 699 686 634 704 545 704 c 256
 471 704 401 684 401 618 c 256
 401 599 407 585 415 575 c 257
 110 575 l 257
 110 518 l 257
 470 518 l 257
 491 506 510 499 510 475 c 256
 510 449 498 426 474 426 c 258
 211 426 l 257
 211 378 l 257
 370 378 l 258
 485 378 539 329 539 214 c 256
 539 155 531 113 514 86 c 256
 501 64 482 53 458 53 c 256
 422 53 403 75 403 111 c 258
 403 175 l 257
 296 175 l 257
 296 116 l 258
 296 73 276 53 233 53 c 256
 189 53 184 94 184 149 c 256
 184 185 186 209 191 221 c 256
 200 244 218 256 246 256 c 258
 283 256 l 257
 283 316 l 257
 10 316 l 257
 10 256 l 257
 119 256 l 257
 74 238 53 202 53 140 c 256
 53 49 128 0 223 0 c 256
 279 0 322 18 344 51 c 257
EndSplineSet
Validated: 41
Ligature2: "'abvs' Above Base Substitutions in Telugu lookup 13 subtable" Cha EEMatra
EndChar

StartChar: ChaHalanth
Encoding: 84 -1 84
GlifName: C_haH_alanth
Width: 711
VWidth: 0
Flags: W
AnchorPoint: "Anchor-0" 0 0 basechar 0
LayerCount: 2
Back
Fore
SplineSet
344 51 m 257
 366 14 406 0 465 0 c 256
 600 0 666 78 670 213 c 256
 671 271 651 320 614 359 c 256
 572 403 512 425 435 425 c 258
 386 425 l 257
 386 426 l 257
NamedP: "hr00"
 374 426 l 258
 360 426 350 443 350 456 c 256
 350 474 366 486 384 486 c 258
 528 486 l 257
 528 539 l 257
 391 539 l 258
 373 539 354 550 354 568 c 256
 354 586 373 600 391 600 c 258
 704 600 l 257
 704 666 l 257
 339 666 l 258
 286 666 238 630 238 580 c 256
 238 547 257 521 280 509 c 257
 256 503 239 479 239 451 c 256
 239 409 298 378 345 378 c 258
 376 378 l 258
 488 378 539 328 539 214 c 256
 539 155 531 113 514 86 c 256
 501 64 482 53 458 53 c 256
 422 53 403 75 403 111 c 258
 403 175 l 257
 296 175 l 257
 296 116 l 258
 296 73 276 53 233 53 c 256
 189 53 184 94 184 149 c 256
 184 185 186 209 191 221 c 256
 200 244 218 256 246 256 c 258
 283 256 l 257
 283 316 l 257
 10 316 l 257
 10 256 l 257
 119 256 l 257
 74 238 53 202 53 140 c 256
 53 49 128 0 223 0 c 256
 279 0 322 18 344 51 c 257
345 -147 m 256
 391 -147 409 -120 418 -79 c 257
 418 -31 396 -9 348 -9 c 256
 305 -9 286 -40 286 -84 c 256
 286 -126 303 -147 345 -147 c 256
EndSplineSet
Validated: 41
Ligature2: "'haln' Halant Forms in Telugu lookup 19 subtable" Cha Halanth
EndChar

StartChar: ChaI
Encoding: 85 -1 85
GlifName: C_haI_
Width: 726
VWidth: 0
Flags: W
AnchorPoint: "Anchor-0" 0 0 basechar 0
LayerCount: 2
Back
Fore
SplineSet
345 -147 m 256
 391 -147 409 -120 418 -79 c 257
NamedP: "hr00"
 418 -31 396 -9 348 -9 c 256
 305 -9 286 -40 286 -84 c 256
 286 -126 303 -147 345 -147 c 256
451 463 m 257
 524 438 545 357 545 250 c 256
 545 186 537 136 518 100 c 256
 502 69 481 53 458 53 c 256
 422 53 403 75 403 111 c 258
 403 175 l 257
 296 175 l 257
 296 116 l 258
 296 73 276 53 233 53 c 256
 189 53 184 94 184 149 c 256
 184 182 186 204 191 215 c 256
 200 234 219 244 246 244 c 258
 283 244 l 257
 283 304 l 257
 10 304 l 257
 10 244 l 257
 119 244 l 257
 74 224 53 202 53 140 c 256
 53 49 128 0 223 0 c 256
 279 0 322 18 344 51 c 257
 366 14 406 0 465 0 c 256
 598 0 676 102 676 238 c 256
 676 450 572 543 358 543 c 256
 295 543 246 532 209 511 c 256
 174 491 156 465 156 434 c 256
 156 360 236 339 321 339 c 256
 369 339 405 349 428 368 c 256
 448 384 458 404 458 430 c 256
 458 439 456 450 451 463 c 257
339 485 m 256
 374 485 391 477 391 446 c 256
 391 414 371 400 339 400 c 256
 310 400 288 410 288 438 c 256
 288 474 302 485 339 485 c 256
EndSplineSet
Validated: 9
Ligature2: "'abvs' Above Base Substitutions in Telugu lookup 10 subtable" Cha Imatra
EndChar

StartChar: ChaII
Encoding: 86 -1 86
GlifName: C_haI_I_
Width: 725
VWidth: 0
Flags: W
AnchorPoint: "Anchor-0" 0 0 basechar 0
LayerCount: 2
Back
Fore
SplineSet
345 -147 m 256
 391 -147 409 -120 418 -79 c 257
NamedP: "hr00"
 418 -31 396 -9 348 -9 c 256
 305 -9 286 -40 286 -84 c 256
 286 -126 303 -147 345 -147 c 256
339 485 m 256
 374 485 391 477 391 446 c 256
 391 414 371 400 339 400 c 256
 310 400 288 410 288 438 c 256
 288 474 302 485 339 485 c 256
249 598 m 256
 249 567 259 547 279 536 c 257
 238 529 207 517 186 498 c 256
 166 481 156 460 156 434 c 256
 156 360 236 339 321 339 c 256
 369 339 405 349 428 368 c 256
 448 384 458 404 458 430 c 256
 458 439 456 450 451 463 c 257
 524 438 545 357 545 250 c 256
 545 186 537 136 518 100 c 256
 502 69 481 53 458 53 c 256
 422 53 403 75 403 111 c 258
 403 175 l 257
 296 175 l 257
 296 116 l 258
 296 73 276 53 233 53 c 256
 189 53 184 94 184 149 c 256
 184 182 186 204 191 215 c 256
 200 234 219 244 246 244 c 258
 283 244 l 257
 283 304 l 257
 10 304 l 257
 10 244 l 257
 119 244 l 257
 74 224 53 202 53 140 c 256
 53 49 128 0 223 0 c 256
 279 0 322 18 344 51 c 257
 366 14 406 0 465 0 c 256
 598 0 676 102 676 238 c 256
 676 443 580 535 380 541 c 257
 363 551 346 571 346 596 c 256
 346 630 365 640 401 640 c 256
 434 640 455 620 455 588 c 257
 546 588 l 257
 546 594 l 258
 546 667 477 684 393 684 c 256
 319 684 249 664 249 598 c 256
EndSplineSet
Validated: 9
Ligature2: "'abvs' Above Base Substitutions in Telugu lookup 11 subtable" Cha IIMatra
EndChar

StartChar: ChaO
Encoding: 87 -1 87
GlifName: C_haO_
Width: 1070
VWidth: 0
Flags: W
AnchorPoint: "Anchor-0" 0 0 basechar 0
LayerCount: 2
Back
Fore
SplineSet
345 -147 m 256
 391 -147 409 -120 418 -79 c 257
 418 -31 396 -9 348 -9 c 256
 305 -9 286 -40 286 -84 c 256
 286 -126 303 -147 345 -147 c 256
344 51 m 257
 366 14 406 0 465 0 c 256
 600 0 666 78 670 213 c 256
 671 271 651 320 614 359 c 256
 572 403 512 425 435 425 c 258
 306 425 l 258
 276 425 236 437 236 464 c 256
 236 483 250 497 279 508 c 256
 306 518 345 524 396 524 c 256
 459 524 505 517 535 503 c 256
 564 490 579 468 579 438 c 257
 645 438 l 257
 645 510 727 530 809 530 c 256
 871 530 946 514 946 460 c 257
 929 472 904 474 874 474 c 256
 804 474 742 442 742 378 c 256
 742 296 805 250 889 250 c 256
 986 250 1051 316 1051 413 c 256
 1051 542 947 585 807 585 c 256
 720 585 651 562 611 516 c 257
 571 565 481 584 387 584 c 256
 300 584 231 573 182 550 c 256
 134 527 110 496 110 456 c 256
 110 399 155 378 217 378 c 258
 370 378 l 258
 485 378 539 329 539 214 c 256
 539 155 531 113 514 86 c 256
 501 64 482 53 458 53 c 256
 422 53 403 75 403 111 c 258
 403 175 l 257
 296 175 l 257
 296 116 l 258
 296 73 276 53 233 53 c 256
 189 53 184 94 184 149 c 256
 184 185 186 209 191 221 c 256
 200 244 218 256 246 256 c 258
 283 256 l 257
 283 316 l 257
 10 316 l 257
 10 256 l 257
 119 256 l 257
 74 238 53 202 53 140 c 256
 53 49 128 0 223 0 c 256
 279 0 322 18 344 51 c 257
899 430 m 256
 933 430 950 402 950 365 c 256
 950 325 936 298 899 298 c 256
 857 298 844 326 844 370 c 256
 844 414 856 430 899 430 c 256
EndSplineSet
Validated: 41
Ligature2: "'abvs' Above Base Substitutions in Telugu lookup 14 subtable" Cha OMatra
EndChar

StartChar: ChaOO
Encoding: 88 -1 88
GlifName: C_haO_O_
Width: 1077
VWidth: 0
Flags: W
AnchorPoint: "Anchor-0" 0 0 basechar 0
LayerCount: 2
Back
Fore
SplineSet
345 -147 m 256
 391 -147 409 -120 418 -79 c 257
 418 -31 396 -9 348 -9 c 256
 305 -9 286 -40 286 -84 c 256
 286 -126 303 -147 345 -147 c 256
344 51 m 257
 366 14 406 0 465 0 c 256
 600 0 666 78 670 213 c 256
 671 271 651 320 614 359 c 256
 572 403 512 425 435 425 c 258
 306 425 l 258
 277 425 236 437 236 464 c 256
 236 483 250 497 279 508 c 256
 306 518 345 524 396 524 c 256
 457 524 502 516 530 503 c 256
 559 489 573 468 573 438 c 257
 639 438 l 257
 639 510 721 530 803 530 c 256
 865 530 940 514 940 460 c 257
 923 472 898 474 868 474 c 256
 799 474 738 441 738 374 c 256
 738 296 800 250 883 250 c 256
 980 250 1045 316 1045 413 c 256
 1045 500 964 561 888 578 c 257
 877 587 869 603 869 624 c 256
 869 653 895 668 924 668 c 256
 957 668 978 647 978 615 c 257
 1069 615 l 257
 1069 683 992 711 915 711 c 256
 845 711 771 689 771 625 c 256
 771 610 773 594 780 585 c 257
 704 585 641 553 605 510 c 257
 562 559 482 584 388 584 c 256
 300 584 232 574 183 553 c 256
 134 531 110 501 110 463 c 256
 110 400 157 378 224 378 c 258
 370 378 l 258
 485 378 539 329 539 214 c 256
 539 155 531 113 514 86 c 256
 501 64 482 53 458 53 c 256
 422 53 403 75 403 111 c 258
 403 175 l 257
 296 175 l 257
 296 116 l 258
 296 73 276 53 233 53 c 256
 189 53 184 94 184 149 c 256
 184 185 186 209 191 221 c 256
 200 244 218 256 246 256 c 258
 283 256 l 257
 283 316 l 257
 10 316 l 257
 10 256 l 257
 119 256 l 257
 74 238 53 202 53 140 c 256
 53 49 128 0 223 0 c 256
 279 0 322 18 344 51 c 257
886 430 m 256
 921 430 944 412 944 378 c 256
 944 331 929 298 886 298 c 256
 852 298 838 321 838 358 c 256
 838 403 845 430 886 430 c 256
EndSplineSet
Validated: 41
Ligature2: "'abvs' Above Base Substitutions in Telugu lookup 15 subtable" Cha OOMatra
EndChar

StartChar: ChaOttu
Encoding: 89 -1 89
GlifName: C_haO_ttu
Width: 212
VWidth: 0
Flags: W
LayerCount: 2
Back
Fore
SplineSet
-34 -468 m 256
 0 -468 10 -450 10 -417 c 256
NamedP: "hr00"
 10 -381 2 -365 -33 -365 c 256
 -67 -365 -77 -383 -77 -421 c 256
 -77 -454 -67 -468 -34 -468 c 256
197 -187 m 256
 197 -90 136 -14 40 -14 c 258
 -39 -14 l 257
 -39 -62 l 257
 -10 -62 l 258
 76 -62 102 -103 102 -193 c 256
 102 -254 94 -319 43 -319 c 256
 17 -319 4 -303 4 -276 c 258
 4 -228 l 257
 -73 -228 l 257
 -73 -272 l 258
 -73 -303 -86 -319 -118 -319 c 256
 -150 -319 -159 -286 -159 -248 c 256
 -159 -199 -153 -167 -110 -167 c 258
 -84 -167 l 257
 -84 -124 l 257
 -286 -124 l 257
 -286 -166 l 257
 -205 -166 l 257
 -238 -182 -254 -207 -254 -255 c 256
 -254 -322 -199 -358 -129 -358 c 256
 -88 -358 -55 -344 -39 -319 c 257
 -22 -345 5 -358 51 -358 c 256
 148 -358 197 -289 197 -187 c 256
EndSplineSet
Validated: 9
Ligature2: "'blwf' Below Base Forms in Telugu lookup 2 subtable" Cha Halanth
EndChar

StartChar: ChaU
Encoding: 90 -1 90
GlifName: C_haU_
Width: 1037
VWidth: 0
Flags: W
AnchorPoint: "Anchor-3" 0 0 basechar 0
AnchorPoint: "Anchor-0" 0 0 basechar 0
LayerCount: 2
Back
Fore
SplineSet
345 -147 m 256
 391 -147 409 -120 418 -79 c 257
 418 -31 396 -9 348 -9 c 256
 305 -9 286 -40 286 -84 c 256
 286 -126 303 -147 345 -147 c 256
361 426 m 256
 323 426 299 472 299 512 c 257
 189 512 l 257
 189 465 207 429 243 406 c 256
 268 391 300 383 339 379 c 256
 342 378 346 378 350 378 c 258
 370 378 l 258
 485 378 539 329 539 214 c 256
 539 155 531 113 514 86 c 256
 501 64 482 53 458 53 c 256
 422 53 403 75 403 111 c 258
 403 175 l 257
 296 175 l 257
 296 116 l 258
 296 73 276 53 233 53 c 256
 189 53 184 94 184 149 c 256
 184 185 186 209 191 221 c 256
 200 244 218 256 246 256 c 258
 283 256 l 257
 283 316 l 257
 10 316 l 257
 10 256 l 257
 119 256 l 257
 74 238 53 202 53 140 c 256
 53 49 128 0 223 0 c 256
 279 0 322 18 344 51 c 257
 366 14 406 0 465 0 c 256
 539 0 595 24 627 69 c 257
 656 26 718 -1 786 -1 c 256
 915 -1 995 90 995 220 c 256
 995 341 919 425 798 425 c 258
 755 425 l 257
 755 376 l 257
 831 376 864 298 864 215 c 256
 864 133 838 49 766 49 c 256
 719 49 674 81 652 116 c 257
 662 144 669 176 670 213 c 256
 672 318 601 395 510 417 c 257
 538 431 l 258
 592 458 645 503 699 557 c 257
 573 590 l 257
 546 550 512 513 471 480 c 256
 426 444 390 426 361 426 c 256
EndSplineSet
Validated: 41
Ligature2: "'psts' Post Base Substitutions in Telugu lookup 17 subtable" Cha UMatra
EndChar

StartChar: ChaUU
Encoding: 91 -1 91
GlifName: C_haU_U_
Width: 1395
VWidth: 0
Flags: W
AnchorPoint: "Anchor-3" 0 0 basechar 0
AnchorPoint: "Anchor-0" 0 0 basechar 0
LayerCount: 2
Back
Fore
SplineSet
345 -147 m 256
 391 -147 409 -120 418 -79 c 257
 418 -31 396 -9 348 -9 c 256
 305 -9 286 -40 286 -84 c 256
 286 -126 303 -147 345 -147 c 256
361 426 m 256
 323 426 299 472 299 512 c 257
 189 512 l 257
 189 465 207 429 243 406 c 256
 268 391 300 383 339 379 c 256
 342 378 346 378 350 378 c 258
 370 378 l 258
 485 378 539 329 539 214 c 256
 539 155 531 113 514 86 c 256
 501 64 482 53 458 53 c 256
 422 53 403 75 403 111 c 258
 403 175 l 257
 296 175 l 257
 296 116 l 258
 296 73 276 53 233 53 c 256
 189 53 184 94 184 149 c 256
 184 185 186 209 191 221 c 256
 200 244 218 256 246 256 c 258
 283 256 l 257
 283 316 l 257
 10 316 l 257
 10 256 l 257
 119 256 l 257
 74 238 53 202 53 140 c 256
 53 49 128 0 223 0 c 256
 279 0 322 18 344 51 c 257
 366 14 406 0 465 0 c 256
 540 0 595 24 628 70 c 257
 657 26 719 -1 788 -1 c 256
 919 -1 1001 89 1001 220 c 256
 1001 283 983 334 954 369 c 257
 1154 369 l 258
 1194 369 1221 364 1235 355 c 256
 1245 349 1252 337 1255 319 c 257
 1239 331 1209 333 1176 333 c 256
 1107 333 1058 286 1058 216 c 256
 1058 145 1128 109 1204 109 c 256
 1303 109 1359 172 1359 271 c 256
 1359 373 1287 425 1181 425 c 258
 754 425 l 257
 754 376 l 257
 788 376 814 366 833 346 c 256
 858 321 870 277 870 215 c 256
 870 126 848 49 768 49 c 256
 719 49 676 81 653 117 c 257
 662 144 669 176 670 213 c 256
 672 318 601 395 510 417 c 257
 538 431 l 258
 592 458 645 503 699 557 c 257
 573 590 l 257
 546 550 512 513 471 480 c 256
 426 444 390 426 361 426 c 256
1208 289 m 256
 1242 289 1258 264 1258 228 c 256
 1258 185 1247 156 1208 156 c 256
 1174 156 1159 179 1159 216 c 256
 1159 263 1166 289 1208 289 c 256
EndSplineSet
Validated: 41
Ligature2: "'psts' Post Base Substitutions in Telugu lookup 17 subtable" Cha UUMatra
EndChar

StartChar: D
Encoding: 92 68 92
GlifName: D_
Width: 440
VWidth: 0
Flags: W
LayerCount: 2
Back
Fore
SplineSet
52 460 m 257
 52 0 l 257
 218 0 l 258
 377 0 409 101 409 230 c 256
 409 358 377 460 218 460 c 258
 52 460 l 257
165 41 m 257
 165 419 l 257
 200 419 l 258
 279 419 295 332 295 230 c 256
 295 128 279 41 200 41 c 258
 165 41 l 257
EndSplineSet
Validated: 9
EndChar

StartChar: DDa
Encoding: 93 3105 93
GlifName: D_D_a
Width: 695
VWidth: 0
Flags: W
AnchorPoint: "Anchor-0" 0 0 basechar 0
LayerCount: 2
Back
Fore
SplineSet
594 320 m 257
 583 370 537 402 474 416 c 257
 500 430 l 258
NamedP: "hr00"
 554 459 607 502 661 556 c 257
 535 589 l 257
 496 532 419 450 348 429 c 257
 305 429 l 257
 278 441 261 475 261 511 c 257
 151 511 l 257
 151 471 164 439 190 416 c 257
 77 392 10 329 10 199 c 256
 10 68 73 0 203 0 c 256
 255 0 304 23 329 51 c 257
 343 18 396 0 446 0 c 256
 545 0 628 56 639 144 c 257
 639 258 589 303 474 303 c 256
 405 303 348 289 348 229 c 256
 348 176 388 158 444 158 c 256
 476 158 505 165 520 180 c 257
 520 130 l 258
 520 83 490 51 444 51 c 256
 387 51 369 83 369 144 c 257
 283 144 l 257
 283 91 262 51 213 51 c 256
 150 51 141 113 141 189 c 256
 141 333 186 378 331 378 c 256
 389 378 461 362 470 320 c 257
 594 320 l 257
471 270 m 256
 495 270 508 259 508 238 c 256
 508 215 495 199 471 199 c 256
 451 199 438 212 438 231 c 256
 438 256 446 270 471 270 c 256
EndSplineSet
Validated: 9
EndChar

StartChar: DDaAA
Encoding: 94 -1 94
GlifName: D_D_aA_A_
Width: 1070
VWidth: 0
Flags: W
AnchorPoint: "Anchor-0" 0 0 basechar 0
LayerCount: 2
Back
Fore
SplineSet
331 378 m 256
 389 378 461 362 470 320 c 257
 594 320 l 257
 589 343 577 363 559 378 c 257
 803 378 l 258
NamedP: "hr00"
 854 378 885 362 900 329 c 258
 904 320 l 257
 886 332 871 334 838 334 c 256
 755 334 700 296 700 218 c 256
 700 142 770 110 853 110 c 256
 952 110 1008 173 1008 273 c 256
 1008 374 935 426 830 426 c 258
 408 426 l 258
 385 426 359 429 331 429 c 256
 304 429 280 426 257 426 c 258
 33 426 l 257
 33 378 l 257
 91 378 l 257
 37 341 10 282 10 199 c 256
 10 68 73 0 203 0 c 256
 255 0 304 23 329 51 c 257
 343 18 396 0 446 0 c 256
 545 0 628 56 639 144 c 257
 639 258 589 303 474 303 c 256
 405 303 348 289 348 229 c 256
 348 176 388 158 444 158 c 256
 476 158 505 165 520 180 c 257
 520 130 l 258
 520 83 490 51 444 51 c 256
 387 51 369 83 369 144 c 257
 283 144 l 257
 283 91 262 51 213 51 c 256
 150 51 141 113 141 189 c 256
 141 333 186 378 331 378 c 256
856 290 m 256
 892 290 906 267 906 229 c 256
 906 185 896 158 856 158 c 256
 821 158 801 182 801 218 c 256
 801 262 815 290 856 290 c 256
471 270 m 256
 495 270 508 259 508 238 c 256
 508 215 495 199 471 199 c 256
 451 199 438 212 438 231 c 256
 438 256 446 270 471 270 c 256
EndSplineSet
Validated: 9
Ligature2: "'abvs' Above Base Substitutions in Telugu lookup 9 subtable" DDa AAMatra
EndChar

StartChar: DDaAU
Encoding: 95 -1 95
GlifName: D_D_aA_U_
Width: 1038
VWidth: 0
Flags: W
AnchorPoint: "Anchor-0" 0 0 basechar 0
LayerCount: 2
Back
Fore
SplineSet
141 189 m 256
 141 333 186 378 331 378 c 256
NamedP: "hr00"
 389 378 461 362 470 320 c 257
 594 320 l 257
 588 347 573 368 550 385 c 257
 576 396 594 416 594 448 c 256
 594 472 585 487 569 495 c 257
 806 495 l 258
 848 495 885 481 893 448 c 257
 875 458 848 459 816 459 c 256
 745 459 700 442 700 378 c 256
 700 307 767 278 843 278 c 256
 930 278 994 322 994 406 c 256
 994 496 910 549 816 549 c 258
 88 549 l 257
 88 490 l 257
 454 490 l 258
 474 490 489 479 489 460 c 256
 489 434 477 425 449 425 c 258
 419 425 l 257
 393 428 364 429 331 429 c 256
 300 429 272 428 247 425 c 257
 163 425 l 257
 163 410 l 257
 66 384 10 315 10 199 c 256
 10 68 73 0 203 0 c 256
 255 0 304 23 329 51 c 257
 343 18 396 0 446 0 c 256
 545 0 628 56 639 144 c 257
 639 258 589 303 474 303 c 256
 405 303 348 289 348 229 c 256
 348 176 388 158 444 158 c 256
 476 158 505 165 520 180 c 257
 520 130 l 258
 520 83 490 51 444 51 c 256
 387 51 369 83 369 144 c 257
 283 144 l 257
 283 91 262 51 213 51 c 256
 150 51 141 113 141 189 c 256
846 423 m 256
 878 423 895 409 895 378 c 256
 895 340 882 318 846 318 c 256
 813 318 799 334 799 365 c 256
 799 404 809 423 846 423 c 256
471 270 m 256
 495 270 508 259 508 238 c 256
 508 215 495 199 471 199 c 256
 451 199 438 212 438 231 c 256
 438 256 446 270 471 270 c 256
EndSplineSet
Validated: 9
Ligature2: "'abvs' Above Base Substitutions in Telugu lookup 16 subtable" DDa AuMatra
EndChar

StartChar: DDaE
Encoding: 96 -1 96
GlifName: D_D_aE_
Width: 695
VWidth: 0
Flags: W
AnchorPoint: "Anchor-1" 0 0 basechar 0
AnchorPoint: "Anchor-0" 0 0 basechar 0
LayerCount: 2
Back
Fore
SplineSet
141 189 m 256
 141 333 186 378 331 378 c 256
NamedP: "hr00"
 389 378 461 362 470 320 c 257
 594 320 l 257
 587 350 570 374 541 391 c 257
 554 400 l 258
 576 415 585 442 585 474 c 256
 585 528 540 565 494 575 c 257
 31 575 l 257
 31 518 l 257
 433 518 l 258
 459 518 473 502 473 474 c 256
 473 450 456 440 436 426 c 257
 408 426 l 258
 385 426 359 429 331 429 c 256
 304 429 280 426 257 426 c 258
 201 426 l 257
 201 419 l 257
 82 397 10 333 10 199 c 256
 10 68 73 0 203 0 c 256
 255 0 304 23 329 51 c 257
 343 18 396 0 446 0 c 256
 545 0 628 56 639 144 c 257
 639 258 589 303 474 303 c 256
 405 303 348 289 348 229 c 256
 348 176 388 158 444 158 c 256
 476 158 505 165 520 180 c 257
 520 130 l 258
 520 83 490 51 444 51 c 256
 387 51 369 83 369 144 c 257
 283 144 l 257
 283 91 262 51 213 51 c 256
 150 51 141 113 141 189 c 256
471 270 m 256
 495 270 508 259 508 238 c 256
 508 215 495 199 471 199 c 256
 451 199 438 212 438 231 c 256
 438 256 446 270 471 270 c 256
EndSplineSet
Validated: 9
PairPos2: "'blwm' Below Base Mark in Telugu lookup 14 subtable" Titvam dx=0 dy=0 dh=18 dv=0 dx=-774 dy=-25 dh=0 dv=0
PairPos2: "'blwm' Below Base Mark in Telugu lookup 0 subtable" tvam dx=0 dy=0 dh=0 dv=0 dx=-830 dy=20 dh=0 dv=0
Ligature2: "'abvs' Above Base Substitutions in Telugu lookup 12 subtable" DDa uni0C46
EndChar

StartChar: DDaEE
Encoding: 97 -1 97
GlifName: D_D_aE_E_
Width: 695
VWidth: 0
Flags: W
AnchorPoint: "Anchor-0" 0 0 basechar 0
LayerCount: 2
Back
Fore
SplineSet
141 189 m 256
 141 333 186 378 331 378 c 256
NamedP: "hr00"
 389 378 461 362 470 320 c 257
 594 320 l 257
 587 351 569 375 539 392 c 257
 565 409 585 440 585 475 c 256
 585 532 551 575 494 575 c 257
 469 579 461 588 461 616 c 256
 461 650 480 660 516 660 c 256
 549 660 570 640 570 608 c 257
 661 608 l 257
 661 686 596 704 508 704 c 256
 434 704 364 684 364 618 c 256
 364 599 368 585 378 575 c 257
 25 575 l 257
 25 518 l 257
 433 518 l 257
 447 510 456 504 461 499 c 256
 469 492 473 484 473 475 c 256
 473 449 460 426 436 426 c 258
 408 426 l 258
 385 426 359 429 331 429 c 256
 305 429 280 426 257 426 c 258
 189 426 l 257
 189 416 l 257
 152 408 121 397 96 381 c 256
 39 345 10 284 10 199 c 256
 10 68 73 0 203 0 c 256
 255 0 304 23 329 51 c 257
 343 18 396 0 446 0 c 256
 545 0 628 56 639 144 c 257
 639 258 589 303 474 303 c 256
 405 303 348 289 348 229 c 256
 348 176 388 158 444 158 c 256
 476 158 505 165 520 180 c 257
 520 130 l 258
 520 83 490 51 444 51 c 256
 387 51 369 83 369 144 c 257
 283 144 l 257
 283 91 262 51 213 51 c 256
 150 51 141 113 141 189 c 256
471 270 m 256
 495 270 508 259 508 238 c 256
 508 215 495 199 471 199 c 256
 451 199 438 212 438 231 c 256
 438 256 446 270 471 270 c 256
EndSplineSet
Validated: 9
Ligature2: "'abvs' Above Base Substitutions in Telugu lookup 13 subtable" DDa EEMatra
EndChar

StartChar: DDaHalanth
Encoding: 98 -1 98
GlifName: D_D_aH_alanth
Width: 695
VWidth: 0
Flags: W
AnchorPoint: "Anchor-0" 0 0 basechar 0
LayerCount: 2
Back
Fore
SplineSet
141 189 m 256
 141 333 186 378 331 378 c 256
NamedP: "hr00"
 389 378 461 362 470 320 c 257
 594 320 l 257
 575 411 459 429 331 429 c 256
 311 429 292 428 274 427 c 257
 258 429 244 443 244 458 c 256
 244 475 267 484 284 484 c 258
 479 484 l 257
 479 536 l 257
 281 536 l 258
 263 536 244 548 244 565 c 256
 244 585 269 598 290 598 c 258
 620 598 l 257
 620 655 l 257
 208 655 l 258
 159 655 115 619 115 573 c 256
 115 541 136 516 158 504 c 257
 131 502 111 475 111 446 c 256
 111 428 118 412 133 399 c 257
 53 370 10 300 10 199 c 256
 10 68 73 0 203 0 c 256
 255 0 304 23 329 51 c 257
 343 18 396 0 446 0 c 256
 545 0 628 56 639 144 c 257
 639 258 589 303 474 303 c 256
 405 303 348 289 348 229 c 256
 348 176 388 158 444 158 c 256
 476 158 505 165 520 180 c 257
 520 130 l 258
 520 83 490 51 444 51 c 256
 387 51 369 83 369 144 c 257
 283 144 l 257
 283 91 262 51 213 51 c 256
 150 51 141 113 141 189 c 256
471 270 m 256
 495 270 508 259 508 238 c 256
 508 215 495 199 471 199 c 256
 451 199 438 212 438 231 c 256
 438 256 446 270 471 270 c 256
EndSplineSet
Validated: 9
Ligature2: "'haln' Halant Forms in Telugu lookup 19 subtable" DDa Halanth
EndChar

StartChar: DDaI
Encoding: 99 -1 99
GlifName: D_D_aI_
Width: 695
VWidth: 0
Flags: W
AnchorPoint: "Anchor-0" 0 0 basechar 0
LayerCount: 2
Back
Fore
SplineSet
594 320 m 257
 584 366 547 393 491 412 c 257
NamedP: "hr00"
 538 436 561 470 561 514 c 256
 561 599 448 625 349 625 c 256
 257 625 159 612 159 536 c 256
 159 487 230 463 284 463 c 256
 337 463 410 482 410 529 c 256
 410 553 401 566 385 575 c 257
 423 575 463 550 463 515 c 256
 463 480 444 455 406 439 c 256
 395 434 384 431 373 428 c 257
 360 429 346 429 331 429 c 256
 310 429 291 428 272 427 c 257
 252 430 231 436 210 443 c 257
 210 420 l 257
 163 412 125 399 96 381 c 256
 39 344 10 284 10 199 c 256
 10 68 73 0 203 0 c 256
 255 0 304 23 329 51 c 257
 343 18 396 0 446 0 c 256
 545 0 628 56 639 144 c 257
 639 258 589 303 474 303 c 256
 405 303 348 289 348 229 c 256
 348 176 388 158 444 158 c 256
 476 158 505 165 520 180 c 257
 520 130 l 258
 520 83 490 51 444 51 c 256
 387 51 369 83 369 144 c 257
 283 144 l 257
 283 91 262 51 213 51 c 256
 150 51 141 113 141 189 c 256
 141 333 186 378 331 378 c 256
 389 378 461 362 470 320 c 257
 594 320 l 257
310 579 m 256
 333 579 347 568 349 546 c 257
 349 520 334 509 306 509 c 256
 281 509 265 521 265 545 c 256
 265 570 285 579 310 579 c 256
471 270 m 256
 495 270 508 259 508 238 c 256
 508 215 495 199 471 199 c 256
 451 199 438 212 438 231 c 256
 438 256 446 270 471 270 c 256
EndSplineSet
Validated: 9
Ligature2: "'abvs' Above Base Substitutions in Telugu lookup 10 subtable" DDa Imatra
EndChar

StartChar: DDaII
Encoding: 100 -1 100
GlifName: D_D_aI_I_
Width: 695
VWidth: 0
Flags: W
AnchorPoint: "Anchor-0" 0 0 basechar 0
LayerCount: 2
Back
Fore
SplineSet
594 320 m 257
 584 366 547 393 491 412 c 257
NamedP: "hr00"
 538 436 561 470 561 514 c 256
 561 596 459 620 368 625 c 256
 341 625 329 642 329 668 c 256
 329 701 348 711 384 711 c 256
 416 711 438 690 438 659 c 257
 529 659 l 257
 529 665 l 258
 529 739 461 755 375 755 c 256
 300 755 231 736 231 669 c 256
 231 642 239 626 259 618 c 257
 207 610 159 589 159 536 c 256
 159 487 230 463 284 463 c 256
 337 463 410 482 410 529 c 256
 410 553 401 566 385 575 c 257
 423 575 463 550 463 515 c 256
 463 480 444 455 406 439 c 256
 395 434 384 431 373 428 c 257
 360 429 346 429 331 429 c 256
 310 429 291 428 272 427 c 257
 252 430 231 436 210 443 c 257
 210 420 l 257
 163 412 125 399 96 381 c 256
 39 344 10 284 10 199 c 256
 10 68 73 0 203 0 c 256
 255 0 304 23 329 51 c 257
 343 18 396 0 446 0 c 256
 545 0 628 56 639 144 c 257
 639 258 589 303 474 303 c 256
 405 303 348 289 348 229 c 256
 348 176 388 158 444 158 c 256
 476 158 505 165 520 180 c 257
 520 130 l 258
 520 83 490 51 444 51 c 256
 387 51 369 83 369 144 c 257
 283 144 l 257
 283 91 262 51 213 51 c 256
 150 51 141 113 141 189 c 256
 141 333 186 378 331 378 c 256
 389 378 461 362 470 320 c 257
 594 320 l 257
310 579 m 256
 333 579 347 568 349 546 c 257
 349 520 334 509 306 509 c 256
 281 509 265 521 265 545 c 256
 265 570 285 579 310 579 c 256
471 270 m 256
 495 270 508 259 508 238 c 256
 508 215 495 199 471 199 c 256
 451 199 438 212 438 231 c 256
 438 256 446 270 471 270 c 256
EndSplineSet
Validated: 9
Ligature2: "'abvs' Above Base Substitutions in Telugu lookup 11 subtable" DDa IIMatra
EndChar

StartChar: DDaO
Encoding: 101 -1 101
GlifName: D_D_aO_
Width: 1053
VWidth: 0
Flags: W
AnchorPoint: "Anchor-0" 0 0 basechar 0
LayerCount: 2
Back
Fore
SplineSet
141 189 m 256
 141 333 186 378 331 378 c 256
NamedP: "hr00"
 389 378 461 362 470 320 c 257
 594 320 l 257
 575 411 459 429 331 429 c 256
 302 429 276 428 251 425 c 257
 226 427 193 441 193 464 c 256
 193 483 207 497 235 508 c 256
 262 518 302 524 353 524 c 256
 415 524 461 517 491 503 c 256
 520 490 535 468 535 438 c 257
 601 438 l 257
 601 509 684 530 765 530 c 256
 828 530 903 513 903 460 c 257
 884 472 863 474 830 474 c 256
 760 474 699 443 699 378 c 256
 699 297 762 250 845 250 c 256
 942 250 1008 316 1008 413 c 256
 1008 541 903 585 764 585 c 256
 678 585 606 562 568 516 c 257
 526 565 439 584 344 584 c 256
 257 584 188 573 139 550 c 256
 90 527 66 496 66 456 c 256
 66 431 75 411 94 398 c 257
 110 389 l 257
 96 381 l 258
 37 347 10 284 10 199 c 256
 10 68 73 0 203 0 c 256
 255 0 304 23 329 51 c 257
 343 18 396 0 446 0 c 256
 545 0 628 56 639 144 c 257
 639 258 589 303 474 303 c 256
 405 303 348 289 348 229 c 256
 348 176 388 158 444 158 c 256
 476 158 505 165 520 180 c 257
 520 130 l 258
 520 83 490 51 444 51 c 256
 387 51 369 83 369 144 c 257
 283 144 l 257
 283 91 262 51 213 51 c 256
 150 51 141 113 141 189 c 256
855 430 m 256
 891 430 906 403 906 365 c 256
 906 324 893 298 855 298 c 256
 815 298 800 327 800 370 c 256
 800 393 804 408 813 416 c 257
 820 425 834 430 855 430 c 256
471 270 m 256
 495 270 508 259 508 238 c 256
 508 215 495 199 471 199 c 256
 451 199 438 212 438 231 c 256
 438 256 446 270 471 270 c 256
EndSplineSet
Validated: 9
Ligature2: "'abvs' Above Base Substitutions in Telugu lookup 14 subtable" DDa OMatra
EndChar

StartChar: DDaOO
Encoding: 102 -1 102
GlifName: D_D_aO_O_
Width: 1061
VWidth: 0
Flags: W
AnchorPoint: "Anchor-0" 0 0 basechar 0
LayerCount: 2
Back
Fore
SplineSet
141 189 m 256
 141 333 186 378 331 378 c 256
NamedP: "hr00"
 389 378 461 362 470 320 c 257
 594 320 l 257
 575 411 459 429 331 429 c 256
 304 429 278 428 254 426 c 257
 229 428 199 442 199 464 c 256
 199 483 213 498 241 508 c 256
 269 519 308 524 359 524 c 256
 420 524 464 517 493 503 c 256
 521 490 535 468 535 438 c 257
 601 438 l 257
 601 509 684 530 765 530 c 256
 828 530 903 513 903 460 c 257
 884 472 863 474 830 474 c 256
 761 474 700 441 700 374 c 256
 700 296 763 250 845 250 c 256
 942 250 1008 316 1008 413 c 256
 1008 500 927 561 850 578 c 257
 839 587 831 603 831 624 c 256
 831 653 857 668 886 668 c 256
 919 668 940 647 940 615 c 257
 1031 615 l 257
 1031 684 955 711 878 711 c 256
 808 711 734 689 734 625 c 256
 734 608 737 594 743 585 c 257
 667 585 604 553 568 510 c 257
 525 559 444 584 350 584 c 256
 263 584 194 575 145 553 c 256
 97 532 73 501 73 463 c 256
 73 434 81 411 101 399 c 258
 114 391 l 257
 96 381 l 258
 37 348 10 284 10 199 c 256
 10 68 73 0 203 0 c 256
 255 0 304 23 329 51 c 257
 343 18 396 0 446 0 c 256
 545 0 628 56 639 144 c 257
 639 258 589 303 474 303 c 256
 405 303 348 289 348 229 c 256
 348 176 388 158 444 158 c 256
 476 158 505 165 520 180 c 257
 520 130 l 258
 520 83 490 51 444 51 c 256
 387 51 369 83 369 144 c 257
 283 144 l 257
 283 91 262 51 213 51 c 256
 150 51 141 113 141 189 c 256
849 430 m 256
 883 430 906 412 906 378 c 256
 906 332 892 298 849 298 c 256
 814 298 800 322 800 358 c 256
 800 404 807 430 849 430 c 256
471 270 m 256
 495 270 508 259 508 238 c 256
 508 215 495 199 471 199 c 256
 451 199 438 212 438 231 c 256
 438 256 446 270 471 270 c 256
EndSplineSet
Validated: 9
Ligature2: "'abvs' Above Base Substitutions in Telugu lookup 15 subtable" DDa OOMatra
EndChar

StartChar: DDaOttu
Encoding: 103 -1 103
GlifName: D_D_aO_ttu
Width: 35
VWidth: 0
Flags: W
AnchorPoint: "Anchor-0" -47 30 mark 0
LayerCount: 2
Back
Fore
SplineSet
387 -197 m 256
 401 -197 412 -204 412 -219 c 256
NamedP: "hr00"
 412 -235 403 -246 387 -246 c 256
 375 -246 364 -238 364 -225 c 256
 364 -207 371 -197 387 -197 c 256
370 -383 m 256
 436 -383 495 -347 495 -284 c 256
 495 -205 467 -176 389 -176 c 256
 338 -176 302 -183 302 -226 c 256
 302 -262 329 -275 368 -275 c 256
 390 -275 410 -270 421 -259 c 257
 421 -293 l 258
 421 -325 399 -347 368 -347 c 256
 337 -347 317 -316 317 -284 c 257
 257 -284 l 257
 257 -320 244 -347 210 -347 c 256
 166 -347 160 -305 160 -254 c 256
 160 -155 192 -124 290 -124 c 256
 331 -124 380 -134 387 -163 c 257
 471 -163 l 257
 458 -99 379 -89 290 -89 c 256
 157 -89 70 -122 70 -246 c 256
 70 -337 113 -383 203 -383 c 256
 241 -383 272 -369 289 -347 c 257
 300 -370 335 -383 370 -383 c 256
EndSplineSet
Validated: 9
Ligature2: "'blwf' Below Base Forms in Telugu lookup 2 subtable" DDa Halanth
EndChar

StartChar: DDaU
Encoding: 104 -1 104
GlifName: D_D_aU_
Width: 1058
VWidth: 0
Flags: W
AnchorPoint: "Anchor-3" 0 0 basechar 0
AnchorPoint: "Anchor-0" 0 0 basechar 0
LayerCount: 2
Back
Fore
SplineSet
535 589 m 257
 496 532 419 450 348 429 c 257
 305 429 l 257
NamedP: "hr00"
 278 441 261 475 261 511 c 257
 151 511 l 257
 151 471 164 439 190 416 c 257
 77 392 10 329 10 199 c 256
 10 68 73 0 203 0 c 256
 255 0 304 23 329 51 c 257
 343 18 396 0 446 0 c 256
 522 0 583 31 616 79 c 257
 650 33 714 -1 786 -1 c 256
 915 -1 995 90 995 220 c 256
 995 341 919 425 798 425 c 258
 755 425 l 257
 755 376 l 257
 831 376 864 298 864 215 c 256
 864 133 838 49 766 49 c 256
 706 49 658 95 639 143 c 257
 639 144 l 258
 639 258 589 303 474 303 c 256
 405 303 348 289 348 229 c 256
 348 176 388 158 444 158 c 256
 476 158 505 165 520 180 c 257
 520 130 l 258
 520 83 490 51 444 51 c 256
 387 51 369 83 369 144 c 257
 283 144 l 257
 283 91 262 51 213 51 c 256
 150 51 141 113 141 189 c 256
 141 333 186 378 331 378 c 256
 389 378 461 362 470 320 c 257
 594 320 l 257
 583 370 537 402 474 416 c 257
 500 430 l 258
 554 459 607 502 661 556 c 257
 535 589 l 257
471 270 m 256
 495 270 508 259 508 238 c 256
 508 215 495 199 471 199 c 256
 451 199 438 212 438 231 c 256
 438 256 446 270 471 270 c 256
EndSplineSet
Validated: 9
Ligature2: "'psts' Post Base Substitutions in Telugu lookup 17 subtable" DDa UMatra
EndChar

StartChar: DDaUU
Encoding: 105 -1 105
GlifName: D_D_aU_U_
Width: 1416
VWidth: 0
Flags: W
AnchorPoint: "Anchor-3" 0 0 basechar 0
AnchorPoint: "Anchor-0" 0 0 basechar 0
LayerCount: 2
Back
Fore
SplineSet
535 589 m 257
 496 532 419 450 348 429 c 257
 305 429 l 257
NamedP: "hr00"
 278 441 261 475 261 511 c 257
 151 511 l 257
 151 471 164 439 190 416 c 257
 77 392 10 329 10 199 c 256
 10 68 73 0 203 0 c 256
 255 0 304 23 329 51 c 257
 343 18 396 0 446 0 c 256
 521 0 582 30 615 78 c 257
 648 31 714 -1 788 -1 c 256
 919 -1 1001 89 1001 220 c 256
 1001 283 983 334 954 369 c 257
 1154 369 l 258
 1194 369 1221 364 1235 355 c 256
 1245 349 1252 337 1255 319 c 257
 1239 331 1209 333 1176 333 c 256
 1107 333 1058 286 1058 216 c 256
 1058 145 1128 109 1204 109 c 256
 1303 109 1359 172 1359 271 c 256
 1359 373 1287 425 1181 425 c 258
 754 425 l 257
 754 376 l 257
 788 376 814 366 833 346 c 256
 858 321 870 277 870 215 c 256
 870 126 848 49 768 49 c 256
 706 49 658 96 639 145 c 257
 639 258 589 303 474 303 c 256
 405 303 348 289 348 229 c 256
 348 176 388 158 444 158 c 256
 476 158 505 165 520 180 c 257
 520 130 l 258
 520 83 490 51 444 51 c 256
 387 51 369 83 369 144 c 257
 283 144 l 257
 283 91 262 51 213 51 c 256
 150 51 141 113 141 189 c 256
 141 333 186 378 331 378 c 256
 389 378 461 362 470 320 c 257
 594 320 l 257
 583 370 537 402 474 416 c 257
 500 430 l 258
 554 459 607 502 661 556 c 257
 535 589 l 257
1208 289 m 256
 1242 289 1258 264 1258 228 c 256
 1258 185 1247 156 1208 156 c 256
 1174 156 1159 179 1159 216 c 256
 1159 263 1166 289 1208 289 c 256
471 270 m 256
 495 270 508 259 508 238 c 256
 508 215 495 199 471 199 c 256
 451 199 438 212 438 231 c 256
 438 256 446 270 471 270 c 256
EndSplineSet
Validated: 9
Ligature2: "'psts' Post Base Substitutions in Telugu lookup 17 subtable" DDa UUMatra
EndChar

StartChar: DDha
Encoding: 106 3106 106
GlifName: D_D_ha
Width: 695
VWidth: 0
Flags: W
AnchorPoint: "Anchor-0" 0 0 basechar 0
LayerCount: 2
Back
Fore
SplineSet
594 320 m 257
 583 370 537 402 474 416 c 257
 500 430 l 258
NamedP: "hr00"
 554 459 607 502 661 556 c 257
 535 589 l 257
 496 532 419 450 348 429 c 257
 305 429 l 257
 278 441 261 475 261 511 c 257
 151 511 l 257
 151 471 164 439 190 416 c 257
 77 392 10 329 10 199 c 256
 10 68 73 0 203 0 c 256
 255 0 304 23 329 51 c 257
 343 18 396 0 446 0 c 256
 545 0 628 56 639 144 c 257
 639 258 589 303 474 303 c 256
 405 303 348 289 348 229 c 256
 348 176 388 158 444 158 c 256
 476 158 505 165 520 180 c 257
 520 130 l 258
 520 83 490 51 444 51 c 256
 387 51 369 83 369 144 c 257
 283 144 l 257
 283 91 262 51 213 51 c 256
 150 51 141 113 141 189 c 256
 141 332 186 376 331 376 c 256
 389 376 461 362 470 320 c 257
 594 320 l 257
325 -147 m 256
 371 -147 389 -120 398 -79 c 257
 398 -31 376 -9 328 -9 c 256
 285 -9 266 -40 266 -84 c 256
 266 -126 283 -147 325 -147 c 256
471 270 m 256
 495 270 508 259 508 238 c 256
 508 215 495 199 471 199 c 256
 451 199 438 212 438 231 c 256
 438 256 446 270 471 270 c 256
EndSplineSet
Validated: 9
EndChar

StartChar: DDhaAA
Encoding: 107 -1 107
GlifName: D_D_haA_A_
Width: 1070
VWidth: 0
Flags: W
AnchorPoint: "Anchor-0" 0 0 basechar 0
LayerCount: 2
Back
Fore
SplineSet
331 376 m 256
 389 376 461 362 470 320 c 257
 594 320 l 257
 589 343 577 363 559 378 c 257
 803 378 l 258
NamedP: "hr00"
 854 378 885 362 900 329 c 258
 904 320 l 257
 886 332 871 334 838 334 c 256
 755 334 700 296 700 218 c 256
 700 142 770 110 853 110 c 256
 952 110 1008 173 1008 273 c 256
 1008 374 935 426 830 426 c 258
 408 426 l 258
 385 426 359 429 331 429 c 256
 304 429 280 426 257 426 c 258
 33 426 l 257
 33 378 l 257
 91 378 l 257
 37 341 10 282 10 199 c 256
 10 68 73 0 203 0 c 256
 255 0 304 23 329 51 c 257
 343 18 396 0 446 0 c 256
 545 0 628 56 639 144 c 257
 639 258 589 303 474 303 c 256
 405 303 348 289 348 229 c 256
 348 176 388 158 444 158 c 256
 476 158 505 165 520 180 c 257
 520 130 l 258
 520 83 490 51 444 51 c 256
 387 51 369 83 369 144 c 257
 283 144 l 257
 283 91 262 51 213 51 c 256
 150 51 141 113 141 189 c 256
 141 332 186 376 331 376 c 256
325 -147 m 256
 371 -147 389 -120 398 -79 c 257
 398 -31 376 -9 328 -9 c 256
 285 -9 266 -40 266 -84 c 256
 266 -126 283 -147 325 -147 c 256
856 290 m 256
 892 290 906 267 906 229 c 256
 906 185 896 158 856 158 c 256
 821 158 801 182 801 218 c 256
 801 262 815 290 856 290 c 256
471 270 m 256
 495 270 508 259 508 238 c 256
 508 215 495 199 471 199 c 256
 451 199 438 212 438 231 c 256
 438 256 446 270 471 270 c 256
EndSplineSet
Validated: 9
Ligature2: "'abvs' Above Base Substitutions in Telugu lookup 9 subtable" DDha AAMatra
EndChar

StartChar: DDhaAU
Encoding: 108 -1 108
GlifName: D_D_haA_U_
Width: 1038
VWidth: 0
Flags: W
AnchorPoint: "Anchor-0" 0 0 basechar 0
LayerCount: 2
Back
Fore
SplineSet
331 376 m 256
 389 376 461 362 470 320 c 257
 594 320 l 257
 588 347 573 368 550 385 c 257
NamedP: "hr00"
 576 396 594 416 594 448 c 256
 594 472 585 487 569 495 c 257
 806 495 l 258
 848 495 885 481 893 448 c 257
 875 458 848 459 816 459 c 256
 745 459 700 442 700 378 c 256
 700 307 767 278 843 278 c 256
 930 278 994 322 994 406 c 256
 994 496 910 549 816 549 c 258
 88 549 l 257
 88 490 l 257
 454 490 l 258
 474 490 489 479 489 460 c 256
 489 434 477 425 449 425 c 258
 419 425 l 257
 393 428 364 429 331 429 c 256
 300 429 272 428 247 425 c 257
 163 425 l 257
 163 410 l 257
 66 384 10 315 10 199 c 256
 10 68 73 0 203 0 c 256
 255 0 304 23 329 51 c 257
 343 18 396 0 446 0 c 256
 545 0 628 56 639 144 c 257
 639 258 589 303 474 303 c 256
 405 303 348 289 348 229 c 256
 348 176 388 158 444 158 c 256
 476 158 505 165 520 180 c 257
 520 130 l 258
 520 83 490 51 444 51 c 256
 387 51 369 83 369 144 c 257
 283 144 l 257
 283 91 262 51 213 51 c 256
 150 51 141 113 141 189 c 256
 141 332 186 376 331 376 c 256
325 -147 m 256
 371 -147 389 -120 398 -79 c 257
 398 -31 376 -9 328 -9 c 256
 285 -9 266 -40 266 -84 c 256
 266 -126 283 -147 325 -147 c 256
846 423 m 256
 878 423 895 409 895 378 c 256
 895 340 882 318 846 318 c 256
 813 318 799 334 799 365 c 256
 799 404 809 423 846 423 c 256
471 270 m 256
 495 270 508 259 508 238 c 256
 508 215 495 199 471 199 c 256
 451 199 438 212 438 231 c 256
 438 256 446 270 471 270 c 256
EndSplineSet
Validated: 9
Ligature2: "'abvs' Above Base Substitutions in Telugu lookup 16 subtable" DDha AuMatra
EndChar

StartChar: DDhaE
Encoding: 109 -1 109
GlifName: D_D_haE_
Width: 695
VWidth: 0
Flags: W
AnchorPoint: "Anchor-1" 0 0 basechar 0
AnchorPoint: "Anchor-0" 0 0 basechar 0
LayerCount: 2
Back
Fore
SplineSet
331 376 m 256
 389 376 461 362 470 320 c 257
 594 320 l 257
 587 350 570 374 541 391 c 257
 554 400 l 258
NamedP: "hr00"
 576 415 585 442 585 474 c 256
 585 528 540 565 494 575 c 257
 31 575 l 257
 31 518 l 257
 433 518 l 258
 459 518 473 502 473 474 c 256
 473 450 456 440 436 426 c 257
 408 426 l 258
 385 426 359 429 331 429 c 256
 304 429 280 426 257 426 c 258
 201 426 l 257
 201 419 l 257
 82 397 10 333 10 199 c 256
 10 68 73 0 203 0 c 256
 255 0 304 23 329 51 c 257
 343 18 396 0 446 0 c 256
 545 0 628 56 639 144 c 257
 639 258 589 303 474 303 c 256
 405 303 348 289 348 229 c 256
 348 176 388 158 444 158 c 256
 476 158 505 165 520 180 c 257
 520 130 l 258
 520 83 490 51 444 51 c 256
 387 51 369 83 369 144 c 257
 283 144 l 257
 283 91 262 51 213 51 c 256
 150 51 141 113 141 189 c 256
 141 332 186 376 331 376 c 256
325 -147 m 256
 371 -147 389 -120 398 -79 c 257
 398 -31 376 -9 328 -9 c 256
 285 -9 266 -40 266 -84 c 256
 266 -126 283 -147 325 -147 c 256
471 270 m 256
 495 270 508 259 508 238 c 256
 508 215 495 199 471 199 c 256
 451 199 438 212 438 231 c 256
 438 256 446 270 471 270 c 256
EndSplineSet
Validated: 9
PairPos2: "'blwm' Below Base Mark in Telugu lookup 14 subtable" Titvam dx=0 dy=0 dh=18 dv=0 dx=-774 dy=-25 dh=0 dv=0
PairPos2: "'blwm' Below Base Mark in Telugu lookup 0 subtable" tvam dx=0 dy=0 dh=0 dv=0 dx=-830 dy=20 dh=0 dv=0
Ligature2: "'abvs' Above Base Substitutions in Telugu lookup 12 subtable" DDha uni0C46
EndChar

StartChar: DDhaEE
Encoding: 110 -1 110
GlifName: D_D_haE_E_
Width: 695
VWidth: 0
Flags: W
AnchorPoint: "Anchor-0" 0 0 basechar 0
LayerCount: 2
Back
Fore
SplineSet
331 376 m 256
 389 376 461 362 470 320 c 257
 594 320 l 257
 587 351 569 375 539 392 c 257
NamedP: "hr00"
 565 409 585 440 585 475 c 256
 585 532 551 575 494 575 c 257
 469 579 461 588 461 616 c 256
 461 650 480 660 516 660 c 256
 549 660 570 640 570 608 c 257
 661 608 l 257
 661 686 596 704 508 704 c 256
 434 704 364 684 364 618 c 256
 364 599 368 585 378 575 c 257
 25 575 l 257
 25 518 l 257
 433 518 l 257
 447 510 456 504 461 499 c 256
 469 492 473 484 473 475 c 256
 473 449 460 426 436 426 c 258
 408 426 l 258
 385 426 359 429 331 429 c 256
 305 429 280 426 257 426 c 258
 189 426 l 257
 189 416 l 257
 152 408 121 397 96 381 c 256
 39 345 10 284 10 199 c 256
 10 68 73 0 203 0 c 256
 255 0 304 23 329 51 c 257
 343 18 396 0 446 0 c 256
 545 0 628 56 639 144 c 257
 639 258 589 303 474 303 c 256
 405 303 348 289 348 229 c 256
 348 176 388 158 444 158 c 256
 476 158 505 165 520 180 c 257
 520 130 l 258
 520 83 490 51 444 51 c 256
 387 51 369 83 369 144 c 257
 283 144 l 257
 283 91 262 51 213 51 c 256
 150 51 141 113 141 189 c 256
 141 332 186 376 331 376 c 256
325 -147 m 256
 371 -147 389 -120 398 -79 c 257
 398 -31 376 -9 328 -9 c 256
 285 -9 266 -40 266 -84 c 256
 266 -126 283 -147 325 -147 c 256
471 270 m 256
 495 270 508 259 508 238 c 256
 508 215 495 199 471 199 c 256
 451 199 438 212 438 231 c 256
 438 256 446 270 471 270 c 256
EndSplineSet
Validated: 9
Ligature2: "'abvs' Above Base Substitutions in Telugu lookup 13 subtable" DDha EEMatra
EndChar

StartChar: DDhaHalanth
Encoding: 111 -1 111
GlifName: D_D_haH_alanth
Width: 695
VWidth: 0
Flags: W
AnchorPoint: "Anchor-0" 0 0 basechar 0
LayerCount: 2
Back
Fore
SplineSet
594 320 m 257
 575 411 459 429 331 429 c 256
 311 429 292 428 274 427 c 257
NamedP: "hr00"
 258 429 244 443 244 458 c 256
 244 475 267 484 284 484 c 258
 479 484 l 257
 479 536 l 257
 281 536 l 258
 263 536 244 548 244 565 c 256
 244 585 269 598 290 598 c 258
 620 598 l 257
 620 655 l 257
 208 655 l 258
 159 655 115 619 115 573 c 256
 115 541 136 516 158 504 c 257
 131 502 111 475 111 446 c 256
 111 428 118 412 133 399 c 257
 53 370 10 300 10 199 c 256
 10 68 73 0 203 0 c 256
 255 0 304 23 329 51 c 257
 343 18 396 0 446 0 c 256
 545 0 628 56 639 144 c 257
 639 258 589 303 474 303 c 256
 405 303 348 289 348 229 c 256
 348 176 388 158 444 158 c 256
 476 158 505 165 520 180 c 257
 520 130 l 258
 520 83 490 51 444 51 c 256
 387 51 369 83 369 144 c 257
 283 144 l 257
 283 91 262 51 213 51 c 256
 150 51 141 113 141 189 c 256
 141 332 186 376 331 376 c 256
 389 376 461 362 470 320 c 257
 594 320 l 257
325 -147 m 256
 371 -147 389 -120 398 -79 c 257
 398 -31 376 -9 328 -9 c 256
 285 -9 266 -40 266 -84 c 256
 266 -126 283 -147 325 -147 c 256
471 270 m 256
 495 270 508 259 508 238 c 256
 508 215 495 199 471 199 c 256
 451 199 438 212 438 231 c 256
 438 256 446 270 471 270 c 256
EndSplineSet
Validated: 9
Ligature2: "'haln' Halant Forms in Telugu lookup 19 subtable" DDha Halanth
EndChar

StartChar: DDhaI
Encoding: 112 -1 112
GlifName: D_D_haI_
Width: 695
VWidth: 0
Flags: W
AnchorPoint: "Anchor-0" 0 0 basechar 0
LayerCount: 2
Back
Fore
SplineSet
594 320 m 257
 584 366 547 393 491 412 c 257
NamedP: "hr00"
 538 436 561 470 561 514 c 256
 561 599 448 625 349 625 c 256
 257 625 159 612 159 536 c 256
 159 487 230 463 284 463 c 256
 337 463 410 482 410 529 c 256
 410 553 401 566 385 575 c 257
 423 575 463 550 463 515 c 256
 463 480 444 455 406 439 c 256
 395 434 384 431 373 428 c 257
 360 429 346 429 331 429 c 256
 310 429 291 428 272 427 c 257
 252 430 231 436 210 443 c 257
 210 420 l 257
 163 412 125 399 96 381 c 256
 39 344 10 284 10 199 c 256
 10 68 73 0 203 0 c 256
 255 0 304 23 329 51 c 257
 343 18 396 0 446 0 c 256
 545 0 628 56 639 144 c 257
 639 258 589 303 474 303 c 256
 405 303 348 289 348 229 c 256
 348 176 388 158 444 158 c 256
 476 158 505 165 520 180 c 257
 520 130 l 258
 520 83 490 51 444 51 c 256
 387 51 369 83 369 144 c 257
 283 144 l 257
 283 91 262 51 213 51 c 256
 150 51 141 113 141 189 c 256
 141 332 186 376 331 376 c 256
 389 376 461 362 470 320 c 257
 594 320 l 257
325 -147 m 256
 371 -147 389 -120 398 -79 c 257
 398 -31 376 -9 328 -9 c 256
 285 -9 266 -40 266 -84 c 256
 266 -126 283 -147 325 -147 c 256
310 579 m 256
 333 579 347 568 349 546 c 257
 349 520 334 509 306 509 c 256
 281 509 265 521 265 545 c 256
 265 570 285 579 310 579 c 256
471 270 m 256
 495 270 508 259 508 238 c 256
 508 215 495 199 471 199 c 256
 451 199 438 212 438 231 c 256
 438 256 446 270 471 270 c 256
EndSplineSet
Validated: 9
Ligature2: "'abvs' Above Base Substitutions in Telugu lookup 10 subtable" DDha Imatra
EndChar

StartChar: DDhaII
Encoding: 113 -1 113
GlifName: D_D_haI_I_
Width: 695
VWidth: 0
Flags: W
AnchorPoint: "Anchor-0" 0 0 basechar 0
LayerCount: 2
Back
Fore
SplineSet
594 320 m 257
 584 366 547 393 491 412 c 257
NamedP: "hr00"
 538 436 561 470 561 514 c 256
 561 596 459 620 368 625 c 256
 341 625 329 642 329 668 c 256
 329 701 348 711 384 711 c 256
 416 711 438 690 438 659 c 257
 529 659 l 257
 529 665 l 258
 529 739 461 755 375 755 c 256
 300 755 231 736 231 669 c 256
 231 642 239 626 259 618 c 257
 207 610 159 589 159 536 c 256
 159 487 230 463 284 463 c 256
 337 463 410 482 410 529 c 256
 410 553 401 566 385 575 c 257
 423 575 463 550 463 515 c 256
 463 480 444 455 406 439 c 256
 395 434 384 431 373 428 c 257
 360 429 346 429 331 429 c 256
 310 429 291 428 272 427 c 257
 252 430 231 436 210 443 c 257
 210 420 l 257
 163 412 125 399 96 381 c 256
 39 344 10 284 10 199 c 256
 10 68 73 0 203 0 c 256
 255 0 304 23 329 51 c 257
 343 18 396 0 446 0 c 256
 545 0 628 56 639 144 c 257
 639 258 589 303 474 303 c 256
 405 303 348 289 348 229 c 256
 348 176 388 158 444 158 c 256
 476 158 505 165 520 180 c 257
 520 130 l 258
 520 83 490 51 444 51 c 256
 387 51 369 83 369 144 c 257
 283 144 l 257
 283 91 262 51 213 51 c 256
 150 51 141 113 141 189 c 256
 141 332 186 376 331 376 c 256
 389 376 461 362 470 320 c 257
 594 320 l 257
325 -147 m 256
 371 -147 389 -120 398 -79 c 257
 398 -31 376 -9 328 -9 c 256
 285 -9 266 -40 266 -84 c 256
 266 -126 283 -147 325 -147 c 256
310 579 m 256
 333 579 347 568 349 546 c 257
 349 520 334 509 306 509 c 256
 281 509 265 521 265 545 c 256
 265 570 285 579 310 579 c 256
471 270 m 256
 495 270 508 259 508 238 c 256
 508 215 495 199 471 199 c 256
 451 199 438 212 438 231 c 256
 438 256 446 270 471 270 c 256
EndSplineSet
Validated: 9
Ligature2: "'abvs' Above Base Substitutions in Telugu lookup 11 subtable" DDha IIMatra
EndChar

StartChar: DDhaO
Encoding: 114 -1 114
GlifName: D_D_haO_
Width: 1053
VWidth: 0
Flags: W
AnchorPoint: "Anchor-0" 0 0 basechar 0
LayerCount: 2
Back
Fore
SplineSet
594 320 m 257
 575 411 459 429 331 429 c 256
 302 429 276 428 251 425 c 257
NamedP: "hr00"
 226 427 193 441 193 464 c 256
 193 483 207 497 235 508 c 256
 262 518 302 524 353 524 c 256
 415 524 461 517 491 503 c 256
 520 490 535 468 535 438 c 257
 601 438 l 257
 601 509 684 530 765 530 c 256
 828 530 903 513 903 460 c 257
 884 472 863 474 830 474 c 256
 760 474 699 443 699 378 c 256
 699 297 762 250 845 250 c 256
 942 250 1008 316 1008 413 c 256
 1008 541 903 585 764 585 c 256
 678 585 606 562 568 516 c 257
 526 565 439 584 344 584 c 256
 257 584 188 573 139 550 c 256
 90 527 66 496 66 456 c 256
 66 431 75 411 94 398 c 257
 110 389 l 257
 96 381 l 258
 37 347 10 284 10 199 c 256
 10 68 73 0 203 0 c 256
 255 0 304 23 329 51 c 257
 343 18 396 0 446 0 c 256
 545 0 628 56 639 144 c 257
 639 258 589 303 474 303 c 256
 405 303 348 289 348 229 c 256
 348 176 388 158 444 158 c 256
 476 158 505 165 520 180 c 257
 520 130 l 258
 520 83 490 51 444 51 c 256
 387 51 369 83 369 144 c 257
 283 144 l 257
 283 91 262 51 213 51 c 256
 150 51 141 113 141 189 c 256
 141 332 186 376 331 376 c 256
 389 376 461 362 470 320 c 257
 594 320 l 257
325 -147 m 256
 371 -147 389 -120 398 -79 c 257
 398 -31 376 -9 328 -9 c 256
 285 -9 266 -40 266 -84 c 256
 266 -126 283 -147 325 -147 c 256
855 430 m 256
 891 430 906 403 906 365 c 256
 906 324 893 298 855 298 c 256
 815 298 800 327 800 370 c 256
 800 393 804 408 813 416 c 257
 820 425 834 430 855 430 c 256
471 270 m 256
 495 270 508 259 508 238 c 256
 508 215 495 199 471 199 c 256
 451 199 438 212 438 231 c 256
 438 256 446 270 471 270 c 256
EndSplineSet
Validated: 9
Ligature2: "'abvs' Above Base Substitutions in Telugu lookup 14 subtable" DDha OMatra
EndChar

StartChar: DDhaOO
Encoding: 115 -1 115
GlifName: D_D_haO_O_
Width: 1061
VWidth: 0
Flags: W
AnchorPoint: "Anchor-0" 0 0 basechar 0
LayerCount: 2
Back
Fore
SplineSet
594 320 m 257
 575 411 459 429 331 429 c 256
 304 429 278 428 254 426 c 257
NamedP: "hr00"
 229 428 199 442 199 464 c 256
 199 483 213 498 241 508 c 256
 269 519 308 524 359 524 c 256
 420 524 464 517 493 503 c 256
 521 490 535 468 535 438 c 257
 601 438 l 257
 601 509 684 530 765 530 c 256
 828 530 903 513 903 460 c 257
 884 472 863 474 830 474 c 256
 761 474 700 441 700 374 c 256
 700 296 763 250 845 250 c 256
 942 250 1008 316 1008 413 c 256
 1008 500 927 561 850 578 c 257
 839 587 831 603 831 624 c 256
 831 653 857 668 886 668 c 256
 919 668 940 647 940 615 c 257
 1031 615 l 257
 1031 684 955 711 878 711 c 256
 808 711 734 689 734 625 c 256
 734 608 737 594 743 585 c 257
 667 585 604 553 568 510 c 257
 525 559 444 584 350 584 c 256
 263 584 194 575 145 553 c 256
 97 532 73 501 73 463 c 256
 73 434 81 411 101 399 c 258
 114 391 l 257
 96 381 l 258
 37 348 10 284 10 199 c 256
 10 68 73 0 203 0 c 256
 255 0 304 23 329 51 c 257
 343 18 396 0 446 0 c 256
 545 0 628 56 639 144 c 257
 639 258 589 303 474 303 c 256
 405 303 348 289 348 229 c 256
 348 176 388 158 444 158 c 256
 476 158 505 165 520 180 c 257
 520 130 l 258
 520 83 490 51 444 51 c 256
 387 51 369 83 369 144 c 257
 283 144 l 257
 283 91 262 51 213 51 c 256
 150 51 141 113 141 189 c 256
 141 332 186 376 331 376 c 256
 389 376 461 362 470 320 c 257
 594 320 l 257
325 -147 m 256
 371 -147 389 -120 398 -79 c 257
 398 -31 376 -9 328 -9 c 256
 285 -9 266 -40 266 -84 c 256
 266 -126 283 -147 325 -147 c 256
849 430 m 256
 883 430 906 412 906 378 c 256
 906 332 892 298 849 298 c 256
 814 298 800 322 800 358 c 256
 800 404 807 430 849 430 c 256
471 270 m 256
 495 270 508 259 508 238 c 256
 508 215 495 199 471 199 c 256
 451 199 438 212 438 231 c 256
 438 256 446 270 471 270 c 256
EndSplineSet
Validated: 9
Ligature2: "'abvs' Above Base Substitutions in Telugu lookup 15 subtable" DDha OOMatra
EndChar

StartChar: DDhaOttu
Encoding: 116 -1 116
GlifName: D_D_haO_ttu
Width: 34
VWidth: 0
Flags: W
AnchorPoint: "Anchor-0" -47 30 mark 0
LayerCount: 2
Back
Fore
SplineSet
286 -485 m 256
 317 -485 327 -469 327 -437 c 256
NamedP: "hr00"
 327 -404 320 -388 289 -388 c 256
 256 -388 247 -405 247 -440 c 256
 247 -469 258 -485 286 -485 c 256
387 -197 m 256
 401 -197 412 -204 412 -219 c 256
 412 -235 403 -246 387 -246 c 256
 375 -246 364 -238 364 -225 c 256
 364 -207 371 -197 387 -197 c 256
370 -383 m 256
 436 -383 495 -347 495 -284 c 256
 495 -205 467 -176 389 -176 c 256
 338 -176 302 -183 302 -226 c 256
 302 -262 329 -275 368 -275 c 256
 390 -275 410 -270 421 -259 c 257
 421 -293 l 258
 421 -325 399 -347 368 -347 c 256
 337 -347 317 -316 317 -284 c 257
 257 -284 l 257
 257 -320 244 -347 210 -347 c 256
 166 -347 160 -305 160 -254 c 256
 160 -155 192 -124 290 -124 c 256
 331 -124 380 -134 387 -163 c 257
 471 -163 l 257
 458 -99 379 -89 290 -89 c 256
 157 -89 70 -122 70 -246 c 256
 70 -337 113 -383 203 -383 c 256
 241 -383 272 -369 289 -347 c 257
 300 -370 335 -383 370 -383 c 256
EndSplineSet
Validated: 9
Ligature2: "'blwf' Below Base Forms in Telugu lookup 2 subtable" DDha Halanth
EndChar

StartChar: DDhaU
Encoding: 117 -1 117
GlifName: D_D_haU_
Width: 1058
VWidth: 0
Flags: W
AnchorPoint: "Anchor-3" 0 0 basechar 0
AnchorPoint: "Anchor-0" 0 0 basechar 0
LayerCount: 2
Back
Fore
SplineSet
535 589 m 257
 496 532 419 450 348 429 c 257
 305 429 l 257
NamedP: "hr00"
 278 441 261 475 261 511 c 257
 151 511 l 257
 151 471 164 439 190 416 c 257
 77 392 10 329 10 199 c 256
 10 68 73 0 203 0 c 256
 255 0 304 23 329 51 c 257
 343 18 396 0 446 0 c 256
 522 0 583 31 616 79 c 257
 650 33 714 -1 786 -1 c 256
 915 -1 995 90 995 220 c 256
 995 341 919 425 798 425 c 258
 755 425 l 257
 755 376 l 257
 831 376 864 298 864 215 c 256
 864 133 838 49 766 49 c 256
 706 49 658 95 639 143 c 257
 639 144 l 258
 639 258 589 303 474 303 c 256
 405 303 348 289 348 229 c 256
 348 176 388 158 444 158 c 256
 476 158 505 165 520 180 c 257
 520 130 l 258
 520 83 490 51 444 51 c 256
 387 51 369 83 369 144 c 257
 283 144 l 257
 283 91 262 51 213 51 c 256
 150 51 141 113 141 189 c 256
 141 332 186 376 331 376 c 256
 389 376 461 362 470 320 c 257
 594 320 l 257
 583 370 537 402 474 416 c 257
 500 430 l 258
 554 459 607 502 661 556 c 257
 535 589 l 257
325 -147 m 256
 371 -147 389 -120 398 -79 c 257
 398 -31 376 -9 328 -9 c 256
 285 -9 266 -40 266 -84 c 256
 266 -126 283 -147 325 -147 c 256
471 270 m 256
 495 270 508 259 508 238 c 256
 508 215 495 199 471 199 c 256
 451 199 438 212 438 231 c 256
 438 256 446 270 471 270 c 256
EndSplineSet
Validated: 9
Ligature2: "'psts' Post Base Substitutions in Telugu lookup 17 subtable" DDha UMatra
EndChar

StartChar: DDhaUU
Encoding: 118 -1 118
GlifName: D_D_haU_U_
Width: 1416
VWidth: 0
Flags: W
AnchorPoint: "Anchor-3" 0 0 basechar 0
AnchorPoint: "Anchor-0" 0 0 basechar 0
LayerCount: 2
Back
Fore
SplineSet
535 589 m 257
 496 532 419 450 348 429 c 257
 305 429 l 257
NamedP: "hr00"
 278 441 261 475 261 511 c 257
 151 511 l 257
 151 471 164 439 190 416 c 257
 77 392 10 329 10 199 c 256
 10 68 73 0 203 0 c 256
 255 0 304 23 329 51 c 257
 343 18 396 0 446 0 c 256
 521 0 582 30 615 78 c 257
 648 31 714 -1 788 -1 c 256
 919 -1 1001 89 1001 220 c 256
 1001 283 983 334 954 369 c 257
 1154 369 l 258
 1194 369 1221 364 1235 355 c 256
 1245 349 1252 337 1255 319 c 257
 1239 331 1209 333 1176 333 c 256
 1107 333 1058 286 1058 216 c 256
 1058 145 1128 109 1204 109 c 256
 1303 109 1359 172 1359 271 c 256
 1359 373 1287 425 1181 425 c 258
 754 425 l 257
 754 376 l 257
 788 376 814 366 833 346 c 256
 858 321 870 277 870 215 c 256
 870 126 848 49 768 49 c 256
 706 49 658 96 639 145 c 257
 639 258 589 303 474 303 c 256
 405 303 348 289 348 229 c 256
 348 176 388 158 444 158 c 256
 476 158 505 165 520 180 c 257
 520 130 l 258
 520 83 490 51 444 51 c 256
 387 51 369 83 369 144 c 257
 283 144 l 257
 283 91 262 51 213 51 c 256
 150 51 141 113 141 189 c 256
 141 332 186 376 331 376 c 256
 389 376 461 362 470 320 c 257
 594 320 l 257
 583 370 537 402 474 416 c 257
 500 430 l 258
 554 459 607 502 661 556 c 257
 535 589 l 257
325 -147 m 256
 371 -147 389 -120 398 -79 c 257
 398 -31 376 -9 328 -9 c 256
 285 -9 266 -40 266 -84 c 256
 266 -126 283 -147 325 -147 c 256
1208 289 m 256
 1242 289 1258 264 1258 228 c 256
 1258 185 1247 156 1208 156 c 256
 1174 156 1159 179 1159 216 c 256
 1159 263 1166 289 1208 289 c 256
471 270 m 256
 495 270 508 259 508 238 c 256
 508 215 495 199 471 199 c 256
 451 199 438 212 438 231 c 256
 438 256 446 270 471 270 c 256
EndSplineSet
Validated: 9
Ligature2: "'psts' Post Base Substitutions in Telugu lookup 17 subtable" DDha UUMatra
EndChar

StartChar: DEVANAGARI_DANDA
Encoding: 119 2404 119
GlifName: D_E_V_A_N_A_G_A_R_I__D_A_N_D_A_
Width: 243
VWidth: 0
Flags: W
LayerCount: 2
Back
Fore
SplineSet
186 -37 m 257
NamedP: "IPAGothic"
 186 456 l 257
 125 456 l 257
 125 -37 l 257
 186 -37 l 257
NamedP: "IPAGothic"
EndSplineSet
Validated: 9
EndChar

StartChar: DEVANAGARI_DOUBLE_DANDA
Encoding: 120 2405 120
GlifName: D_E_V_A_N_A_G_A_R_I__D_O_U_B_L_E__D_A_N_D_A_
Width: 437
VWidth: 0
Flags: W
LayerCount: 2
Back
Fore
SplineSet
380 -37 m 257
NamedP: "IPAMonaGothic"
 380 456 l 257
 319 456 l 257
 319 -37 l 257
 380 -37 l 257
NamedP: "IPAMonaGothic"
186 -37 m 257
 186 456 l 257
 125 456 l 257
 125 -37 l 257
 186 -37 l 257
EndSplineSet
Validated: 9
EndChar

StartChar: Da
Encoding: 121 3110 121
GlifName: D_a
Width: 697
VWidth: 0
Flags: W
AnchorPoint: "Anchor-0" 0 0 basechar 0
LayerCount: 2
Back
Fore
SplineSet
635 209 m 256
 635 318 560 384 464 410 c 257
NamedP: "hr00"
 540 445 597 489 664 556 c 257
 538 589 l 257
 511 549 477 512 436 479 c 256
 397 448 365 430 338 426 c 257
 316 426 l 257
 284 433 264 473 264 511 c 257
 154 511 l 257
 154 469 168 437 196 414 c 257
 83 390 10 329 10 201 c 256
 10 64 73 0 210 0 c 256
 264 0 300 14 326 44 c 257
 344 15 391 0 439 0 c 256
 572 0 633 74 635 209 c 256
334 378 m 256
 464 378 504 325 504 193 c 256
 504 148 499 112 485 86 c 256
 473 63 456 51 436 51 c 256
 385 51 374 93 374 151 c 257
 279 151 l 257
 279 90 272 53 219 53 c 256
 163 53 141 119 141 181 c 256
 141 264 159 319 196 348 c 256
 223 368 269 378 334 378 c 256
EndSplineSet
Validated: 9
EndChar

StartChar: DaAA
Encoding: 122 -1 122
GlifName: D_aA_A_
Width: 1071
VWidth: 0
Flags: W
AnchorPoint: "Anchor-0" 0 0 basechar 0
LayerCount: 2
Back
Fore
SplineSet
219 53 m 256
 163 53 141 119 141 181 c 256
 141 264 159 319 196 348 c 256
 223 368 268 378 333 378 c 258
 335 378 l 258
NamedP: "hr00"
 464 378 504 324 504 193 c 256
 504 148 499 112 485 86 c 256
 473 63 456 51 436 51 c 256
 385 51 374 93 374 151 c 257
 279 151 l 257
 279 90 272 53 219 53 c 256
439 0 m 256
 572 0 633 74 635 209 c 256
 635 272 612 322 566 360 c 256
 558 367 550 373 541 378 c 257
 805 378 l 258
 861 378 893 360 906 320 c 257
 888 332 874 334 840 334 c 256
 757 334 703 297 703 218 c 256
 703 141 773 110 855 110 c 256
 954 110 1010 173 1010 273 c 256
 1010 374 938 426 833 426 c 258
 35 426 l 257
 35 378 l 257
 99 378 l 257
 90 372 81 366 73 359 c 256
 31 322 10 270 10 201 c 256
 10 64 73 0 210 0 c 256
 264 0 300 14 326 44 c 257
 344 15 391 0 439 0 c 256
859 290 m 256
 894 290 909 267 909 229 c 256
 909 185 898 158 859 158 c 256
 824 158 804 182 804 218 c 256
 804 263 818 290 859 290 c 256
EndSplineSet
Validated: 9
Ligature2: "'abvs' Above Base Substitutions in Telugu lookup 9 subtable" Da AAMatra
EndChar

StartChar: DaAU
Encoding: 123 -1 123
GlifName: D_aA_U_
Width: 1041
VWidth: 0
Flags: W
AnchorPoint: "Anchor-0" 0 0 basechar 0
LayerCount: 2
Back
Fore
SplineSet
635 209 m 256
 635 284 597 347 537 380 c 257
NamedP: "hr00"
 571 388 596 410 596 448 c 256
 596 471 588 487 571 495 c 257
 809 495 l 258
 851 495 887 481 895 448 c 257
 879 458 850 459 819 459 c 256
 749 459 703 443 703 378 c 256
 703 307 769 278 845 278 c 256
 933 278 996 321 996 406 c 256
 996 495 912 549 819 549 c 258
 90 549 l 257
 90 490 l 257
 456 490 l 258
 477 490 491 480 491 460 c 256
 491 433 479 425 451 425 c 258
 367 425 l 258
 355 425 343 426 330 426 c 256
 315 426 301 425 288 425 c 258
 165 425 l 257
 165 406 l 257
 71 378 10 316 10 201 c 256
 10 64 73 0 210 0 c 256
 264 0 300 14 326 44 c 257
 344 15 391 0 439 0 c 256
 572 0 633 74 635 209 c 256
849 423 m 256
 880 423 898 408 898 378 c 256
 898 341 885 318 849 318 c 256
 816 318 801 335 801 365 c 256
 801 405 811 423 849 423 c 256
334 378 m 256
 464 378 504 325 504 193 c 256
 504 148 499 112 485 86 c 256
 473 63 456 51 436 51 c 256
 385 51 374 93 374 151 c 257
 279 151 l 257
 279 90 272 53 219 53 c 256
 163 53 141 119 141 181 c 256
 141 264 159 319 196 348 c 256
 223 368 269 378 334 378 c 256
EndSplineSet
Validated: 9
Ligature2: "'abvs' Above Base Substitutions in Telugu lookup 16 subtable" Da AuMatra
EndChar

StartChar: DaE
Encoding: 124 -1 124
GlifName: D_aE_
Width: 697
VWidth: 0
Flags: W
AnchorPoint: "Anchor-1" 0 0 basechar 0
AnchorPoint: "Anchor-0" 0 0 basechar 0
LayerCount: 2
Back
Fore
SplineSet
635 209 m 256
 635 289 592 351 530 385 c 257
NamedP: "hr00"
 565 397 588 431 588 474 c 256
 588 528 543 565 496 575 c 257
 34 575 l 257
 34 518 l 257
 435 518 l 258
 462 518 475 503 475 474 c 256
 475 450 459 440 439 426 c 257
 204 426 l 257
 204 415 l 257
 86 392 10 333 10 201 c 256
 10 64 73 0 210 0 c 256
 264 0 300 14 326 44 c 257
 344 15 391 0 439 0 c 256
 572 0 633 74 635 209 c 256
334 378 m 256
 464 378 504 325 504 193 c 256
 504 148 499 112 485 86 c 256
 473 63 456 51 436 51 c 256
 385 51 374 93 374 151 c 257
 279 151 l 257
 279 90 272 53 219 53 c 256
 163 53 141 119 141 181 c 256
 141 264 159 319 196 348 c 256
 223 368 269 378 334 378 c 256
EndSplineSet
Validated: 9
PairPos2: "'blwm' Below Base Mark in Telugu lookup 14 subtable" Titvam dx=0 dy=0 dh=18 dv=0 dx=-774 dy=-25 dh=0 dv=0
PairPos2: "'blwm' Below Base Mark in Telugu lookup 0 subtable" tvam dx=0 dy=0 dh=0 dv=0 dx=-830 dy=20 dh=0 dv=0
Ligature2: "'abvs' Above Base Substitutions in Telugu lookup 12 subtable" Da uni0C46
EndChar

StartChar: DaEE
Encoding: 125 -1 125
GlifName: D_aE_E_
Width: 698
VWidth: 0
Flags: W
AnchorPoint: "Anchor-0" 0 0 basechar 0
LayerCount: 2
Back
Fore
SplineSet
635 209 m 256
 635 289 592 351 530 385 c 257
NamedP: "hr00"
 565 397 588 431 588 474 c 256
 588 528 543 565 496 575 c 257
 470 575 l 257
 466 589 464 603 464 616 c 256
 464 650 483 660 519 660 c 256
 551 660 573 639 573 608 c 257
 664 608 l 257
 664 686 599 704 510 704 c 256
 436 704 366 684 366 618 c 256
 366 608 367 600 370 593 c 258
 378 575 l 257
 34 575 l 257
 34 518 l 257
 435 518 l 258
 462 518 475 503 475 474 c 256
 475 450 459 440 439 426 c 257
 204 426 l 257
 204 415 l 257
 86 392 10 333 10 201 c 256
 10 64 73 0 210 0 c 256
 264 0 300 14 326 44 c 257
 344 15 391 0 439 0 c 256
 572 0 633 74 635 209 c 256
334 378 m 256
 464 378 504 325 504 193 c 256
 504 148 499 112 485 86 c 256
 473 63 456 51 436 51 c 256
 385 51 374 93 374 151 c 257
 279 151 l 257
 279 90 272 53 219 53 c 256
 163 53 141 119 141 181 c 256
 141 264 159 319 196 348 c 256
 223 368 269 378 334 378 c 256
EndSplineSet
Validated: 9
Ligature2: "'abvs' Above Base Substitutions in Telugu lookup 13 subtable" Da EEMatra
EndChar

StartChar: DaHalanth
Encoding: 126 -1 126
GlifName: D_aH_alanth
Width: 697
VWidth: 0
Flags: W
AnchorPoint: "Anchor-0" 0 0 basechar 0
LayerCount: 2
Back
Fore
SplineSet
439 0 m 256
 572 0 633 74 635 209 c 256
 635 272 612 322 566 360 c 256
 514 403 437 425 336 426 c 257
 336 427 l 257
NamedP: "hr00"
 289 427 l 258
 268 427 246 440 246 459 c 256
 246 475 269 485 286 485 c 258
 481 485 l 257
 481 537 l 257
 284 537 l 258
 266 537 246 549 246 566 c 256
 246 587 271 599 293 599 c 258
 623 599 l 257
 623 656 l 257
 210 656 l 258
 161 656 118 620 118 574 c 256
 118 543 138 517 160 505 c 257
 133 503 114 476 114 447 c 256
 114 427 124 411 138 397 c 257
 59 365 10 304 10 201 c 256
 10 64 73 0 210 0 c 256
 264 0 300 14 326 44 c 257
 344 15 391 0 439 0 c 256
334 378 m 256
 464 378 504 325 504 193 c 256
 504 148 499 112 485 86 c 256
 473 63 456 51 436 51 c 256
 385 51 374 93 374 151 c 257
 279 151 l 257
 279 90 272 53 219 53 c 256
 163 53 141 119 141 181 c 256
 141 264 159 319 196 348 c 256
 223 368 269 378 334 378 c 256
EndSplineSet
Validated: 9
Ligature2: "'haln' Halant Forms in Telugu lookup 19 subtable" Da Halanth
EndChar

StartChar: DaI
Encoding: 127 -1 127
GlifName: D_aI_
Width: 698
VWidth: 0
Flags: W
AnchorPoint: "Anchor-0" 0 0 basechar 0
LayerCount: 2
Back
Fore
SplineSet
278 151 m 257
 278 90 270 53 218 53 c 256
 193 53 176 60 165 74 c 256
 150 93 142 129 141 181 c 256
NamedP: "hr00"
 141 264 161 299 239 299 c 256
 305 299 368 341 368 403 c 256
 368 420 364 436 356 451 c 257
 397 451 430 434 455 400 c 256
 484 362 499 305 499 230 c 256
 499 162 493 114 481 86 c 256
 471 63 456 51 435 51 c 256
 384 51 373 93 373 151 c 257
 278 151 l 257
86 316 m 257
 39 287 10 245 10 175 c 256
 10 60 90 0 209 0 c 256
 262 0 299 15 325 44 c 257
 341 14 391 0 438 0 c 256
 570 0 630 73 630 209 c 256
 630 412 504 506 295 506 c 256
 212 506 150 497 109 481 c 256
 62 462 39 433 39 391 c 256
 39 359 62 326 86 316 c 257
228 453 m 256
 264 453 279 440 279 403 c 256
 279 361 268 345 228 345 c 256
 186 345 170 359 170 400 c 256
 170 440 188 453 228 453 c 256
EndSplineSet
Validated: 9
Ligature2: "'abvs' Above Base Substitutions in Telugu lookup 10 subtable" Da Imatra
EndChar

StartChar: DaII
Encoding: 128 -1 128
GlifName: D_aI_I_
Width: 698
VWidth: 0
Flags: W
AnchorPoint: "Anchor-0" 0 0 basechar 0
LayerCount: 2
Back
Fore
SplineSet
228 453 m 256
 264 453 279 440 279 403 c 256
NamedP: "hr00"
 279 361 268 345 228 345 c 256
 186 345 170 359 170 400 c 256
 170 440 188 453 228 453 c 256
278 151 m 257
 278 90 270 53 218 53 c 256
 193 53 176 60 165 74 c 256
 150 93 142 129 141 181 c 256
 141 264 161 299 239 299 c 256
 305 299 368 341 368 403 c 256
 368 420 364 436 356 451 c 257
 397 451 430 434 455 400 c 256
 484 362 499 305 499 230 c 256
 499 162 493 114 481 86 c 256
 471 63 456 51 435 51 c 256
 384 51 373 93 373 151 c 257
 278 151 l 257
630 209 m 256
 630 397 511 506 321 506 c 258
 316 506 l 257
 295 513 288 532 288 564 c 256
 288 598 307 608 343 608 c 256
 375 608 396 586 396 555 c 257
 488 555 l 257
 488 561 l 258
 488 635 418 651 334 651 c 256
 259 651 190 632 190 565 c 256
 190 532 202 516 224 504 c 257
 162 501 116 489 85 469 c 256
 54 450 39 424 39 391 c 256
 39 359 62 326 86 316 c 257
 39 287 10 245 10 175 c 256
 10 60 90 0 209 0 c 256
 262 0 299 15 325 44 c 257
 341 14 391 0 438 0 c 256
 570 0 630 73 630 209 c 256
EndSplineSet
Validated: 9
Ligature2: "'abvs' Above Base Substitutions in Telugu lookup 11 subtable" Da IIMatra
EndChar

StartChar: DaO
Encoding: 129 -1 129
GlifName: D_aO_
Width: 1056
VWidth: 0
Flags: W
AnchorPoint: "Anchor-0" 0 0 basechar 0
LayerCount: 2
Back
Fore
SplineSet
439 0 m 256
 572 0 633 74 635 209 c 256
 635 272 612 322 566 360 c 256
 513 404 434 426 330 426 c 256
 315 426 301 425 288 425 c 258
 265 425 l 258
NamedP: "hr00"
 235 425 195 437 195 464 c 256
 195 483 209 497 238 508 c 256
 265 518 304 524 355 524 c 256
 418 524 464 517 494 503 c 256
 523 490 538 468 538 438 c 257
 604 438 l 257
 604 510 686 530 768 530 c 256
 830 530 905 514 905 460 c 257
 888 472 863 474 833 474 c 256
 763 474 701 442 701 378 c 256
 701 296 764 250 848 250 c 256
 945 250 1010 316 1010 413 c 256
 1010 542 906 585 766 585 c 256
 679 585 610 562 570 516 c 257
 530 565 440 584 346 584 c 256
 259 584 190 573 141 550 c 256
 93 527 69 496 69 456 c 256
 69 420 88 399 116 387 c 257
 50 354 10 293 10 201 c 256
 10 64 73 0 210 0 c 256
 264 0 300 14 326 44 c 257
 344 15 391 0 439 0 c 256
858 430 m 256
 892 430 909 402 909 365 c 256
 909 325 895 298 858 298 c 256
 816 298 803 326 803 370 c 256
 803 414 815 430 858 430 c 256
334 378 m 256
 464 378 504 325 504 193 c 256
 504 148 499 112 485 86 c 256
 473 63 456 51 436 51 c 256
 385 51 374 93 374 151 c 257
 279 151 l 257
 279 90 272 53 219 53 c 256
 163 53 141 119 141 181 c 256
 141 264 159 319 196 348 c 256
 223 368 269 378 334 378 c 256
EndSplineSet
Validated: 9
Ligature2: "'abvs' Above Base Substitutions in Telugu lookup 14 subtable" Da OMatra
EndChar

StartChar: DaOO
Encoding: 130 -1 130
GlifName: D_aO_O_
Width: 1063
VWidth: 0
Flags: W
AnchorPoint: "Anchor-0" 0 0 basechar 0
LayerCount: 2
Back
Fore
SplineSet
439 0 m 256
 572 0 633 74 635 209 c 256
 635 272 612 322 566 360 c 256
 513 404 434 426 330 426 c 256
 315 426 301 425 288 425 c 258
 271 425 l 258
NamedP: "hr00"
 242 425 201 437 201 464 c 256
 201 483 215 497 244 508 c 256
 271 518 310 524 361 524 c 256
 422 524 467 516 495 503 c 256
 524 489 538 468 538 438 c 257
 604 438 l 257
 604 510 686 530 768 530 c 256
 830 530 905 514 905 460 c 257
 888 472 863 474 833 474 c 256
 764 474 703 441 703 374 c 256
 703 296 765 250 848 250 c 256
 945 250 1010 316 1010 413 c 256
 1010 500 929 561 853 578 c 257
 842 587 834 603 834 624 c 256
 834 653 860 668 889 668 c 256
 922 668 943 647 943 615 c 257
 1034 615 l 257
 1034 683 957 711 880 711 c 256
 810 711 736 689 736 625 c 256
 736 610 738 594 745 585 c 257
 669 585 606 553 570 510 c 257
 527 559 447 584 353 584 c 256
 265 584 197 574 148 553 c 256
 99 531 75 501 75 463 c 256
 75 434 85 413 104 399 c 257
 121 390 l 257
 52 357 10 295 10 201 c 256
 10 64 73 0 210 0 c 256
 264 0 300 14 326 44 c 257
 344 15 391 0 439 0 c 256
851 430 m 256
 886 430 909 412 909 378 c 256
 909 331 894 298 851 298 c 256
 817 298 803 321 803 358 c 256
 803 403 810 430 851 430 c 256
334 378 m 256
 464 378 504 325 504 193 c 256
 504 148 499 112 485 86 c 256
 473 63 456 51 436 51 c 256
 385 51 374 93 374 151 c 257
 279 151 l 257
 279 90 272 53 219 53 c 256
 163 53 141 119 141 181 c 256
 141 264 159 319 196 348 c 256
 223 368 269 378 334 378 c 256
EndSplineSet
Validated: 9
Ligature2: "'abvs' Above Base Substitutions in Telugu lookup 15 subtable" Da OOMatra
EndChar

StartChar: DaOttu
Encoding: 131 -1 131
GlifName: D_aO_ttu
Width: 34
VWidth: 0
Flags: W
AnchorPoint: "Anchor-0" -45 25 mark 0
LayerCount: 2
Back
Fore
SplineSet
356 -382 m 256
 448 -382 491 -331 491 -238 c 256
NamedP: "hr00"
 491 -195 475 -161 443 -135 c 256
 407 -104 353 -89 282 -89 c 256
 152 -89 62 -124 62 -243 c 256
 62 -337 104 -382 199 -382 c 256
 238 -382 259 -372 280 -351 c 257
 291 -370 326 -382 356 -382 c 256
285 -124 m 256
 376 -124 401 -158 401 -250 c 256
 401 -294 392 -346 355 -346 c 256
 318 -346 311 -318 311 -277 c 257
 247 -277 l 257
 247 -319 243 -346 206 -346 c 256
 168 -346 156 -301 156 -258 c 256
 156 -153 183 -124 285 -124 c 256
EndSplineSet
Validated: 9
Ligature2: "'blwf' Below Base Forms in Telugu lookup 2 subtable" Da Halanth
EndChar

StartChar: DaU
Encoding: 132 -1 132
GlifName: D_aU_
Width: 1023
VWidth: 0
Flags: W
AnchorPoint: "Anchor-3" 0 0 basechar 0
AnchorPoint: "Anchor-0" 0 0 basechar 0
LayerCount: 2
Back
Fore
SplineSet
635 209 m 256
 637 318 559 384 464 410 c 257
 540 445 597 489 664 556 c 257
 538 589 l 257
 511 549 477 512 436 479 c 256
 397 448 365 430 338 426 c 257
 316 426 l 257
NamedP: "hr00"
 284 433 264 473 264 511 c 257
 154 511 l 257
 154 469 168 437 196 414 c 257
 83 390 10 329 10 201 c 256
 10 64 73 0 210 0 c 256
 264 0 300 14 326 44 c 257
 344 15 391 0 439 0 c 256
 500 0 550 14 580 48 c 258
 595 65 l 257
 626 25 684 -1 751 -1 c 256
 880 -1 960 90 960 220 c 256
 960 341 884 425 763 425 c 258
 720 425 l 257
 720 376 l 257
 796 376 829 298 829 215 c 256
 829 133 803 49 731 49 c 256
 684 49 644 78 620 112 c 257
 629 139 635 172 635 209 c 256
334 378 m 256
 464 378 504 325 504 193 c 256
 504 148 499 112 485 86 c 256
 473 63 456 51 436 51 c 256
 385 51 374 93 374 151 c 257
 279 151 l 257
 279 90 272 53 219 53 c 256
 163 53 141 119 141 181 c 256
 141 264 159 319 196 348 c 256
 223 368 269 378 334 378 c 256
EndSplineSet
Validated: 41
Ligature2: "'psts' Post Base Substitutions in Telugu lookup 17 subtable" Da UMatra
EndChar

StartChar: DaUU
Encoding: 133 -1 133
GlifName: D_aU_U_
Width: 1381
VWidth: 0
Flags: W
AnchorPoint: "Anchor-3" 0 0 basechar 0
AnchorPoint: "Anchor-0" 0 0 basechar 0
LayerCount: 2
Back
Fore
SplineSet
635 209 m 256
 637 318 559 384 464 410 c 257
 540 445 597 489 664 556 c 257
 538 589 l 257
 511 549 477 512 436 479 c 256
 397 448 365 430 338 426 c 257
 316 426 l 257
NamedP: "hr00"
 284 433 264 473 264 511 c 257
 154 511 l 257
 154 469 168 437 196 414 c 257
 83 390 10 329 10 201 c 256
 10 64 73 0 210 0 c 256
 264 0 300 14 326 44 c 257
 344 15 391 0 439 0 c 256
 510 0 565 23 596 66 c 257
 625 25 687 -1 753 -1 c 256
 884 -1 966 89 966 220 c 256
 966 283 948 334 919 369 c 257
 1119 369 l 258
 1159 369 1186 364 1200 355 c 256
 1210 349 1217 337 1220 319 c 257
 1204 331 1174 333 1141 333 c 256
 1072 333 1023 286 1023 216 c 256
 1023 145 1093 109 1169 109 c 256
 1268 109 1324 172 1324 271 c 256
 1324 373 1252 425 1146 425 c 258
 719 425 l 257
 719 376 l 257
 753 376 779 366 798 346 c 256
 823 321 835 277 835 215 c 256
 835 126 813 49 733 49 c 256
 685 49 645 79 621 113 c 257
 630 140 635 172 635 209 c 256
1173 289 m 256
 1207 289 1223 264 1223 228 c 256
 1223 185 1212 156 1173 156 c 256
 1139 156 1124 179 1124 216 c 256
 1124 263 1131 289 1173 289 c 256
334 378 m 256
 464 378 504 325 504 193 c 256
 504 148 499 112 485 86 c 256
 473 63 456 51 436 51 c 256
 385 51 374 93 374 151 c 257
 279 151 l 257
 279 90 272 53 219 53 c 256
 163 53 141 119 141 181 c 256
 141 264 159 319 196 348 c 256
 223 368 269 378 334 378 c 256
EndSplineSet
Validated: 41
Ligature2: "'psts' Post Base Substitutions in Telugu lookup 17 subtable" Da UUMatra
EndChar

StartChar: Dcaron
Encoding: 134 270 134
GlifName: D_caron
Width: 440
VWidth: 0
Flags: W
LayerCount: 2
Back
Fore
SplineSet
195 491 m 257
 247 491 l 257
 319 609 l 257
 289 635 l 257
 220 574 l 257
 152 635 l 257
 122 609 l 257
 195 491 l 257
52 460 m 257
 52 0 l 257
 218 0 l 258
 377 0 409 101 409 230 c 256
 409 358 377 460 218 460 c 258
 52 460 l 257
165 41 m 257
 165 419 l 257
 200 419 l 258
 279 419 295 332 295 230 c 256
 295 128 279 41 200 41 c 258
 165 41 l 257
EndSplineSet
Validated: 9
EndChar

StartChar: Dcroat
Encoding: 135 272 135
GlifName: D_croat
Width: 440
VWidth: 0
Flags: W
LayerCount: 2
Back
Fore
SplineSet
52 460 m 257
 52 262 l 257
 16 262 l 257
 16 192 l 257
 52 192 l 257
 52 0 l 257
 218 0 l 258
 377 0 409 101 409 230 c 256
 409 358 377 460 218 460 c 258
 52 460 l 257
165 41 m 257
 165 192 l 257
 267 192 l 257
 267 262 l 257
 165 262 l 257
 165 419 l 257
 200 419 l 258
 279 419 295 332 295 230 c 256
 295 128 279 41 200 41 c 258
 165 41 l 257
EndSplineSet
Validated: 9
EndChar

StartChar: Delta
Encoding: 136 8710 136
GlifName: D_elta
Width: 440
VWidth: 0
Flags: W
LayerCount: 2
Back
Fore
SplineSet
440 0 m 257
 282 460 l 257
 158 460 l 257
 1 0 l 257
 440 0 l 257
305 71 m 257
 91 71 l 257
 198 401 l 257
 305 71 l 257
EndSplineSet
Validated: 9
EndChar

StartChar: Dha
Encoding: 137 3111 137
GlifName: D_ha
Width: 697
VWidth: 0
Flags: W
AnchorPoint: "Anchor-0" 0 0 basechar 0
LayerCount: 2
Back
Fore
SplineSet
635 209 m 256
 635 318 560 384 464 410 c 257
NamedP: "hr00"
 540 445 597 489 664 556 c 257
 538 589 l 257
 511 549 477 512 436 479 c 256
 397 448 365 430 338 426 c 257
 316 426 l 257
 284 433 264 473 264 511 c 257
 154 511 l 257
 154 469 168 437 196 414 c 257
 83 390 10 329 10 201 c 256
 10 64 73 0 210 0 c 256
 264 0 300 14 326 44 c 257
 344 15 391 0 439 0 c 256
 572 0 633 74 635 209 c 256
325 -146 m 256
 371 -146 389 -119 398 -77 c 257
 398 -30 375 -7 328 -7 c 256
 286 -7 266 -39 266 -82 c 256
 266 -125 283 -146 325 -146 c 256
334 378 m 256
 464 378 504 325 504 193 c 256
 504 148 499 112 485 86 c 256
 473 63 456 51 436 51 c 256
 385 51 374 93 374 151 c 257
 279 151 l 257
 279 90 272 53 219 53 c 256
 163 53 141 119 141 181 c 256
 141 264 159 319 196 348 c 256
 223 368 269 378 334 378 c 256
EndSplineSet
Validated: 9
EndChar

StartChar: DhaAA
Encoding: 138 -1 138
GlifName: D_haA_A_
Width: 1071
VWidth: 0
Flags: W
AnchorPoint: "Anchor-0" 0 0 basechar 0
LayerCount: 2
Back
Fore
SplineSet
439 0 m 256
 572 0 633 74 635 209 c 256
 635 272 612 322 566 360 c 256
 558 367 550 373 541 378 c 257
 805 378 l 258
NamedP: "hr00"
 861 378 893 360 906 320 c 257
 888 332 874 334 840 334 c 256
 757 334 703 297 703 218 c 256
 703 141 773 110 855 110 c 256
 954 110 1010 173 1010 273 c 256
 1010 374 938 426 833 426 c 258
 35 426 l 257
 35 378 l 257
 99 378 l 257
 90 372 81 366 73 359 c 256
 31 322 10 270 10 201 c 256
 10 64 73 0 210 0 c 256
 264 0 300 14 326 44 c 257
 344 15 391 0 439 0 c 256
219 53 m 256
 163 53 141 119 141 181 c 256
 141 264 159 319 196 348 c 256
 223 368 268 378 333 378 c 258
 335 378 l 258
 464 378 504 324 504 193 c 256
 504 148 499 112 485 86 c 256
 473 63 456 51 436 51 c 256
 385 51 374 93 374 151 c 257
 279 151 l 257
 279 90 272 53 219 53 c 256
325 -146 m 256
 371 -146 389 -119 398 -77 c 257
 398 -30 375 -7 328 -7 c 256
 286 -7 266 -39 266 -82 c 256
 266 -125 283 -146 325 -146 c 256
859 290 m 256
 894 290 909 267 909 229 c 256
 909 185 898 158 859 158 c 256
 824 158 804 182 804 218 c 256
 804 263 818 290 859 290 c 256
EndSplineSet
Validated: 9
Ligature2: "'abvs' Above Base Substitutions in Telugu lookup 9 subtable" Dha AAMatra
EndChar

StartChar: DhaAU
Encoding: 139 -1 139
GlifName: D_haA_U_
Width: 1041
VWidth: 0
Flags: W
AnchorPoint: "Anchor-0" 0 0 basechar 0
LayerCount: 2
Back
Fore
SplineSet
635 209 m 256
 635 284 597 347 537 380 c 257
NamedP: "hr00"
 571 388 596 410 596 448 c 256
 596 471 588 487 571 495 c 257
 809 495 l 258
 851 495 887 481 895 448 c 257
 879 458 850 459 819 459 c 256
 749 459 703 443 703 378 c 256
 703 307 769 278 845 278 c 256
 933 278 996 321 996 406 c 256
 996 495 912 549 819 549 c 258
 90 549 l 257
 90 490 l 257
 456 490 l 258
 477 490 491 480 491 460 c 256
 491 433 479 425 451 425 c 258
 367 425 l 258
 355 425 343 426 330 426 c 256
 315 426 301 425 288 425 c 258
 165 425 l 257
 165 406 l 257
 71 378 10 316 10 201 c 256
 10 64 73 0 210 0 c 256
 264 0 300 14 326 44 c 257
 344 15 391 0 439 0 c 256
 572 0 633 74 635 209 c 256
325 -146 m 256
 371 -146 389 -119 398 -77 c 257
 398 -30 375 -7 328 -7 c 256
 286 -7 266 -39 266 -82 c 256
 266 -125 283 -146 325 -146 c 256
849 423 m 256
 880 423 898 408 898 378 c 256
 898 341 885 318 849 318 c 256
 816 318 801 335 801 365 c 256
 801 405 811 423 849 423 c 256
334 378 m 256
 464 378 504 325 504 193 c 256
 504 148 499 112 485 86 c 256
 473 63 456 51 436 51 c 256
 385 51 374 93 374 151 c 257
 279 151 l 257
 279 90 272 53 219 53 c 256
 163 53 141 119 141 181 c 256
 141 264 159 319 196 348 c 256
 223 368 269 378 334 378 c 256
EndSplineSet
Validated: 9
Ligature2: "'abvs' Above Base Substitutions in Telugu lookup 16 subtable" Dha AuMatra
EndChar

StartChar: DhaE
Encoding: 140 -1 140
GlifName: D_haE_
Width: 697
VWidth: 0
Flags: W
AnchorPoint: "Anchor-1" 0 0 basechar 0
AnchorPoint: "Anchor-0" 0 0 basechar 0
LayerCount: 2
Back
Fore
SplineSet
635 209 m 256
 635 289 592 351 530 385 c 257
NamedP: "hr00"
 565 397 588 431 588 474 c 256
 588 528 543 565 496 575 c 257
 34 575 l 257
 34 518 l 257
 435 518 l 258
 462 518 475 503 475 474 c 256
 475 450 459 440 439 426 c 257
 204 426 l 257
 204 415 l 257
 86 392 10 333 10 201 c 256
 10 64 73 0 210 0 c 256
 264 0 300 14 326 44 c 257
 344 15 391 0 439 0 c 256
 572 0 633 74 635 209 c 256
325 -146 m 256
 371 -146 389 -119 398 -77 c 257
 398 -30 375 -7 328 -7 c 256
 286 -7 266 -39 266 -82 c 256
 266 -125 283 -146 325 -146 c 256
334 378 m 256
 464 378 504 325 504 193 c 256
 504 148 499 112 485 86 c 256
 473 63 456 51 436 51 c 256
 385 51 374 93 374 151 c 257
 279 151 l 257
 279 90 272 53 219 53 c 256
 163 53 141 119 141 181 c 256
 141 264 159 319 196 348 c 256
 223 368 269 378 334 378 c 256
EndSplineSet
Validated: 9
PairPos2: "'blwm' Below Base Mark in Telugu lookup 14 subtable" Titvam dx=0 dy=0 dh=18 dv=0 dx=-774 dy=-25 dh=0 dv=0
PairPos2: "'blwm' Below Base Mark in Telugu lookup 0 subtable" tvam dx=0 dy=0 dh=0 dv=0 dx=-830 dy=20 dh=0 dv=0
Ligature2: "'abvs' Above Base Substitutions in Telugu lookup 12 subtable" Dha uni0C46
EndChar

StartChar: DhaEE
Encoding: 141 -1 141
GlifName: D_haE_E_
Width: 698
VWidth: 0
Flags: W
AnchorPoint: "Anchor-0" 0 0 basechar 0
LayerCount: 2
Back
Fore
SplineSet
635 209 m 256
 635 289 592 351 530 385 c 257
NamedP: "hr00"
 565 397 588 431 588 474 c 256
 588 528 543 565 496 575 c 257
 470 575 l 257
 466 589 464 603 464 616 c 256
 464 650 483 660 519 660 c 256
 551 660 573 639 573 608 c 257
 664 608 l 257
 664 686 599 704 510 704 c 256
 436 704 366 684 366 618 c 256
 366 608 367 600 370 593 c 258
 378 575 l 257
 34 575 l 257
 34 518 l 257
 435 518 l 258
 462 518 475 503 475 474 c 256
 475 450 459 440 439 426 c 257
 204 426 l 257
 204 415 l 257
 86 392 10 333 10 201 c 256
 10 64 73 0 210 0 c 256
 264 0 300 14 326 44 c 257
 344 15 391 0 439 0 c 256
 572 0 633 74 635 209 c 256
325 -146 m 256
 371 -146 389 -119 398 -77 c 257
 398 -30 375 -7 328 -7 c 256
 286 -7 266 -39 266 -82 c 256
 266 -125 283 -146 325 -146 c 256
334 378 m 256
 464 378 504 325 504 193 c 256
 504 148 499 112 485 86 c 256
 473 63 456 51 436 51 c 256
 385 51 374 93 374 151 c 257
 279 151 l 257
 279 90 272 53 219 53 c 256
 163 53 141 119 141 181 c 256
 141 264 159 319 196 348 c 256
 223 368 269 378 334 378 c 256
EndSplineSet
Validated: 9
Ligature2: "'abvs' Above Base Substitutions in Telugu lookup 13 subtable" Dha EEMatra
EndChar

StartChar: DhaHalanth
Encoding: 142 -1 142
GlifName: D_haH_alanth
Width: 697
VWidth: 0
Flags: W
AnchorPoint: "Anchor-0" 0 0 basechar 0
LayerCount: 2
Back
Fore
SplineSet
439 0 m 256
 572 0 633 74 635 209 c 256
 635 272 612 322 566 360 c 256
 514 403 437 425 336 426 c 257
 336 427 l 257
NamedP: "hr00"
 289 427 l 258
 268 427 246 440 246 459 c 256
 246 475 269 485 286 485 c 258
 481 485 l 257
 481 537 l 257
 284 537 l 258
 266 537 246 549 246 566 c 256
 246 587 271 599 293 599 c 258
 623 599 l 257
 623 656 l 257
 210 656 l 258
 161 656 118 620 118 574 c 256
 118 543 138 517 160 505 c 257
 133 503 114 476 114 447 c 256
 114 427 124 411 138 397 c 257
 59 365 10 304 10 201 c 256
 10 64 73 0 210 0 c 256
 264 0 300 14 326 44 c 257
 344 15 391 0 439 0 c 256
325 -146 m 256
 371 -146 389 -119 398 -77 c 257
 398 -30 375 -7 328 -7 c 256
 286 -7 266 -39 266 -82 c 256
 266 -125 283 -146 325 -146 c 256
334 378 m 256
 464 378 504 325 504 193 c 256
 504 148 499 112 485 86 c 256
 473 63 456 51 436 51 c 256
 385 51 374 93 374 151 c 257
 279 151 l 257
 279 90 272 53 219 53 c 256
 163 53 141 119 141 181 c 256
 141 264 159 319 196 348 c 256
 223 368 269 378 334 378 c 256
EndSplineSet
Validated: 9
Ligature2: "'haln' Halant Forms in Telugu lookup 19 subtable" Dha Halanth
EndChar

StartChar: DhaI
Encoding: 143 -1 143
GlifName: D_haI_
Width: 698
VWidth: 0
Flags: W
AnchorPoint: "Anchor-0" 0 0 basechar 0
LayerCount: 2
Back
Fore
SplineSet
278 151 m 257
 278 90 270 53 218 53 c 256
 193 53 176 60 165 74 c 256
 150 93 142 129 141 181 c 256
NamedP: "hr00"
 141 264 161 299 239 299 c 256
 305 299 368 341 368 403 c 256
 368 420 364 436 356 451 c 257
 397 451 430 434 455 400 c 256
 484 362 499 305 499 230 c 256
 499 162 493 114 481 86 c 256
 471 63 456 51 435 51 c 256
 384 51 373 93 373 151 c 257
 278 151 l 257
324 -146 m 256
 370 -146 388 -120 396 -77 c 257
 396 -29 374 -7 326 -7 c 256
 285 -7 265 -39 265 -82 c 256
 265 -125 282 -146 324 -146 c 256
86 316 m 257
 39 287 10 245 10 175 c 256
 10 60 90 0 209 0 c 256
 262 0 299 15 325 44 c 257
 341 14 391 0 438 0 c 256
 570 0 630 73 630 209 c 256
 630 412 504 506 295 506 c 256
 212 506 150 497 109 481 c 256
 62 462 39 433 39 391 c 256
 39 359 62 326 86 316 c 257
228 453 m 256
 264 453 279 440 279 403 c 256
 279 361 268 345 228 345 c 256
 186 345 170 359 170 400 c 256
 170 440 188 453 228 453 c 256
EndSplineSet
Validated: 9
Ligature2: "'abvs' Above Base Substitutions in Telugu lookup 10 subtable" Dha Imatra
EndChar

StartChar: DhaII
Encoding: 144 -1 144
GlifName: D_haI_I_
Width: 698
VWidth: 0
Flags: W
AnchorPoint: "Anchor-0" 0 0 basechar 0
LayerCount: 2
Back
Fore
SplineSet
228 453 m 256
 264 453 279 440 279 403 c 256
NamedP: "hr00"
 279 361 268 345 228 345 c 256
 186 345 170 359 170 400 c 256
 170 440 188 453 228 453 c 256
324 -146 m 256
 370 -146 388 -120 396 -77 c 257
 396 -29 374 -7 326 -7 c 256
 285 -7 265 -39 265 -82 c 256
 265 -125 282 -146 324 -146 c 256
278 151 m 257
 278 90 270 53 218 53 c 256
 193 53 176 60 165 74 c 256
 150 93 142 129 141 181 c 256
 141 264 161 299 239 299 c 256
 305 299 368 341 368 403 c 256
 368 420 364 436 356 451 c 257
 397 451 430 434 455 400 c 256
 484 362 499 305 499 230 c 256
 499 162 493 114 481 86 c 256
 471 63 456 51 435 51 c 256
 384 51 373 93 373 151 c 257
 278 151 l 257
630 209 m 256
 630 397 511 506 321 506 c 258
 316 506 l 257
 295 513 288 532 288 564 c 256
 288 598 307 608 343 608 c 256
 375 608 396 586 396 555 c 257
 488 555 l 257
 488 561 l 258
 488 635 418 651 334 651 c 256
 259 651 190 632 190 565 c 256
 190 532 202 516 224 504 c 257
 162 501 116 489 85 469 c 256
 54 450 39 424 39 391 c 256
 39 359 62 326 86 316 c 257
 39 287 10 245 10 175 c 256
 10 60 90 0 209 0 c 256
 262 0 299 15 325 44 c 257
 341 14 391 0 438 0 c 256
 570 0 630 73 630 209 c 256
EndSplineSet
Validated: 9
Ligature2: "'abvs' Above Base Substitutions in Telugu lookup 11 subtable" Dha IIMatra
EndChar

StartChar: DhaO
Encoding: 145 -1 145
GlifName: D_haO_
Width: 1056
VWidth: 0
Flags: W
AnchorPoint: "Anchor-0" 0 0 basechar 0
LayerCount: 2
Back
Fore
SplineSet
439 0 m 256
 572 0 633 74 635 209 c 256
 635 272 612 322 566 360 c 256
 513 404 434 426 330 426 c 256
 315 426 301 425 288 425 c 258
 265 425 l 258
NamedP: "hr00"
 235 425 195 437 195 464 c 256
 195 483 209 497 238 508 c 256
 265 518 304 524 355 524 c 256
 418 524 464 517 494 503 c 256
 523 490 538 468 538 438 c 257
 604 438 l 257
 604 510 686 530 768 530 c 256
 830 530 905 514 905 460 c 257
 888 472 863 474 833 474 c 256
 763 474 701 442 701 378 c 256
 701 296 764 250 848 250 c 256
 945 250 1010 316 1010 413 c 256
 1010 542 906 585 766 585 c 256
 679 585 610 562 570 516 c 257
 530 565 440 584 346 584 c 256
 259 584 190 573 141 550 c 256
 93 527 69 496 69 456 c 256
 69 420 88 399 116 387 c 257
 50 354 10 293 10 201 c 256
 10 64 73 0 210 0 c 256
 264 0 300 14 326 44 c 257
 344 15 391 0 439 0 c 256
325 -146 m 256
 371 -146 389 -119 398 -77 c 257
 398 -30 375 -7 328 -7 c 256
 286 -7 266 -39 266 -82 c 256
 266 -125 283 -146 325 -146 c 256
858 430 m 256
 892 430 909 402 909 365 c 256
 909 325 895 298 858 298 c 256
 816 298 803 326 803 370 c 256
 803 414 815 430 858 430 c 256
334 378 m 256
 464 378 504 325 504 193 c 256
 504 148 499 112 485 86 c 256
 473 63 456 51 436 51 c 256
 385 51 374 93 374 151 c 257
 279 151 l 257
 279 90 272 53 219 53 c 256
 163 53 141 119 141 181 c 256
 141 264 159 319 196 348 c 256
 223 368 269 378 334 378 c 256
EndSplineSet
Validated: 9
Ligature2: "'abvs' Above Base Substitutions in Telugu lookup 14 subtable" Dha OMatra
EndChar

StartChar: DhaOO
Encoding: 146 -1 146
GlifName: D_haO_O_
Width: 1063
VWidth: 0
Flags: W
AnchorPoint: "Anchor-0" 0 0 basechar 0
LayerCount: 2
Back
Fore
SplineSet
439 0 m 256
 572 0 633 74 635 209 c 256
 635 272 612 322 566 360 c 256
 513 404 434 426 330 426 c 256
 315 426 301 425 288 425 c 258
 271 425 l 258
NamedP: "hr00"
 242 425 201 437 201 464 c 256
 201 483 215 497 244 508 c 256
 271 518 310 524 361 524 c 256
 422 524 467 516 495 503 c 256
 524 489 538 468 538 438 c 257
 604 438 l 257
 604 510 686 530 768 530 c 256
 830 530 905 514 905 460 c 257
 888 472 863 474 833 474 c 256
 764 474 703 441 703 374 c 256
 703 296 765 250 848 250 c 256
 945 250 1010 316 1010 413 c 256
 1010 500 929 561 853 578 c 257
 842 587 834 603 834 624 c 256
 834 653 860 668 889 668 c 256
 922 668 943 647 943 615 c 257
 1034 615 l 257
 1034 683 957 711 880 711 c 256
 810 711 736 689 736 625 c 256
 736 610 738 594 745 585 c 257
 669 585 606 553 570 510 c 257
 527 559 447 584 353 584 c 256
 265 584 197 574 148 553 c 256
 99 531 75 501 75 463 c 256
 75 434 85 413 104 399 c 257
 121 390 l 257
 52 357 10 295 10 201 c 256
 10 64 73 0 210 0 c 256
 264 0 300 14 326 44 c 257
 344 15 391 0 439 0 c 256
325 -146 m 256
 371 -146 389 -119 398 -77 c 257
 398 -30 375 -7 328 -7 c 256
 286 -7 266 -39 266 -82 c 256
 266 -125 283 -146 325 -146 c 256
851 430 m 256
 886 430 909 412 909 378 c 256
 909 331 894 298 851 298 c 256
 817 298 803 321 803 358 c 256
 803 403 810 430 851 430 c 256
334 378 m 256
 464 378 504 325 504 193 c 256
 504 148 499 112 485 86 c 256
 473 63 456 51 436 51 c 256
 385 51 374 93 374 151 c 257
 279 151 l 257
 279 90 272 53 219 53 c 256
 163 53 141 119 141 181 c 256
 141 264 159 319 196 348 c 256
 223 368 269 378 334 378 c 256
EndSplineSet
Validated: 9
Ligature2: "'abvs' Above Base Substitutions in Telugu lookup 15 subtable" Dha OOMatra
EndChar

StartChar: DhaOttu
Encoding: 147 -1 147
GlifName: D_haO_ttu
Width: 35
VWidth: 0
Flags: W
AnchorPoint: "Anchor-0" -45 25 mark 0
LayerCount: 2
Back
Fore
SplineSet
278 -482 m 256
 309 -482 319 -465 319 -435 c 256
NamedP: "hr00"
 319 -401 311 -387 280 -387 c 256
 247 -387 239 -403 239 -438 c 256
 239 -466 251 -482 278 -482 c 256
356 -382 m 256
 448 -382 491 -331 491 -238 c 256
 491 -195 475 -161 443 -135 c 256
 407 -104 353 -89 282 -89 c 256
 152 -89 62 -124 62 -243 c 256
 62 -337 104 -382 199 -382 c 256
 238 -382 259 -372 280 -351 c 257
 291 -370 326 -382 356 -382 c 256
285 -124 m 256
 376 -124 401 -158 401 -250 c 256
 401 -294 392 -346 355 -346 c 256
 318 -346 311 -318 311 -277 c 257
 247 -277 l 257
 247 -319 243 -346 206 -346 c 256
 168 -346 156 -301 156 -258 c 256
 156 -153 183 -124 285 -124 c 256
EndSplineSet
Validated: 9
Ligature2: "'blwf' Below Base Forms in Telugu lookup 2 subtable" Dha Halanth
EndChar

StartChar: DhaU
Encoding: 148 -1 148
GlifName: D_haU_
Width: 1023
VWidth: 0
Flags: W
AnchorPoint: "Anchor-3" 0 0 basechar 0
AnchorPoint: "Anchor-0" 0 0 basechar 0
LayerCount: 2
Back
Fore
SplineSet
635 209 m 256
 637 318 559 384 464 410 c 257
 540 445 597 489 664 556 c 257
 538 589 l 257
 511 549 477 512 436 479 c 256
 397 448 365 430 338 426 c 257
 316 426 l 257
NamedP: "hr00"
 284 433 264 473 264 511 c 257
 154 511 l 257
 154 469 168 437 196 414 c 257
 83 390 10 329 10 201 c 256
 10 64 73 0 210 0 c 256
 264 0 300 14 326 44 c 257
 344 15 391 0 439 0 c 256
 500 0 550 14 580 48 c 258
 595 65 l 257
 626 25 684 -1 751 -1 c 256
 880 -1 960 90 960 220 c 256
 960 341 884 425 763 425 c 258
 720 425 l 257
 720 376 l 257
 796 376 829 298 829 215 c 256
 829 133 803 49 731 49 c 256
 684 49 644 78 620 112 c 257
 629 139 635 172 635 209 c 256
325 -146 m 256
 371 -146 389 -119 398 -77 c 257
 398 -30 375 -7 328 -7 c 256
 286 -7 266 -39 266 -82 c 256
 266 -125 283 -146 325 -146 c 256
334 378 m 256
 464 378 504 325 504 193 c 256
 504 148 499 112 485 86 c 256
 473 63 456 51 436 51 c 256
 385 51 374 93 374 151 c 257
 279 151 l 257
 279 90 272 53 219 53 c 256
 163 53 141 119 141 181 c 256
 141 264 159 319 196 348 c 256
 223 368 269 378 334 378 c 256
EndSplineSet
Validated: 41
Ligature2: "'psts' Post Base Substitutions in Telugu lookup 17 subtable" Dha UMatra
EndChar

StartChar: DhaUU
Encoding: 149 -1 149
GlifName: D_haU_U_
Width: 1381
VWidth: 0
Flags: W
AnchorPoint: "Anchor-3" 0 0 basechar 0
AnchorPoint: "Anchor-0" 0 0 basechar 0
LayerCount: 2
Back
Fore
SplineSet
635 209 m 256
 637 318 559 384 464 410 c 257
 540 445 597 489 664 556 c 257
 538 589 l 257
 511 549 477 512 436 479 c 256
 397 448 365 430 338 426 c 257
 316 426 l 257
NamedP: "hr00"
 284 433 264 473 264 511 c 257
 154 511 l 257
 154 469 168 437 196 414 c 257
 83 390 10 329 10 201 c 256
 10 64 73 0 210 0 c 256
 264 0 300 14 326 44 c 257
 344 15 391 0 439 0 c 256
 510 0 565 23 596 66 c 257
 625 25 687 -1 753 -1 c 256
 884 -1 966 89 966 220 c 256
 966 283 948 334 919 369 c 257
 1119 369 l 258
 1159 369 1186 364 1200 355 c 256
 1210 349 1217 337 1220 319 c 257
 1204 331 1174 333 1141 333 c 256
 1072 333 1023 286 1023 216 c 256
 1023 145 1093 109 1169 109 c 256
 1268 109 1324 172 1324 271 c 256
 1324 373 1252 425 1146 425 c 258
 719 425 l 257
 719 376 l 257
 753 376 779 366 798 346 c 256
 823 321 835 277 835 215 c 256
 835 126 813 49 733 49 c 256
 685 49 645 79 621 113 c 257
 630 140 635 172 635 209 c 256
325 -146 m 256
 371 -146 389 -119 398 -77 c 257
 398 -30 375 -7 328 -7 c 256
 286 -7 266 -39 266 -82 c 256
 266 -125 283 -146 325 -146 c 256
1173 289 m 256
 1207 289 1223 264 1223 228 c 256
 1223 185 1212 156 1173 156 c 256
 1139 156 1124 179 1124 216 c 256
 1124 263 1131 289 1173 289 c 256
334 378 m 256
 464 378 504 325 504 193 c 256
 504 148 499 112 485 86 c 256
 473 63 456 51 436 51 c 256
 385 51 374 93 374 151 c 257
 279 151 l 257
 279 90 272 53 219 53 c 256
 163 53 141 119 141 181 c 256
 141 264 159 319 196 348 c 256
 223 368 269 378 334 378 c 256
EndSplineSet
Validated: 41
Ligature2: "'psts' Post Base Substitutions in Telugu lookup 17 subtable" Dha UUMatra
EndChar

StartChar: DoubleDanda
Encoding: 151 -1 151
GlifName: D_oubleD_anda
Width: 3
VWidth: 0
Flags: W
AnchorPoint: "Anchor-1" -45 9 mark 0
LayerCount: 2
Back
Fore
SplineSet
229 -646 m 256
 257 -646 277 -664 277 -691 c 256
NamedP: "hr00"
 277 -721 261 -734 229 -734 c 256
 200 -734 183 -721 183 -691 c 256
 183 -663 201 -646 229 -646 c 256
100 -705 m 256
 100 -762 156 -790 217 -790 c 258
 694 -790 l 257
 694 -734 l 257
 345 -734 l 257
 354 -725 360 -707 360 -687 c 256
 360 -635 295 -613 236 -613 c 256
 161 -613 100 -637 100 -705 c 256
254 -436 m 256
 270 -436 277 -447 277 -464 c 256
 277 -485 271 -497 252 -497 c 256
 235 -497 226 -486 226 -469 c 256
 226 -447 233 -436 254 -436 c 256
373 -437 m 256
 404 -437 410 -467 410 -503 c 256
 410 -542 402 -567 366 -567 c 256
 351 -567 336 -562 336 -548 c 258
 336 -531 l 257
 281 -531 l 257
 281 -543 l 258
 281 -561 270 -565 251 -565 c 256
 223 -565 212 -535 212 -504 c 257
 218 -514 243 -520 259 -520 c 256
 298 -520 323 -505 323 -468 c 256
 323 -432 292 -414 254 -414 c 256
 196 -414 163 -447 163 -504 c 256
 163 -563 193 -593 252 -593 c 256
 276 -593 297 -583 307 -568 c 257
 316 -583 342 -593 367 -593 c 256
 430 -593 469 -562 469 -501 c 256
 469 -443 431 -416 370 -416 c 258
 362 -416 l 257
 362 -438 l 257
 365 -437 368 -437 373 -437 c 256
271 -227 m 256
 302 -227 316 -247 316 -281 c 256
 316 -319 306 -343 271 -343 c 256
 239 -343 224 -321 224 -289 c 256
 224 -249 233 -227 271 -227 c 256
537 -371 m 256
 537 -316 554 -296 554 -242 c 256
 554 -150 508 -93 417 -93 c 258
 397 -93 l 257
 397 -130 l 257
 449 -130 470 -180 470 -235 c 256
 470 -293 464 -353 419 -353 c 256
 389 -353 386 -334 386 -299 c 256
 386 -219 348 -181 269 -181 c 256
 200 -181 140 -220 140 -287 c 256
 140 -350 189 -387 255 -387 c 256
 297 -387 326 -379 346 -359 c 257
 362 -380 383 -390 419 -390 c 256
 437 -390 454 -387 469 -382 c 257
 467 -389 466 -398 466 -411 c 256
 466 -441 479 -459 502 -468 c 257
 570 -433 l 257
 548 -427 537 -399 537 -371 c 256
EndSplineSet
Validated: 9
Ligature2: "'blws' Below Base Substitutions in Telugu lookup 7 subtable" LowItvam SsaTtaOttu
EndChar

StartChar: E
Encoding: 152 69 152
GlifName: E_
Width: 353
VWidth: 0
Flags: W
LayerCount: 2
Back
Fore
SplineSet
338 54 m 257
 165 54 l 257
 165 207 l 257
 308 207 l 257
 308 261 l 257
 165 261 l 257
 165 406 l 257
 326 406 l 257
 326 460 l 257
 52 460 l 257
 52 0 l 257
 338 0 l 257
 338 54 l 257
EndSplineSet
Validated: 9
EndChar

StartChar: EE
Encoding: 153 3087 153
GlifName: E_E_
Width: 655
VWidth: 0
Flags: W
LayerCount: 2
Back
Fore
SplineSet
199 234 m 256
 250 234 265 208 265 155 c 256
NamedP: "hr00"
 265 97 251 64 199 64 c 256
 153 64 141 93 141 144 c 256
 141 181 147 206 158 219 c 256
 165 229 179 234 199 234 c 256
309 41 m 257
 331 11 361 -2 415 -2 c 256
 547 -2 617 100 621 236 c 256
 625 399 539 505 381 505 c 257
 381 454 l 257
 467 454 490 344 490 244 c 256
 490 183 483 136 470 103 c 256
 457 68 438 51 415 51 c 256
 371 51 366 79 366 129 c 256
 366 246 314 300 198 300 c 256
 95 300 10 243 10 146 c 256
 10 57 84 0 176 0 c 256
 236 0 277 13 309 41 c 257
286 568 m 256
 306 568 314 566 328 564 c 257
 328 621 l 257
 310 624 293 625 276 625 c 256
 153 625 44 557 44 441 c 256
 44 429 45 416 48 401 c 257
 168 401 l 257
 165 413 175 440 175 453 c 256
 175 529 211 568 286 568 c 256
EndSplineSet
Validated: 41
EndChar

StartChar: EEMatra
Encoding: 154 3143 154
GlifName: E_E_M_atra
Width: 0
VWidth: 0
Flags: W
LayerCount: 2
Back
Fore
SplineSet
176 361 m 258
 229 361 273 405 273 459 c 256
NamedP: "hr00"
 273 517 240 560 182 560 c 257
 156 564 149 572 149 602 c 256
 149 636 168 646 204 646 c 256
 237 646 258 625 258 593 c 257
 350 593 l 257
 350 672 283 690 195 690 c 256
 120 690 50 669 50 603 c 256
 50 584 56 570 64 560 c 257
 -291 560 l 257
 -291 502 l 257
 120 502 l 257
 141 492 160 482 160 459 c 256
 160 433 148 410 124 410 c 258
 -126 410 l 257
 -126 361 l 257
 176 361 l 258
EndSplineSet
Validated: 9
EndChar

StartChar: Eacute
Encoding: 155 201 155
GlifName: E_acute
Width: 353
VWidth: 0
Flags: W
LayerCount: 2
Back
Fore
SplineSet
160 494 m 257
 288 580 l 257
 224 653 l 257
 139 519 l 257
 160 494 l 257
338 54 m 257
 165 54 l 257
 165 207 l 257
 308 207 l 257
 308 261 l 257
 165 261 l 257
 165 406 l 257
 326 406 l 257
 326 460 l 257
 52 460 l 257
 52 0 l 257
 338 0 l 257
 338 54 l 257
EndSplineSet
Validated: 9
EndChar

StartChar: Ebreve
Encoding: 156 276 156
GlifName: E_breve
Width: 353
VWidth: 0
Flags: W
LayerCount: 2
Back
Fore
SplineSet
289 616 m 257
 242 616 l 257
 242 582 226 563 188 563 c 256
 150 563 132 582 132 616 c 257
 88 616 l 257
 88 559 105 498 188 498 c 256
 272 498 289 559 289 616 c 257
  PathStart: -2
338 54 m 257
 165 54 l 257
 165 207 l 257
 308 207 l 257
 308 261 l 257
 165 261 l 257
 165 406 l 257
 326 406 l 257
 326 460 l 257
 52 460 l 257
 52 0 l 257
 338 0 l 257
 338 54 l 257
EndSplineSet
Validated: 9
EndChar

StartChar: Ecaron
Encoding: 157 282 157
GlifName: E_caron
Width: 353
VWidth: 0
Flags: W
LayerCount: 2
Back
Fore
SplineSet
165 491 m 257
 216 491 l 257
 288 609 l 257
 258 635 l 257
 189 574 l 257
 122 635 l 257
 91 609 l 257
 165 491 l 257
338 54 m 257
 165 54 l 257
 165 207 l 257
 308 207 l 257
 308 261 l 257
 165 261 l 257
 165 406 l 257
 326 406 l 257
 326 460 l 257
 52 460 l 257
 52 0 l 257
 338 0 l 257
 338 54 l 257
EndSplineSet
Validated: 9
EndChar

StartChar: Ecircumflex
Encoding: 158 202 158
GlifName: E_circumflex
Width: 353
VWidth: 0
Flags: W
LayerCount: 2
Back
Fore
SplineSet
121 491 m 257
 188 552 l 257
 257 491 l 257
 287 516 l 257
 215 635 l 257
 164 635 l 257
 90 516 l 257
 121 491 l 257
338 54 m 257
 165 54 l 257
 165 207 l 257
 308 207 l 257
 308 261 l 257
 165 261 l 257
 165 406 l 257
 326 406 l 257
 326 460 l 257
 52 460 l 257
 52 0 l 257
 338 0 l 257
 338 54 l 257
EndSplineSet
Validated: 9
EndChar

StartChar: Edieresis
Encoding: 159 203 159
GlifName: E_dieresis
Width: 353
VWidth: 0
Flags: W
LayerCount: 2
Back
Fore
SplineSet
168 558 m 256
 168 591 141 618 109 618 c 256
 76 618 50 591 50 558 c 256
 50 527 76 499 109 499 c 256
 141 499 168 526 168 558 c 256
  PathStart: -2
329 558 m 256
 329 591 302 618 268 618 c 256
 237 618 210 591 210 558 c 256
 210 527 237 499 268 499 c 256
 302 499 329 526 329 558 c 256
  PathStart: -2
338 54 m 257
 165 54 l 257
 165 207 l 257
 308 207 l 257
 308 261 l 257
 165 261 l 257
 165 406 l 257
 326 406 l 257
 326 460 l 257
 52 460 l 257
 52 0 l 257
 338 0 l 257
 338 54 l 257
EndSplineSet
Validated: 9
EndChar

StartChar: Edotaccent
Encoding: 160 278 160
GlifName: E_dotaccent
Width: 353
VWidth: 0
Flags: W
LayerCount: 2
Back
Fore
SplineSet
255 559 m 256
 255 596 226 626 189 626 c 256
 152 626 123 596 123 559 c 256
 123 523 152 493 189 493 c 256
 226 493 255 523 255 559 c 256
  PathStart: -2
338 54 m 257
 165 54 l 257
 165 207 l 257
 308 207 l 257
 308 261 l 257
 165 261 l 257
 165 406 l 257
 326 406 l 257
 326 460 l 257
 52 460 l 257
 52 0 l 257
 338 0 l 257
 338 54 l 257
EndSplineSet
Validated: 9
EndChar

StartChar: Egrave
Encoding: 161 200 161
GlifName: E_grave
Width: 353
VWidth: 0
Flags: W
LayerCount: 2
Back
Fore
SplineSet
216 494 m 257
 238 519 l 257
 152 653 l 257
 88 580 l 257
 216 494 l 257
338 54 m 257
 165 54 l 257
 165 207 l 257
 308 207 l 257
 308 261 l 257
 165 261 l 257
 165 406 l 257
 326 406 l 257
 326 460 l 257
 52 460 l 257
 52 0 l 257
 338 0 l 257
 338 54 l 257
EndSplineSet
Validated: 9
EndChar

StartChar: Emacron
Encoding: 162 274 162
GlifName: E_macron
Width: 353
VWidth: 0
Flags: W
LayerCount: 2
Back
Fore
SplineSet
287 511 m 257
 287 587 l 257
 91 587 l 257
 91 511 l 257
 287 511 l 257
338 54 m 257
 165 54 l 257
 165 207 l 257
 308 207 l 257
 308 261 l 257
 165 261 l 257
 165 406 l 257
 326 406 l 257
 326 460 l 257
 52 460 l 257
 52 0 l 257
 338 0 l 257
 338 54 l 257
EndSplineSet
Validated: 9
EndChar

StartChar: Eng
Encoding: 163 330 163
GlifName: E_ng
Width: 480
VWidth: 0
Flags: W
LayerCount: 2
Back
Fore
SplineSet
428 460 m 257
 361 460 l 257
 361 118 l 257
 168 460 l 257
 50 460 l 257
 50 0 l 257
 117 0 l 257
 117 342 l 257
 310 0 l 257
 316 -13 l 257
 316 -27 l 258
 316 -50 303 -68 277 -68 c 256
 256 -68 239 -54 225 -32 c 257
 193 -112 l 257
 227 -127 260 -134 288 -134 c 256
 384 -134 428 -89 428 -4 c 258
 428 460 l 257
EndSplineSet
Validated: 9
EndChar

StartChar: Eogonek
Encoding: 164 280 164
GlifName: E_ogonek
Width: 353
VWidth: 0
Flags: W
LayerCount: 2
Back
Fore
SplineSet
348 -50 m 257
 338 -67 325 -86 301 -86 c 256
 286 -86 275 -77 275 -62 c 256
 275 -49 281 -35 309 -17 c 257
 338 0 l 257
 338 54 l 257
 165 54 l 257
 165 207 l 257
 308 207 l 257
 308 261 l 257
 165 261 l 257
 165 406 l 257
 326 406 l 257
 326 460 l 257
 52 460 l 257
 52 0 l 257
 282 0 l 257
 278 -3 l 257
 247 -21 221 -45 221 -78 c 256
 221 -114 250 -138 288 -138 c 256
 332 -138 367 -99 383 -72 c 257
 348 -50 l 257
EndSplineSet
Validated: 9
EndChar

StartChar: Eth
Encoding: 165 208 165
GlifName: E_th
Width: 440
VWidth: 0
Flags: W
LayerCount: 2
Back
Fore
SplineSet
52 460 m 257
 52 263 l 257
 30 263 l 257
 30 191 l 257
 52 191 l 257
 52 0 l 257
 218 0 l 258
 377 0 409 101 409 230 c 256
 409 358 377 460 218 460 c 258
 52 460 l 257
165 41 m 257
 165 191 l 257
 251 191 l 257
 251 263 l 257
 165 263 l 257
 165 419 l 257
 200 419 l 258
 279 419 295 332 295 230 c 256
 295 128 279 41 200 41 c 258
 165 41 l 257
EndSplineSet
Validated: 9
EndChar

StartChar: Euro
Encoding: 166 8364 166
GlifName: E_uro
Width: 397
VWidth: 0
Flags: W
LayerCount: 2
Back
Fore
SplineSet
291 127 m 257
 291 68 270 35 232 35 c 256
 188 35 168 78 160 145 c 257
 254 145 l 257
 254 211 l 257
 157 211 l 257
 157 217 157 223 157 230 c 258
 157 249 l 257
 254 249 l 257
 254 315 l 257
 161 315 l 257
 168 383 188 425 232 425 c 256
 267 425 290 392 290 333 c 257
 388 341 l 257
 386 418 345 469 232 469 c 256
 122 469 70 404 52 315 c 257
 8 315 l 257
 8 249 l 257
 45 249 l 257
 45 243 45 236 45 230 c 258
 45 211 l 257
 8 211 l 257
 8 145 l 257
 52 145 l 257
 70 56 122 -9 232 -9 c 256
 346 -9 388 42 389 121 c 257
 291 127 l 257
EndSplineSet
Validated: 9
EndChar

StartChar: F
Encoding: 167 70 167
GlifName: F_
Width: 320
VWidth: 0
Flags: W
LayerCount: 2
Back
Fore
SplineSet
165 397 m 257
 313 397 l 257
 313 460 l 257
 52 460 l 257
 52 0 l 257
 165 0 l 257
 165 203 l 257
 287 203 l 257
 287 265 l 257
 165 265 l 257
 165 397 l 257
EndSplineSet
Validated: 9
EndChar

StartChar: G
Encoding: 168 71 168
GlifName: G_
Width: 439
VWidth: 0
Flags: W
LayerCount: 2
Back
Fore
SplineSet
393 239 m 257
 228 239 l 257
 228 185 l 257
 297 185 l 257
 297 171 l 258
 296 68 266 38 212 38 c 256
 155 38 138 105 138 230 c 256
 138 370 157 422 221 422 c 256
 271 422 287 384 292 321 c 257
 382 335 l 257
 373 416 341 469 221 469 c 256
 69 469 25 386 25 230 c 256
 25 82 69 -9 212 -9 c 256
 262 -9 296 14 319 44 c 257
 339 0 l 257
 393 0 l 257
 393 239 l 257
EndSplineSet
Validated: 9
EndChar

StartChar: GNaOttu
Encoding: 169 -1 169
GlifName: G_N_aO_ttu
Width: 23
VWidth: 0
Flags: W
AnchorPoint: "Anchor-0" -96 23 mark 0
LayerCount: 2
Back
Fore
SplineSet
227 -565 m 256
 227 -496 251 -459 316 -459 c 256
NamedP: "hr00"
 379 -459 403 -499 403 -565 c 256
 403 -614 396 -651 383 -675 c 257
 475 -675 l 257
 486 -651 492 -618 492 -575 c 256
 492 -476 422 -423 317 -423 c 256
 209 -423 138 -471 138 -575 c 256
 138 -618 144 -651 155 -675 c 257
 247 -675 l 257
 234 -651 227 -614 227 -565 c 256
425 -399 m 256
 486 -399 542 -371 542 -314 c 256
 542 -262 494 -239 440 -239 c 258
 423 -239 l 257
 423 -276 l 257
 452 -276 465 -287 465 -316 c 256
 465 -347 443 -361 411 -361 c 256
 373 -361 365 -338 365 -299 c 257
 297 -299 l 257
 297 -336 285 -361 250 -361 c 256
 219 -361 203 -334 203 -303 c 256
 203 -270 228 -248 277 -240 c 256
 324 -232 349 -215 353 -188 c 257
 414 -188 l 257
 414 -211 l 257
 479 -211 l 257
 479 -188 l 257
 542 -188 l 257
 542 -156 l 257
 479 -156 l 257
 479 -119 l 257
 414 -119 l 257
 414 -156 l 257
 352 -156 l 257
 342 -121 293 -106 244 -106 c 256
 168 -106 117 -125 117 -194 c 257
 204 -194 l 257
 204 -174 l 258
 204 -154 221 -139 242 -139 c 256
 267 -139 285 -152 285 -177 c 256
 285 -197 263 -211 220 -218 c 256
 153 -229 120 -258 120 -306 c 256
 120 -369 165 -398 232 -398 c 256
 280 -398 308 -388 327 -359 c 257
 345 -390 374 -399 425 -399 c 256
EndSplineSet
Validated: 9
Ligature2: "'blws' Below Base Substitutions in Telugu lookup 3 subtable" NgaOttu GaOttu
EndChar

StartChar: Ga
Encoding: 170 3095 170
GlifName: G_a
Width: 647
VWidth: 0
Flags: W
AnchorPoint: "Anchor-0" 0 0 basechar 0
LayerCount: 2
Back
Fore
SplineSet
570 169 m 256
 570 294 518 373 425 408 c 257
NamedP: "hr00"
 440 414 455 421 470 430 c 256
 523 460 577 502 631 556 c 257
 505 589 l 257
 467 532 386 445 314 428 c 257
 278 428 l 257
 249 436 231 476 231 511 c 257
 121 511 l 257
 121 468 136 434 167 411 c 257
 65 380 10 302 10 169 c 256
 10 100 20 44 39 0 c 257
 176 0 l 257
 153 44 141 106 141 186 c 256
 141 301 184 376 294 376 c 256
 403 376 439 302 439 186 c 256
 439 104 428 42 406 0 c 257
 544 0 l 257
 561 40 570 96 570 169 c 256
EndSplineSet
Validated: 9
EndChar

